<mxfile host="app.diagrams.net" modified="2022-07-04T09:08:42.005Z" agent="5.0 (Macintosh; Intel Mac OS X 10_15_7) AppleWebKit/537.36 (KHTML, like Gecko) Chrome/103.0.0.0 Safari/537.36" etag="ZbJowaAzUWzp_clecIsZ" version="20.0.4" type="github" pages="14">
  <diagram id="K2DlhM-J08PDRTjLnYzl" name="數據平台全球化架構">
    <mxGraphModel dx="1426" dy="697" grid="1" gridSize="10" guides="1" tooltips="1" connect="1" arrows="1" fold="1" page="1" pageScale="1" pageWidth="827" pageHeight="1169" math="0" shadow="0">
      <root>
        <mxCell id="0" />
        <mxCell id="1" parent="0" />
        <mxCell id="hgkpk0xOYdOSPN1ajMoU-1" value="" style="rounded=0;whiteSpace=wrap;html=1;fontSize=18;fillColor=#FFFFFF;" parent="1" vertex="1">
          <mxGeometry x="100" y="330" width="200" height="740" as="geometry" />
        </mxCell>
        <mxCell id="hgkpk0xOYdOSPN1ajMoU-2" value="" style="rounded=0;whiteSpace=wrap;html=1;fontSize=18;fillColor=#FFFFFF;" parent="1" vertex="1">
          <mxGeometry x="320" y="330" width="180" height="740" as="geometry" />
        </mxCell>
        <mxCell id="hgkpk0xOYdOSPN1ajMoU-3" value="&lt;font style=&quot;font-size: 12px;&quot;&gt;nginx&lt;/font&gt;" style="rounded=0;whiteSpace=wrap;html=1;fontSize=18;fillColor=#CCFFCC;" parent="1" vertex="1">
          <mxGeometry x="100" y="280" width="200" height="30" as="geometry" />
        </mxCell>
        <mxCell id="hgkpk0xOYdOSPN1ajMoU-4" value="&lt;font style=&quot;font-size: 12px;&quot;&gt;nginx&lt;/font&gt;" style="rounded=0;whiteSpace=wrap;html=1;fontSize=18;fillColor=#CCFFCC;" parent="1" vertex="1">
          <mxGeometry x="320" y="280" width="180" height="30" as="geometry" />
        </mxCell>
        <mxCell id="hgkpk0xOYdOSPN1ajMoU-5" value="&lt;font style=&quot;font-size: 12px;&quot;&gt;nginx&lt;/font&gt;" style="rounded=0;whiteSpace=wrap;html=1;fontSize=18;fillColor=#CCFFCC;" parent="1" vertex="1">
          <mxGeometry x="520" y="280" width="175" height="30" as="geometry" />
        </mxCell>
        <mxCell id="hgkpk0xOYdOSPN1ajMoU-6" value="&lt;font style=&quot;font-size: 12px;&quot;&gt;nginx&lt;/font&gt;" style="rounded=0;whiteSpace=wrap;html=1;fontSize=18;fillColor=#CCFFCC;" parent="1" vertex="1">
          <mxGeometry x="714.5" y="280" width="185.5" height="30" as="geometry" />
        </mxCell>
        <mxCell id="hgkpk0xOYdOSPN1ajMoU-7" style="edgeStyle=none;shape=link;rounded=0;orthogonalLoop=1;jettySize=auto;html=1;exitX=1;exitY=0.5;exitDx=0;exitDy=0;exitPerimeter=0;entryX=0;entryY=0.5;entryDx=0;entryDy=0;entryPerimeter=0;fillColor=#D4FCFF;" parent="1" source="hgkpk0xOYdOSPN1ajMoU-8" target="hgkpk0xOYdOSPN1ajMoU-9" edge="1">
          <mxGeometry relative="1" as="geometry" />
        </mxCell>
        <mxCell id="hgkpk0xOYdOSPN1ajMoU-8" value="&lt;font style=&quot;font-size: 12px;&quot;&gt;digest master&lt;br&gt;&lt;/font&gt;" style="strokeWidth=2;html=1;shape=mxgraph.flowchart.database;whiteSpace=wrap;fontSize=18;fillColor=#F8CECC;" parent="1" vertex="1">
          <mxGeometry x="140" y="626" width="120" height="70" as="geometry" />
        </mxCell>
        <mxCell id="hgkpk0xOYdOSPN1ajMoU-9" value="&lt;font style=&quot;font-size: 12px;&quot;&gt;digest&amp;nbsp;slave&lt;br&gt;&lt;/font&gt;" style="strokeWidth=2;html=1;shape=mxgraph.flowchart.database;whiteSpace=wrap;fontSize=18;fillColor=#F8CECC;" parent="1" vertex="1">
          <mxGeometry x="340" y="626" width="120" height="70" as="geometry" />
        </mxCell>
        <mxCell id="hgkpk0xOYdOSPN1ajMoU-10" style="edgeStyle=none;shape=link;rounded=0;orthogonalLoop=1;jettySize=auto;html=1;exitX=0;exitY=0.5;exitDx=0;exitDy=0;exitPerimeter=0;fillColor=#D4FCFF;" parent="1" source="hgkpk0xOYdOSPN1ajMoU-11" target="hgkpk0xOYdOSPN1ajMoU-31" edge="1">
          <mxGeometry relative="1" as="geometry" />
        </mxCell>
        <mxCell id="hgkpk0xOYdOSPN1ajMoU-11" value="&lt;font style=&quot;font-size: 12px;&quot;&gt;VN report master&lt;br&gt;&lt;/font&gt;" style="strokeWidth=2;html=1;shape=mxgraph.flowchart.database;whiteSpace=wrap;fontSize=18;fillColor=#CCFFCC;" parent="1" vertex="1">
          <mxGeometry x="340" y="716" width="120" height="70" as="geometry" />
        </mxCell>
        <mxCell id="hgkpk0xOYdOSPN1ajMoU-12" value="&lt;font style=&quot;font-size: 10px;&quot;&gt;config server&lt;/font&gt;" style="rounded=0;whiteSpace=wrap;html=1;fontSize=18;fillColor=#99FFFF;" parent="1" vertex="1">
          <mxGeometry x="430" y="415.75" width="60" height="48.5" as="geometry" />
        </mxCell>
        <mxCell id="hgkpk0xOYdOSPN1ajMoU-13" value="&lt;font style=&quot;font-size: 10px;&quot;&gt;redis&lt;/font&gt;" style="rounded=0;whiteSpace=wrap;html=1;fontSize=18;fillColor=#99FFFF;" parent="1" vertex="1">
          <mxGeometry x="430" y="480" width="60" height="48.5" as="geometry" />
        </mxCell>
        <mxCell id="hgkpk0xOYdOSPN1ajMoU-14" value="&lt;span style=&quot;font-size: 14px;&quot;&gt;亞太&lt;/span&gt;" style="text;html=1;resizable=0;autosize=1;align=center;verticalAlign=middle;points=[];fillColor=none;strokeColor=none;rounded=0;fontSize=18;" parent="1" vertex="1">
          <mxGeometry x="180" y="250" width="40" height="30" as="geometry" />
        </mxCell>
        <mxCell id="hgkpk0xOYdOSPN1ajMoU-15" value="&lt;span style=&quot;font-size: 14px;&quot;&gt;VN&lt;br&gt;&lt;/span&gt;" style="text;html=1;resizable=0;autosize=1;align=center;verticalAlign=middle;points=[];fillColor=none;strokeColor=none;rounded=0;fontSize=18;" parent="1" vertex="1">
          <mxGeometry x="399" y="250" width="30" height="30" as="geometry" />
        </mxCell>
        <mxCell id="hgkpk0xOYdOSPN1ajMoU-16" value="" style="edgeStyle=orthogonalEdgeStyle;rounded=0;orthogonalLoop=1;jettySize=auto;html=1;" parent="1" source="hgkpk0xOYdOSPN1ajMoU-17" target="hgkpk0xOYdOSPN1ajMoU-14" edge="1">
          <mxGeometry relative="1" as="geometry" />
        </mxCell>
        <mxCell id="hgkpk0xOYdOSPN1ajMoU-17" value="" style="shape=umlActor;verticalLabelPosition=bottom;verticalAlign=top;html=1;outlineConnect=0;" parent="1" vertex="1">
          <mxGeometry x="165" y="110" width="70" height="80" as="geometry" />
        </mxCell>
        <mxCell id="hgkpk0xOYdOSPN1ajMoU-18" value="" style="edgeStyle=orthogonalEdgeStyle;rounded=0;orthogonalLoop=1;jettySize=auto;html=1;" parent="1" source="hgkpk0xOYdOSPN1ajMoU-20" target="hgkpk0xOYdOSPN1ajMoU-15" edge="1">
          <mxGeometry relative="1" as="geometry" />
        </mxCell>
        <mxCell id="hgkpk0xOYdOSPN1ajMoU-19" value="query report" style="edgeLabel;html=1;align=center;verticalAlign=middle;resizable=0;points=[];" parent="hgkpk0xOYdOSPN1ajMoU-18" vertex="1" connectable="0">
          <mxGeometry x="-0.2" relative="1" as="geometry">
            <mxPoint as="offset" />
          </mxGeometry>
        </mxCell>
        <mxCell id="hgkpk0xOYdOSPN1ajMoU-20" value="" style="shape=umlActor;verticalLabelPosition=bottom;verticalAlign=top;html=1;outlineConnect=0;" parent="1" vertex="1">
          <mxGeometry x="379" y="110" width="70" height="80" as="geometry" />
        </mxCell>
        <mxCell id="hgkpk0xOYdOSPN1ajMoU-21" value="&lt;font style=&quot;font-size: 14px;&quot;&gt;管理後台&lt;/font&gt;" style="text;html=1;resizable=0;autosize=1;align=center;verticalAlign=middle;points=[];fillColor=none;strokeColor=none;rounded=0;fontSize=18;" parent="1" vertex="1">
          <mxGeometry x="165" y="70" width="70" height="30" as="geometry" />
        </mxCell>
        <mxCell id="hgkpk0xOYdOSPN1ajMoU-22" value="&lt;font style=&quot;font-size: 14px;&quot;&gt;子平台(VN)&lt;/font&gt;" style="text;html=1;resizable=0;autosize=1;align=center;verticalAlign=middle;points=[];fillColor=none;strokeColor=none;rounded=0;fontSize=18;" parent="1" vertex="1">
          <mxGeometry x="369" y="70" width="90" height="30" as="geometry" />
        </mxCell>
        <mxCell id="hgkpk0xOYdOSPN1ajMoU-23" value="" style="edgeStyle=orthogonalEdgeStyle;rounded=0;orthogonalLoop=1;jettySize=auto;html=1;" parent="1" edge="1">
          <mxGeometry relative="1" as="geometry">
            <mxPoint x="379" y="190" as="sourcePoint" />
            <mxPoint x="280" y="270" as="targetPoint" />
            <Array as="points">
              <mxPoint x="280" y="190" />
            </Array>
          </mxGeometry>
        </mxCell>
        <mxCell id="hgkpk0xOYdOSPN1ajMoU-24" value="Login" style="edgeLabel;html=1;align=center;verticalAlign=middle;resizable=0;points=[];" parent="hgkpk0xOYdOSPN1ajMoU-23" vertex="1" connectable="0">
          <mxGeometry x="-0.4916" y="-1" relative="1" as="geometry">
            <mxPoint x="1" as="offset" />
          </mxGeometry>
        </mxCell>
        <mxCell id="hgkpk0xOYdOSPN1ajMoU-25" value="&lt;span style=&quot;font-size: 14px;&quot;&gt;ID&lt;br&gt;&lt;/span&gt;" style="text;html=1;resizable=0;autosize=1;align=center;verticalAlign=middle;points=[];fillColor=none;strokeColor=none;rounded=0;fontSize=18;" parent="1" vertex="1">
          <mxGeometry x="593" y="250" width="30" height="30" as="geometry" />
        </mxCell>
        <mxCell id="hgkpk0xOYdOSPN1ajMoU-26" value="&lt;span style=&quot;font-size: 14px;&quot;&gt;BR&lt;br&gt;&lt;/span&gt;" style="text;html=1;resizable=0;autosize=1;align=center;verticalAlign=middle;points=[];fillColor=none;strokeColor=none;rounded=0;fontSize=18;" parent="1" vertex="1">
          <mxGeometry x="787.5" y="250" width="30" height="30" as="geometry" />
        </mxCell>
        <mxCell id="hgkpk0xOYdOSPN1ajMoU-27" value="&lt;span style=&quot;font-size: 12px;&quot;&gt;api server&lt;/span&gt;" style="rounded=0;whiteSpace=wrap;html=1;fontSize=18;fillColor=#FFE599;" parent="1" vertex="1">
          <mxGeometry x="120" y="350" width="85" height="46.25" as="geometry" />
        </mxCell>
        <mxCell id="hgkpk0xOYdOSPN1ajMoU-28" value="&lt;span style=&quot;font-size: 12px;&quot;&gt;api server&lt;/span&gt;&lt;span style=&quot;font-size: 12px;&quot;&gt;&lt;br&gt;&lt;/span&gt;" style="rounded=0;whiteSpace=wrap;html=1;fontSize=18;fillColor=#FFE599;" parent="1" vertex="1">
          <mxGeometry x="329" y="350" width="85" height="46.25" as="geometry" />
        </mxCell>
        <mxCell id="hgkpk0xOYdOSPN1ajMoU-29" value="&lt;span style=&quot;font-size: 12px;&quot;&gt;grpc server&lt;/span&gt;" style="rounded=0;whiteSpace=wrap;html=1;fontSize=18;fillColor=#FFE599;" parent="1" vertex="1">
          <mxGeometry x="329" y="410" width="85" height="46.25" as="geometry" />
        </mxCell>
        <mxCell id="hgkpk0xOYdOSPN1ajMoU-30" value="&lt;span style=&quot;font-size: 12px;&quot;&gt;report task&lt;/span&gt;" style="rounded=0;whiteSpace=wrap;html=1;fontSize=18;fillColor=#FFE599;" parent="1" vertex="1">
          <mxGeometry x="329" y="468.5" width="85" height="46.25" as="geometry" />
        </mxCell>
        <mxCell id="hgkpk0xOYdOSPN1ajMoU-31" value="&lt;font style=&quot;font-size: 12px;&quot;&gt;VN+ID+BR slave&lt;br&gt;&lt;/font&gt;" style="strokeWidth=2;html=1;shape=mxgraph.flowchart.database;whiteSpace=wrap;fontSize=18;fillColor=#CCFFCC;" parent="1" vertex="1">
          <mxGeometry x="140" y="810" width="120" height="70" as="geometry" />
        </mxCell>
        <mxCell id="hgkpk0xOYdOSPN1ajMoU-32" value="&lt;font style=&quot;font-size: 10px;&quot;&gt;config server&lt;/font&gt;" style="rounded=0;whiteSpace=wrap;html=1;fontSize=18;fillColor=#99FFFF;" parent="1" vertex="1">
          <mxGeometry x="230" y="415.75" width="60" height="48.5" as="geometry" />
        </mxCell>
        <mxCell id="hgkpk0xOYdOSPN1ajMoU-33" style="edgeStyle=none;rounded=0;orthogonalLoop=1;jettySize=auto;html=1;exitX=1;exitY=0.5;exitDx=0;exitDy=0;entryX=0;entryY=0.5;entryDx=0;entryDy=0;shape=link;" parent="1" source="hgkpk0xOYdOSPN1ajMoU-34" target="hgkpk0xOYdOSPN1ajMoU-35" edge="1">
          <mxGeometry relative="1" as="geometry" />
        </mxCell>
        <mxCell id="hgkpk0xOYdOSPN1ajMoU-34" value="&lt;font style=&quot;font-size: 10px;&quot;&gt;safedog&lt;br&gt;(master)&lt;br&gt;&lt;/font&gt;" style="rounded=0;whiteSpace=wrap;html=1;fontSize=18;fillColor=#99FFFF;" parent="1" vertex="1">
          <mxGeometry x="230" y="540.75" width="60" height="48.5" as="geometry" />
        </mxCell>
        <mxCell id="hgkpk0xOYdOSPN1ajMoU-35" value="&lt;font style=&quot;font-size: 10px;&quot;&gt;safedog&lt;br&gt;(slave)&lt;br&gt;&lt;/font&gt;" style="rounded=0;whiteSpace=wrap;html=1;fontSize=18;fillColor=#99FFFF;" parent="1" vertex="1">
          <mxGeometry x="430" y="540.75" width="60" height="48.5" as="geometry" />
        </mxCell>
        <mxCell id="hgkpk0xOYdOSPN1ajMoU-36" value="" style="rounded=0;whiteSpace=wrap;html=1;fontSize=18;fillColor=#FFFFFF;" parent="1" vertex="1">
          <mxGeometry x="520" y="330" width="180" height="740" as="geometry" />
        </mxCell>
        <mxCell id="hgkpk0xOYdOSPN1ajMoU-37" value="&lt;font style=&quot;font-size: 12px;&quot;&gt;digest&amp;nbsp;slave&lt;br&gt;&lt;/font&gt;" style="strokeWidth=2;html=1;shape=mxgraph.flowchart.database;whiteSpace=wrap;fontSize=18;fillColor=#F8CECC;" parent="1" vertex="1">
          <mxGeometry x="540" y="626" width="120" height="70" as="geometry" />
        </mxCell>
        <mxCell id="hgkpk0xOYdOSPN1ajMoU-38" style="edgeStyle=none;shape=link;rounded=0;orthogonalLoop=1;jettySize=auto;html=1;exitX=0;exitY=0.5;exitDx=0;exitDy=0;exitPerimeter=0;entryX=1;entryY=0.5;entryDx=0;entryDy=0;entryPerimeter=0;fillColor=#D4FCFF;" parent="1" source="hgkpk0xOYdOSPN1ajMoU-39" target="hgkpk0xOYdOSPN1ajMoU-31" edge="1">
          <mxGeometry relative="1" as="geometry" />
        </mxCell>
        <mxCell id="hgkpk0xOYdOSPN1ajMoU-39" value="&lt;font style=&quot;font-size: 12px;&quot;&gt;ID report master&lt;br&gt;&lt;/font&gt;" style="strokeWidth=2;html=1;shape=mxgraph.flowchart.database;whiteSpace=wrap;fontSize=18;fillColor=#CCFFCC;" parent="1" vertex="1">
          <mxGeometry x="540" y="800" width="120" height="70" as="geometry" />
        </mxCell>
        <mxCell id="hgkpk0xOYdOSPN1ajMoU-40" value="&lt;font style=&quot;font-size: 10px;&quot;&gt;config server&lt;/font&gt;" style="rounded=0;whiteSpace=wrap;html=1;fontSize=18;fillColor=#99FFFF;" parent="1" vertex="1">
          <mxGeometry x="630" y="415.75" width="60" height="48.5" as="geometry" />
        </mxCell>
        <mxCell id="hgkpk0xOYdOSPN1ajMoU-41" value="&lt;font style=&quot;font-size: 10px;&quot;&gt;redis&lt;/font&gt;" style="rounded=0;whiteSpace=wrap;html=1;fontSize=18;fillColor=#99FFFF;" parent="1" vertex="1">
          <mxGeometry x="630" y="480" width="60" height="48.5" as="geometry" />
        </mxCell>
        <mxCell id="hgkpk0xOYdOSPN1ajMoU-42" value="&lt;span style=&quot;font-size: 12px;&quot;&gt;api server&lt;/span&gt;&lt;span style=&quot;font-size: 12px;&quot;&gt;&lt;br&gt;&lt;/span&gt;" style="rounded=0;whiteSpace=wrap;html=1;fontSize=18;fillColor=#FFE599;" parent="1" vertex="1">
          <mxGeometry x="529" y="350" width="85" height="46.25" as="geometry" />
        </mxCell>
        <mxCell id="hgkpk0xOYdOSPN1ajMoU-43" value="&lt;span style=&quot;font-size: 12px;&quot;&gt;grpc server&lt;/span&gt;" style="rounded=0;whiteSpace=wrap;html=1;fontSize=18;fillColor=#FFE599;" parent="1" vertex="1">
          <mxGeometry x="529" y="410" width="85" height="46.25" as="geometry" />
        </mxCell>
        <mxCell id="hgkpk0xOYdOSPN1ajMoU-44" value="&lt;span style=&quot;font-size: 12px;&quot;&gt;report task&lt;/span&gt;" style="rounded=0;whiteSpace=wrap;html=1;fontSize=18;fillColor=#FFE599;" parent="1" vertex="1">
          <mxGeometry x="529" y="468.5" width="85" height="46.25" as="geometry" />
        </mxCell>
        <mxCell id="hgkpk0xOYdOSPN1ajMoU-45" value="&lt;font style=&quot;font-size: 10px;&quot;&gt;safedog&lt;br&gt;(slave)&lt;br&gt;&lt;/font&gt;" style="rounded=0;whiteSpace=wrap;html=1;fontSize=18;fillColor=#99FFFF;" parent="1" vertex="1">
          <mxGeometry x="630" y="540.75" width="60" height="48.5" as="geometry" />
        </mxCell>
        <mxCell id="hgkpk0xOYdOSPN1ajMoU-46" value="" style="rounded=0;whiteSpace=wrap;html=1;fontSize=18;fillColor=#FFFFFF;" parent="1" vertex="1">
          <mxGeometry x="720" y="330" width="180" height="740" as="geometry" />
        </mxCell>
        <mxCell id="hgkpk0xOYdOSPN1ajMoU-47" value="&lt;font style=&quot;font-size: 12px;&quot;&gt;digest&amp;nbsp;slave&lt;br&gt;&lt;/font&gt;" style="strokeWidth=2;html=1;shape=mxgraph.flowchart.database;whiteSpace=wrap;fontSize=18;fillColor=#F8CECC;" parent="1" vertex="1">
          <mxGeometry x="740" y="626" width="120" height="70" as="geometry" />
        </mxCell>
        <mxCell id="hgkpk0xOYdOSPN1ajMoU-48" style="edgeStyle=none;shape=link;rounded=0;orthogonalLoop=1;jettySize=auto;html=1;exitX=0;exitY=0.5;exitDx=0;exitDy=0;exitPerimeter=0;entryX=1;entryY=0.85;entryDx=0;entryDy=0;entryPerimeter=0;fillColor=#D4FCFF;" parent="1" source="hgkpk0xOYdOSPN1ajMoU-49" target="hgkpk0xOYdOSPN1ajMoU-31" edge="1">
          <mxGeometry relative="1" as="geometry" />
        </mxCell>
        <mxCell id="hgkpk0xOYdOSPN1ajMoU-49" value="&lt;font style=&quot;font-size: 12px;&quot;&gt;BR&amp;nbsp;report&amp;nbsp;master&lt;br&gt;&lt;/font&gt;" style="strokeWidth=2;html=1;shape=mxgraph.flowchart.database;whiteSpace=wrap;fontSize=18;fillColor=#CCFFCC;" parent="1" vertex="1">
          <mxGeometry x="747.25" y="880" width="120" height="70" as="geometry" />
        </mxCell>
        <mxCell id="hgkpk0xOYdOSPN1ajMoU-50" value="&lt;font style=&quot;font-size: 10px;&quot;&gt;config server&lt;/font&gt;" style="rounded=0;whiteSpace=wrap;html=1;fontSize=18;fillColor=#99FFFF;" parent="1" vertex="1">
          <mxGeometry x="830" y="415.75" width="60" height="48.5" as="geometry" />
        </mxCell>
        <mxCell id="hgkpk0xOYdOSPN1ajMoU-51" value="&lt;font style=&quot;font-size: 10px;&quot;&gt;redis&lt;/font&gt;" style="rounded=0;whiteSpace=wrap;html=1;fontSize=18;fillColor=#99FFFF;" parent="1" vertex="1">
          <mxGeometry x="830" y="480" width="60" height="48.5" as="geometry" />
        </mxCell>
        <mxCell id="hgkpk0xOYdOSPN1ajMoU-52" value="&lt;span style=&quot;font-size: 12px;&quot;&gt;api server&lt;/span&gt;&lt;span style=&quot;font-size: 12px;&quot;&gt;&lt;br&gt;&lt;/span&gt;" style="rounded=0;whiteSpace=wrap;html=1;fontSize=18;fillColor=#FFE599;" parent="1" vertex="1">
          <mxGeometry x="729" y="350" width="85" height="46.25" as="geometry" />
        </mxCell>
        <mxCell id="hgkpk0xOYdOSPN1ajMoU-53" value="&lt;span style=&quot;font-size: 12px;&quot;&gt;grpc server&lt;/span&gt;" style="rounded=0;whiteSpace=wrap;html=1;fontSize=18;fillColor=#FFE599;" parent="1" vertex="1">
          <mxGeometry x="729" y="410" width="85" height="46.25" as="geometry" />
        </mxCell>
        <mxCell id="hgkpk0xOYdOSPN1ajMoU-54" value="&lt;span style=&quot;font-size: 12px;&quot;&gt;report task&lt;/span&gt;" style="rounded=0;whiteSpace=wrap;html=1;fontSize=18;fillColor=#FFE599;" parent="1" vertex="1">
          <mxGeometry x="729" y="468.5" width="85" height="46.25" as="geometry" />
        </mxCell>
        <mxCell id="hgkpk0xOYdOSPN1ajMoU-55" value="&lt;font style=&quot;font-size: 10px;&quot;&gt;safedog&lt;br&gt;(slave)&lt;br&gt;&lt;/font&gt;" style="rounded=0;whiteSpace=wrap;html=1;fontSize=18;fillColor=#99FFFF;" parent="1" vertex="1">
          <mxGeometry x="830" y="540.75" width="60" height="48.5" as="geometry" />
        </mxCell>
        <mxCell id="hgkpk0xOYdOSPN1ajMoU-56" value="&lt;font style=&quot;font-size: 10px;&quot;&gt;report dog&lt;/font&gt;" style="rounded=0;whiteSpace=wrap;html=1;fontSize=18;fillColor=#99FFFF;" parent="1" vertex="1">
          <mxGeometry x="230" y="350" width="60" height="48.5" as="geometry" />
        </mxCell>
        <mxCell id="hgkpk0xOYdOSPN1ajMoU-57" value="&lt;font style=&quot;font-size: 10px;&quot;&gt;report dog&lt;/font&gt;" style="rounded=0;whiteSpace=wrap;html=1;fontSize=18;fillColor=#99FFFF;" parent="1" vertex="1">
          <mxGeometry x="430" y="350" width="60" height="48.5" as="geometry" />
        </mxCell>
        <mxCell id="hgkpk0xOYdOSPN1ajMoU-58" value="&lt;font style=&quot;font-size: 10px;&quot;&gt;report dog&lt;/font&gt;" style="rounded=0;whiteSpace=wrap;html=1;fontSize=18;fillColor=#99FFFF;" parent="1" vertex="1">
          <mxGeometry x="630" y="350" width="60" height="48.5" as="geometry" />
        </mxCell>
        <mxCell id="hgkpk0xOYdOSPN1ajMoU-59" value="&lt;font style=&quot;font-size: 10px;&quot;&gt;report dog&lt;/font&gt;" style="rounded=0;whiteSpace=wrap;html=1;fontSize=18;fillColor=#99FFFF;" parent="1" vertex="1">
          <mxGeometry x="830" y="348.88" width="60" height="48.5" as="geometry" />
        </mxCell>
        <mxCell id="hgkpk0xOYdOSPN1ajMoU-60" value="&lt;font style=&quot;font-size: 10px;&quot;&gt;redis&lt;/font&gt;" style="rounded=0;whiteSpace=wrap;html=1;fontSize=18;fillColor=#99FFFF;" parent="1" vertex="1">
          <mxGeometry x="230" y="480" width="60" height="48.5" as="geometry" />
        </mxCell>
        <mxCell id="hgkpk0xOYdOSPN1ajMoU-61" style="edgeStyle=none;shape=link;rounded=0;orthogonalLoop=1;jettySize=auto;html=1;exitX=1;exitY=0.5;exitDx=0;exitDy=0;fillColor=#D4FCFF;" parent="1" source="hgkpk0xOYdOSPN1ajMoU-35" target="hgkpk0xOYdOSPN1ajMoU-45" edge="1">
          <mxGeometry relative="1" as="geometry" />
        </mxCell>
        <mxCell id="hgkpk0xOYdOSPN1ajMoU-62" style="edgeStyle=none;shape=link;rounded=0;orthogonalLoop=1;jettySize=auto;html=1;exitX=1;exitY=0.5;exitDx=0;exitDy=0;entryX=0;entryY=0.5;entryDx=0;entryDy=0;fillColor=#D4FCFF;" parent="1" source="hgkpk0xOYdOSPN1ajMoU-45" target="hgkpk0xOYdOSPN1ajMoU-55" edge="1">
          <mxGeometry relative="1" as="geometry" />
        </mxCell>
        <mxCell id="hgkpk0xOYdOSPN1ajMoU-63" style="edgeStyle=none;shape=link;rounded=0;orthogonalLoop=1;jettySize=auto;html=1;exitX=1;exitY=0.5;exitDx=0;exitDy=0;exitPerimeter=0;fillColor=#D4FCFF;" parent="1" source="hgkpk0xOYdOSPN1ajMoU-9" target="hgkpk0xOYdOSPN1ajMoU-37" edge="1">
          <mxGeometry relative="1" as="geometry" />
        </mxCell>
        <mxCell id="hgkpk0xOYdOSPN1ajMoU-64" style="edgeStyle=none;shape=link;rounded=0;orthogonalLoop=1;jettySize=auto;html=1;exitX=1;exitY=0.5;exitDx=0;exitDy=0;exitPerimeter=0;fillColor=#D4FCFF;" parent="1" source="hgkpk0xOYdOSPN1ajMoU-37" target="hgkpk0xOYdOSPN1ajMoU-47" edge="1">
          <mxGeometry relative="1" as="geometry" />
        </mxCell>
        <mxCell id="hgkpk0xOYdOSPN1ajMoU-65" value="&lt;span style=&quot;font-size: 14px;&quot;&gt;MySQL&lt;/span&gt;" style="text;html=1;resizable=0;autosize=1;align=center;verticalAlign=middle;points=[];fillColor=none;strokeColor=none;rounded=0;fontSize=18;" parent="1" vertex="1">
          <mxGeometry x="170" y="620" width="60" height="30" as="geometry" />
        </mxCell>
        <mxCell id="hgkpk0xOYdOSPN1ajMoU-66" value="&lt;span style=&quot;font-size: 14px;&quot;&gt;MySQL&lt;/span&gt;" style="text;html=1;resizable=0;autosize=1;align=center;verticalAlign=middle;points=[];fillColor=none;strokeColor=none;rounded=0;fontSize=18;" parent="1" vertex="1">
          <mxGeometry x="370" y="620" width="60" height="30" as="geometry" />
        </mxCell>
        <mxCell id="hgkpk0xOYdOSPN1ajMoU-67" value="&lt;span style=&quot;font-size: 14px;&quot;&gt;MySQL&lt;/span&gt;" style="text;html=1;resizable=0;autosize=1;align=center;verticalAlign=middle;points=[];fillColor=none;strokeColor=none;rounded=0;fontSize=18;" parent="1" vertex="1">
          <mxGeometry x="570" y="620" width="60" height="30" as="geometry" />
        </mxCell>
        <mxCell id="hgkpk0xOYdOSPN1ajMoU-68" value="&lt;span style=&quot;font-size: 14px;&quot;&gt;MySQL&lt;/span&gt;" style="text;html=1;resizable=0;autosize=1;align=center;verticalAlign=middle;points=[];fillColor=none;strokeColor=none;rounded=0;fontSize=18;" parent="1" vertex="1">
          <mxGeometry x="772.5" y="620" width="60" height="30" as="geometry" />
        </mxCell>
        <mxCell id="hgkpk0xOYdOSPN1ajMoU-69" value="&lt;span style=&quot;font-size: 14px;&quot;&gt;MySQL+Mongo&lt;/span&gt;" style="text;html=1;resizable=0;autosize=1;align=center;verticalAlign=middle;points=[];fillColor=none;strokeColor=none;rounded=0;fontSize=18;" parent="1" vertex="1">
          <mxGeometry x="145" y="800" width="110" height="30" as="geometry" />
        </mxCell>
        <mxCell id="hgkpk0xOYdOSPN1ajMoU-70" value="&lt;span style=&quot;font-size: 14px;&quot;&gt;MySQL+Mongo&lt;/span&gt;" style="text;html=1;resizable=0;autosize=1;align=center;verticalAlign=middle;points=[];fillColor=none;strokeColor=none;rounded=0;fontSize=18;" parent="1" vertex="1">
          <mxGeometry x="350" y="710" width="110" height="30" as="geometry" />
        </mxCell>
        <mxCell id="hgkpk0xOYdOSPN1ajMoU-71" value="&lt;span style=&quot;font-size: 14px;&quot;&gt;MySQL+Mongo&lt;/span&gt;" style="text;html=1;resizable=0;autosize=1;align=center;verticalAlign=middle;points=[];fillColor=none;strokeColor=none;rounded=0;fontSize=18;" parent="1" vertex="1">
          <mxGeometry x="545" y="790" width="110" height="30" as="geometry" />
        </mxCell>
        <mxCell id="hgkpk0xOYdOSPN1ajMoU-72" value="&lt;span style=&quot;font-size: 14px;&quot;&gt;MySQL+Mongo&lt;/span&gt;" style="text;html=1;resizable=0;autosize=1;align=center;verticalAlign=middle;points=[];fillColor=none;strokeColor=none;rounded=0;fontSize=18;" parent="1" vertex="1">
          <mxGeometry x="755" y="870" width="110" height="30" as="geometry" />
        </mxCell>
        <mxCell id="hgkpk0xOYdOSPN1ajMoU-73" value="&lt;font style=&quot;font-size: 12px;&quot;&gt;VN ES&lt;br&gt;&lt;/font&gt;" style="strokeWidth=2;html=1;shape=mxgraph.flowchart.database;whiteSpace=wrap;fontSize=18;fillColor=#FF99FF;" parent="1" vertex="1">
          <mxGeometry x="350" y="990" width="120" height="70" as="geometry" />
        </mxCell>
        <mxCell id="hgkpk0xOYdOSPN1ajMoU-74" value="&lt;font style=&quot;font-size: 12px;&quot;&gt;ID ES&lt;br&gt;&lt;/font&gt;" style="strokeWidth=2;html=1;shape=mxgraph.flowchart.database;whiteSpace=wrap;fontSize=18;fillColor=#FF99FF;" parent="1" vertex="1">
          <mxGeometry x="550" y="990" width="120" height="70" as="geometry" />
        </mxCell>
        <mxCell id="hgkpk0xOYdOSPN1ajMoU-75" value="&lt;font style=&quot;font-size: 12px;&quot;&gt;BR ES&lt;br&gt;&lt;/font&gt;" style="strokeWidth=2;html=1;shape=mxgraph.flowchart.database;whiteSpace=wrap;fontSize=18;fillColor=#FF99FF;" parent="1" vertex="1">
          <mxGeometry x="750" y="990" width="120" height="70" as="geometry" />
        </mxCell>
      </root>
    </mxGraphModel>
  </diagram>
  <diagram id="BdUU7tpHAhMGFw4S_X6f" name="數據平台整體架構">
    <mxGraphModel dx="1426" dy="697" grid="1" gridSize="10" guides="1" tooltips="1" connect="1" arrows="1" fold="1" page="1" pageScale="1" pageWidth="827" pageHeight="1169" math="0" shadow="0">
      <root>
        <mxCell id="0" />
        <mxCell id="1" parent="0" />
        <mxCell id="qNZgiSOwxIsgd4O16-VR-54" value="" style="rounded=0;whiteSpace=wrap;html=1;fontSize=18;fillColor=#FFFFFF;" parent="1" vertex="1">
          <mxGeometry x="160" y="490" width="690" height="80" as="geometry" />
        </mxCell>
        <mxCell id="qNZgiSOwxIsgd4O16-VR-55" value="" style="rounded=0;whiteSpace=wrap;html=1;fontSize=18;fillColor=#FFFFFF;" parent="1" vertex="1">
          <mxGeometry x="322" y="393" width="258" height="80" as="geometry" />
        </mxCell>
        <mxCell id="qNZgiSOwxIsgd4O16-VR-56" style="edgeStyle=none;rounded=0;orthogonalLoop=1;jettySize=auto;html=1;exitX=1;exitY=0.5;exitDx=0;exitDy=0;fontSize=12;elbow=vertical;entryX=0.97;entryY=1;entryDx=0;entryDy=0;entryPerimeter=0;" parent="1" source="qNZgiSOwxIsgd4O16-VR-57" target="qNZgiSOwxIsgd4O16-VR-83" edge="1">
          <mxGeometry relative="1" as="geometry">
            <mxPoint x="240" y="240" as="targetPoint" />
          </mxGeometry>
        </mxCell>
        <mxCell id="qNZgiSOwxIsgd4O16-VR-57" value="" style="rounded=0;whiteSpace=wrap;html=1;fontSize=18;fillColor=#FFFFFF;" parent="1" vertex="1">
          <mxGeometry x="130" y="130" width="80" height="220" as="geometry" />
        </mxCell>
        <mxCell id="qNZgiSOwxIsgd4O16-VR-58" style="edgeStyle=orthogonalEdgeStyle;shape=flexArrow;curved=1;rounded=0;orthogonalLoop=1;jettySize=auto;html=1;exitX=0.5;exitY=1;exitDx=0;exitDy=0;entryX=0.5;entryY=0;entryDx=0;entryDy=0;fontSize=10;elbow=vertical;" parent="1" source="qNZgiSOwxIsgd4O16-VR-59" target="qNZgiSOwxIsgd4O16-VR-55" edge="1">
          <mxGeometry relative="1" as="geometry" />
        </mxCell>
        <mxCell id="qNZgiSOwxIsgd4O16-VR-59" value="" style="rounded=0;whiteSpace=wrap;html=1;fontSize=18;fillColor=#FFFFFF;" parent="1" vertex="1">
          <mxGeometry x="357" y="130" width="188" height="220" as="geometry" />
        </mxCell>
        <mxCell id="qNZgiSOwxIsgd4O16-VR-60" style="edgeStyle=orthogonalEdgeStyle;curved=1;rounded=0;orthogonalLoop=1;jettySize=auto;html=1;exitX=0.25;exitY=1;exitDx=0;exitDy=0;entryX=0.25;entryY=0;entryDx=0;entryDy=0;fontSize=10;elbow=vertical;" parent="1" source="qNZgiSOwxIsgd4O16-VR-63" target="qNZgiSOwxIsgd4O16-VR-91" edge="1">
          <mxGeometry relative="1" as="geometry">
            <Array as="points">
              <mxPoint x="407" y="380" />
              <mxPoint x="229" y="380" />
            </Array>
          </mxGeometry>
        </mxCell>
        <mxCell id="qNZgiSOwxIsgd4O16-VR-61" value="http request" style="edgeLabel;html=1;align=center;verticalAlign=middle;resizable=0;points=[];fontSize=10;" parent="qNZgiSOwxIsgd4O16-VR-60" connectable="0" vertex="1">
          <mxGeometry x="0.0184" y="7" relative="1" as="geometry">
            <mxPoint as="offset" />
          </mxGeometry>
        </mxCell>
        <mxCell id="qNZgiSOwxIsgd4O16-VR-62" style="edgeStyle=orthogonalEdgeStyle;curved=1;rounded=0;orthogonalLoop=1;jettySize=auto;html=1;exitX=0.25;exitY=0;exitDx=0;exitDy=0;entryX=0.5;entryY=1;entryDx=0;entryDy=0;fontSize=10;elbow=vertical;" parent="1" source="qNZgiSOwxIsgd4O16-VR-63" target="qNZgiSOwxIsgd4O16-VR-106" edge="1">
          <mxGeometry relative="1" as="geometry" />
        </mxCell>
        <mxCell id="qNZgiSOwxIsgd4O16-VR-63" value="" style="rounded=0;whiteSpace=wrap;html=1;fontSize=14;fillColor=#FFFFFF;" parent="1" vertex="1">
          <mxGeometry x="369" y="190" width="150" height="140" as="geometry" />
        </mxCell>
        <mxCell id="qNZgiSOwxIsgd4O16-VR-64" value="&lt;font style=&quot;font-size: 12px;&quot;&gt;log files&lt;/font&gt;" style="verticalLabelPosition=bottom;verticalAlign=top;html=1;shape=mxgraph.basic.layered_rect;dx=10;outlineConnect=0;fontSize=18;" parent="1" vertex="1">
          <mxGeometry x="141.25" y="180" width="57.5" height="37.5" as="geometry" />
        </mxCell>
        <mxCell id="qNZgiSOwxIsgd4O16-VR-65" value="&lt;font style=&quot;font-size: 14px;&quot;&gt;game&lt;/font&gt;" style="text;html=1;resizable=0;autosize=1;align=center;verticalAlign=middle;points=[];fillColor=none;strokeColor=none;rounded=0;fontSize=18;" parent="1" vertex="1">
          <mxGeometry x="143.75" y="100" width="50" height="30" as="geometry" />
        </mxCell>
        <mxCell id="qNZgiSOwxIsgd4O16-VR-66" value="&lt;font style=&quot;font-size: 14px;&quot;&gt;ingestion&lt;/font&gt;" style="text;html=1;resizable=0;autosize=1;align=center;verticalAlign=middle;points=[];fillColor=none;strokeColor=none;rounded=0;fontSize=18;" parent="1" vertex="1">
          <mxGeometry x="350" y="100" width="70" height="30" as="geometry" />
        </mxCell>
        <mxCell id="qNZgiSOwxIsgd4O16-VR-67" style="edgeStyle=orthogonalEdgeStyle;rounded=0;orthogonalLoop=1;jettySize=auto;html=1;exitX=1;exitY=0.5;exitDx=0;exitDy=0;entryX=0;entryY=0.5;entryDx=0;entryDy=0;fontSize=10;elbow=vertical;curved=1;" parent="1" source="qNZgiSOwxIsgd4O16-VR-68" target="qNZgiSOwxIsgd4O16-VR-63" edge="1">
          <mxGeometry relative="1" as="geometry" />
        </mxCell>
        <mxCell id="qNZgiSOwxIsgd4O16-VR-68" value="&lt;span style=&quot;font-size: 14px;&quot;&gt;kafka Cluster&lt;/span&gt;" style="rounded=0;whiteSpace=wrap;html=1;fontSize=18;fillColor=#FFFFFF;" parent="1" vertex="1">
          <mxGeometry x="257" y="130" width="75" height="220" as="geometry" />
        </mxCell>
        <mxCell id="qNZgiSOwxIsgd4O16-VR-69" style="edgeStyle=orthogonalEdgeStyle;curved=1;rounded=0;orthogonalLoop=1;jettySize=auto;html=1;exitX=1;exitY=0.5;exitDx=0;exitDy=0;fontSize=10;elbow=vertical;" parent="1" source="qNZgiSOwxIsgd4O16-VR-70" edge="1">
          <mxGeometry relative="1" as="geometry">
            <mxPoint x="560" y="170.75" as="targetPoint" />
          </mxGeometry>
        </mxCell>
        <mxCell id="qNZgiSOwxIsgd4O16-VR-70" value="&lt;font style=&quot;font-size: 12px;&quot;&gt;API Service&lt;/font&gt;" style="rounded=0;whiteSpace=wrap;html=1;fontSize=18;fillColor=#FFE599;" parent="1" vertex="1">
          <mxGeometry x="448" y="138" width="71" height="42" as="geometry" />
        </mxCell>
        <mxCell id="qNZgiSOwxIsgd4O16-VR-71" value="" style="rounded=0;whiteSpace=wrap;html=1;fontSize=18;fillColor=#FFFFFF;" parent="1" vertex="1">
          <mxGeometry x="649" y="130" width="181" height="220" as="geometry" />
        </mxCell>
        <mxCell id="qNZgiSOwxIsgd4O16-VR-72" value="&lt;font style=&quot;font-size: 12px;&quot;&gt;ES&lt;/font&gt;" style="strokeWidth=2;html=1;shape=mxgraph.flowchart.database;whiteSpace=wrap;fontSize=18;fillColor=#FFE599;" parent="1" vertex="1">
          <mxGeometry x="370" y="401" width="61.25" height="55" as="geometry" />
        </mxCell>
        <mxCell id="qNZgiSOwxIsgd4O16-VR-73" value="&lt;font style=&quot;font-size: 12px;&quot;&gt;MySQL&lt;/font&gt;" style="strokeWidth=2;html=1;shape=mxgraph.flowchart.database;whiteSpace=wrap;fontSize=18;fillColor=#CCFFCC;" parent="1" vertex="1">
          <mxGeometry x="472" y="401" width="61.25" height="55" as="geometry" />
        </mxCell>
        <mxCell id="qNZgiSOwxIsgd4O16-VR-74" value="" style="rounded=0;whiteSpace=wrap;html=1;fontSize=18;fillColor=#FFFFFF;" parent="1" vertex="1">
          <mxGeometry x="603.01" y="393" width="95" height="80" as="geometry" />
        </mxCell>
        <mxCell id="qNZgiSOwxIsgd4O16-VR-75" value="&lt;font style=&quot;font-size: 12px;&quot;&gt;MongoDB&lt;/font&gt;" style="strokeWidth=2;html=1;shape=mxgraph.flowchart.database;whiteSpace=wrap;fontSize=18;fillColor=#CCFFCC;" parent="1" vertex="1">
          <mxGeometry x="619.88" y="409" width="61.25" height="55" as="geometry" />
        </mxCell>
        <mxCell id="qNZgiSOwxIsgd4O16-VR-76" value="ingest 1" style="rounded=0;whiteSpace=wrap;html=1;fontSize=12;fillColor=#99CCFF;" parent="1" vertex="1">
          <mxGeometry x="384" y="200" width="120" height="30" as="geometry" />
        </mxCell>
        <mxCell id="qNZgiSOwxIsgd4O16-VR-77" value="&lt;span style=&quot;&quot;&gt;ingest 3&lt;/span&gt;" style="rounded=0;whiteSpace=wrap;html=1;fontSize=12;fillColor=#99CCFF;" parent="1" vertex="1">
          <mxGeometry x="384" y="290" width="120" height="30" as="geometry" />
        </mxCell>
        <mxCell id="qNZgiSOwxIsgd4O16-VR-78" value="&lt;span style=&quot;&quot;&gt;ingest 2&lt;/span&gt;" style="rounded=0;whiteSpace=wrap;html=1;fontSize=12;fillColor=#99CCFF;" parent="1" vertex="1">
          <mxGeometry x="384" y="244" width="120" height="30" as="geometry" />
        </mxCell>
        <mxCell id="qNZgiSOwxIsgd4O16-VR-79" value="&lt;font style=&quot;font-size: 12px;&quot;&gt;API Service&lt;/font&gt;" style="rounded=0;whiteSpace=wrap;html=1;fontSize=18;fillColor=#FFE599;" parent="1" vertex="1">
          <mxGeometry x="672.5" y="147.63" width="85" height="46.25" as="geometry" />
        </mxCell>
        <mxCell id="qNZgiSOwxIsgd4O16-VR-80" value="&lt;font style=&quot;font-size: 14px;&quot;&gt;Degistion&lt;/font&gt;" style="text;html=1;resizable=0;autosize=1;align=center;verticalAlign=middle;points=[];fillColor=none;strokeColor=none;rounded=0;fontSize=18;" parent="1" vertex="1">
          <mxGeometry x="640" y="100" width="70" height="30" as="geometry" />
        </mxCell>
        <mxCell id="qNZgiSOwxIsgd4O16-VR-81" style="edgeStyle=orthogonalEdgeStyle;curved=1;rounded=0;orthogonalLoop=1;jettySize=auto;html=1;exitX=0.5;exitY=1;exitDx=0;exitDy=0;entryX=0.5;entryY=0;entryDx=0;entryDy=0;fontSize=10;elbow=vertical;" parent="1" source="qNZgiSOwxIsgd4O16-VR-82" target="qNZgiSOwxIsgd4O16-VR-74" edge="1">
          <mxGeometry relative="1" as="geometry" />
        </mxCell>
        <mxCell id="qNZgiSOwxIsgd4O16-VR-82" value="&lt;font style=&quot;font-size: 10px;&quot;&gt;Report task (CronJob)&lt;/font&gt;" style="rounded=0;whiteSpace=wrap;html=1;fontSize=18;fillColor=#FFE599;" parent="1" vertex="1">
          <mxGeometry x="675" y="280" width="85" height="50" as="geometry" />
        </mxCell>
        <mxCell id="qNZgiSOwxIsgd4O16-VR-83" value="&lt;font style=&quot;font-size: 10px;&quot;&gt;filebeat&lt;/font&gt;" style="text;html=1;resizable=0;autosize=1;align=center;verticalAlign=middle;points=[];fillColor=none;strokeColor=none;rounded=0;fontSize=18;" parent="1" vertex="1">
          <mxGeometry x="209" y="210" width="50" height="30" as="geometry" />
        </mxCell>
        <mxCell id="qNZgiSOwxIsgd4O16-VR-84" style="edgeStyle=orthogonalEdgeStyle;curved=1;rounded=0;orthogonalLoop=1;jettySize=auto;html=1;exitX=0.919;exitY=-0.062;exitDx=0;exitDy=0;fontSize=12;elbow=vertical;exitPerimeter=0;entryX=1;entryY=0.5;entryDx=0;entryDy=0;" parent="1" source="qNZgiSOwxIsgd4O16-VR-54" target="qNZgiSOwxIsgd4O16-VR-87" edge="1">
          <mxGeometry relative="1" as="geometry">
            <mxPoint x="920" y="340" as="targetPoint" />
            <Array as="points">
              <mxPoint x="794" y="378" />
              <mxPoint x="790" y="378" />
              <mxPoint x="790" y="238" />
            </Array>
          </mxGeometry>
        </mxCell>
        <mxCell id="qNZgiSOwxIsgd4O16-VR-85" value="grpc request" style="edgeLabel;html=1;align=center;verticalAlign=middle;resizable=0;points=[];fontSize=12;" parent="qNZgiSOwxIsgd4O16-VR-84" connectable="0" vertex="1">
          <mxGeometry x="0.0638" y="-1" relative="1" as="geometry">
            <mxPoint x="-1" y="42" as="offset" />
          </mxGeometry>
        </mxCell>
        <mxCell id="qNZgiSOwxIsgd4O16-VR-86" style="edgeStyle=orthogonalEdgeStyle;curved=1;rounded=0;orthogonalLoop=1;jettySize=auto;html=1;exitX=0;exitY=0.5;exitDx=0;exitDy=0;entryX=1;entryY=0.5;entryDx=0;entryDy=0;entryPerimeter=0;fontSize=10;elbow=vertical;" parent="1" source="qNZgiSOwxIsgd4O16-VR-87" target="qNZgiSOwxIsgd4O16-VR-103" edge="1">
          <mxGeometry relative="1" as="geometry" />
        </mxCell>
        <mxCell id="qNZgiSOwxIsgd4O16-VR-87" value="&lt;font style=&quot;font-size: 12px;&quot;&gt;GRPC Service&lt;/font&gt;" style="rounded=0;whiteSpace=wrap;html=1;fontSize=18;fillColor=#FFE599;" parent="1" vertex="1">
          <mxGeometry x="672.5" y="210" width="85" height="55" as="geometry" />
        </mxCell>
        <mxCell id="qNZgiSOwxIsgd4O16-VR-88" style="edgeStyle=orthogonalEdgeStyle;curved=1;rounded=0;orthogonalLoop=1;jettySize=auto;html=1;exitX=0.5;exitY=1;exitDx=0;exitDy=0;fontSize=10;elbow=vertical;" parent="1" source="qNZgiSOwxIsgd4O16-VR-105" target="qNZgiSOwxIsgd4O16-VR-70" edge="1">
          <mxGeometry relative="1" as="geometry">
            <mxPoint x="483.5" y="110" as="sourcePoint" />
          </mxGeometry>
        </mxCell>
        <mxCell id="qNZgiSOwxIsgd4O16-VR-89" style="edgeStyle=orthogonalEdgeStyle;curved=1;rounded=0;orthogonalLoop=1;jettySize=auto;html=1;exitX=0.5;exitY=1;exitDx=0;exitDy=0;fontSize=10;elbow=vertical;" parent="1" source="qNZgiSOwxIsgd4O16-VR-104" target="qNZgiSOwxIsgd4O16-VR-79" edge="1">
          <mxGeometry relative="1" as="geometry">
            <mxPoint x="720" y="90.00000000000011" as="sourcePoint" />
          </mxGeometry>
        </mxCell>
        <mxCell id="qNZgiSOwxIsgd4O16-VR-90" style="edgeStyle=orthogonalEdgeStyle;curved=1;rounded=0;orthogonalLoop=1;jettySize=auto;html=1;exitX=0.75;exitY=0;exitDx=0;exitDy=0;entryX=0;entryY=0.5;entryDx=0;entryDy=0;fontSize=10;elbow=vertical;" parent="1" source="qNZgiSOwxIsgd4O16-VR-55" target="qNZgiSOwxIsgd4O16-VR-82" edge="1">
          <mxGeometry relative="1" as="geometry" />
        </mxCell>
        <mxCell id="qNZgiSOwxIsgd4O16-VR-91" value="&lt;font style=&quot;font-size: 14px;&quot;&gt;operation server&lt;/font&gt;" style="rounded=0;whiteSpace=wrap;html=1;fontSize=18;fillColor=#FFE599;" parent="1" vertex="1">
          <mxGeometry x="209" y="505" width="80" height="50" as="geometry" />
        </mxCell>
        <mxCell id="qNZgiSOwxIsgd4O16-VR-92" value="&lt;font style=&quot;font-size: 14px;&quot;&gt;agent&amp;nbsp; server&lt;/font&gt;" style="rounded=0;whiteSpace=wrap;html=1;fontSize=18;fillColor=#FFE599;" parent="1" vertex="1">
          <mxGeometry x="322" y="505" width="80" height="50" as="geometry" />
        </mxCell>
        <mxCell id="qNZgiSOwxIsgd4O16-VR-93" value="&lt;font style=&quot;font-size: 14px;&quot;&gt;friday&lt;br&gt;&amp;nbsp;server&lt;/font&gt;" style="rounded=0;whiteSpace=wrap;html=1;fontSize=18;fillColor=#FFE599;" parent="1" vertex="1">
          <mxGeometry x="453.25" y="505" width="76.75" height="50" as="geometry" />
        </mxCell>
        <mxCell id="qNZgiSOwxIsgd4O16-VR-94" value="&lt;font style=&quot;font-size: 14px;&quot;&gt;recall&amp;nbsp; server&lt;/font&gt;" style="rounded=0;whiteSpace=wrap;html=1;fontSize=18;fillColor=#FFE599;" parent="1" vertex="1">
          <mxGeometry x="580" y="505" width="80" height="50" as="geometry" />
        </mxCell>
        <mxCell id="qNZgiSOwxIsgd4O16-VR-95" value="&lt;font style=&quot;font-size: 14px;&quot;&gt;...&lt;/font&gt;" style="rounded=0;whiteSpace=wrap;html=1;fontSize=18;fillColor=#FFE599;" parent="1" vertex="1">
          <mxGeometry x="710" y="505" width="80" height="50" as="geometry" />
        </mxCell>
        <mxCell id="qNZgiSOwxIsgd4O16-VR-96" value="" style="rounded=0;whiteSpace=wrap;html=1;fontSize=18;fillColor=#FFFFFF;" parent="1" vertex="1">
          <mxGeometry x="30" y="130" width="80" height="220" as="geometry" />
        </mxCell>
        <mxCell id="qNZgiSOwxIsgd4O16-VR-97" value="&lt;font style=&quot;font-size: 10px;&quot;&gt;config server&lt;/font&gt;" style="rounded=0;whiteSpace=wrap;html=1;fontSize=18;fillColor=#FFE599;" parent="1" vertex="1">
          <mxGeometry x="40" y="141.5" width="60" height="48.5" as="geometry" />
        </mxCell>
        <mxCell id="qNZgiSOwxIsgd4O16-VR-98" value="&lt;span style=&quot;font-size: 10px;&quot;&gt;report dog&lt;/span&gt;" style="rounded=0;whiteSpace=wrap;html=1;fontSize=18;fillColor=#FFE599;" parent="1" vertex="1">
          <mxGeometry x="40" y="200.75" width="60" height="48.5" as="geometry" />
        </mxCell>
        <mxCell id="qNZgiSOwxIsgd4O16-VR-99" value="&lt;span style=&quot;font-size: 10px;&quot;&gt;safe dog&lt;/span&gt;" style="rounded=0;whiteSpace=wrap;html=1;fontSize=18;fillColor=#FFE599;" parent="1" vertex="1">
          <mxGeometry x="40" y="265" width="60" height="48.5" as="geometry" />
        </mxCell>
        <mxCell id="qNZgiSOwxIsgd4O16-VR-100" value="&lt;span style=&quot;font-size: 12px;&quot;&gt;monitor&lt;/span&gt;" style="rounded=0;whiteSpace=wrap;html=1;fontSize=18;fillColor=#CCFFCC;" parent="1" vertex="1">
          <mxGeometry x="765" y="147.63" width="55" height="46.25" as="geometry" />
        </mxCell>
        <mxCell id="qNZgiSOwxIsgd4O16-VR-101" style="edgeStyle=orthogonalEdgeStyle;curved=1;rounded=0;orthogonalLoop=1;jettySize=auto;html=1;exitX=0.25;exitY=1;exitDx=0;exitDy=0;exitPerimeter=0;entryX=1;entryY=0.5;entryDx=0;entryDy=0;fontSize=10;elbow=vertical;" parent="1" source="qNZgiSOwxIsgd4O16-VR-103" target="qNZgiSOwxIsgd4O16-VR-63" edge="1">
          <mxGeometry relative="1" as="geometry" />
        </mxCell>
        <mxCell id="qNZgiSOwxIsgd4O16-VR-102" value="redis sub" style="edgeLabel;html=1;align=center;verticalAlign=middle;resizable=0;points=[];fontSize=10;" parent="qNZgiSOwxIsgd4O16-VR-101" connectable="0" vertex="1">
          <mxGeometry x="-0.3352" y="-12" relative="1" as="geometry">
            <mxPoint as="offset" />
          </mxGeometry>
        </mxCell>
        <mxCell id="qNZgiSOwxIsgd4O16-VR-103" value="redis broker" style="shape=tape;whiteSpace=wrap;html=1;fontSize=10;fillColor=#FFE599;" parent="1" vertex="1">
          <mxGeometry x="560" y="141.5" width="75" height="58.5" as="geometry" />
        </mxCell>
        <mxCell id="qNZgiSOwxIsgd4O16-VR-104" value="&lt;font style=&quot;font-size: 12px;&quot;&gt;nginx&lt;/font&gt;" style="rounded=0;whiteSpace=wrap;html=1;fontSize=18;fillColor=#CCFFCC;" parent="1" vertex="1">
          <mxGeometry x="690" y="75" width="55" height="30" as="geometry" />
        </mxCell>
        <mxCell id="qNZgiSOwxIsgd4O16-VR-105" value="&lt;font style=&quot;font-size: 12px;&quot;&gt;nginx&lt;/font&gt;" style="rounded=0;whiteSpace=wrap;html=1;fontSize=18;fillColor=#CCFFCC;" parent="1" vertex="1">
          <mxGeometry x="456.51" y="75" width="55" height="30" as="geometry" />
        </mxCell>
        <mxCell id="qNZgiSOwxIsgd4O16-VR-106" value="&lt;font style=&quot;font-size: 12px;&quot;&gt;celery task&lt;/font&gt;" style="rounded=0;whiteSpace=wrap;html=1;fontSize=18;fillColor=#CCFFCC;" parent="1" vertex="1">
          <mxGeometry x="370" y="138" width="71" height="42" as="geometry" />
        </mxCell>
      </root>
    </mxGraphModel>
  </diagram>
  <diagram id="LMA_mDfqslGqczOGPY1M" name="jp h5收銀台">
    <mxGraphModel dx="1426" dy="697" grid="1" gridSize="10" guides="1" tooltips="1" connect="1" arrows="1" fold="1" page="1" pageScale="1" pageWidth="827" pageHeight="1169" math="0" shadow="0">
      <root>
        <mxCell id="0" />
        <mxCell id="1" parent="0" />
        <mxCell id="uc-wD-CSq0h6vg46AXDH-6" value="" style="endArrow=none;html=1;rounded=0;entryX=0.5;entryY=1;entryDx=0;entryDy=0;startArrow=none;" parent="1" source="uc-wD-CSq0h6vg46AXDH-15" target="uc-wD-CSq0h6vg46AXDH-2" edge="1">
          <mxGeometry width="50" height="50" relative="1" as="geometry">
            <mxPoint x="414" y="940" as="sourcePoint" />
            <mxPoint x="440" y="190" as="targetPoint" />
          </mxGeometry>
        </mxCell>
        <mxCell id="uc-wD-CSq0h6vg46AXDH-9" value="" style="endArrow=none;html=1;rounded=0;entryX=0.5;entryY=1;entryDx=0;entryDy=0;" parent="1" edge="1">
          <mxGeometry width="50" height="50" relative="1" as="geometry">
            <mxPoint x="259.5" y="940" as="sourcePoint" />
            <mxPoint x="259.5" y="140" as="targetPoint" />
          </mxGeometry>
        </mxCell>
        <mxCell id="uc-wD-CSq0h6vg46AXDH-10" value="" style="endArrow=none;html=1;rounded=0;entryX=0.5;entryY=1;entryDx=0;entryDy=0;startArrow=none;" parent="1" source="uc-wD-CSq0h6vg46AXDH-11" edge="1">
          <mxGeometry width="50" height="50" relative="1" as="geometry">
            <mxPoint x="114.5" y="940" as="sourcePoint" />
            <mxPoint x="114.5" y="140" as="targetPoint" />
          </mxGeometry>
        </mxCell>
        <mxCell id="uc-wD-CSq0h6vg46AXDH-1" value="" style="shape=umlActor;verticalLabelPosition=bottom;verticalAlign=top;html=1;outlineConnect=0;" parent="1" vertex="1">
          <mxGeometry x="80" y="60" width="70" height="80" as="geometry" />
        </mxCell>
        <mxCell id="uc-wD-CSq0h6vg46AXDH-2" value="&lt;font style=&quot;font-size: 10px;&quot;&gt;cash register (h5)&lt;/font&gt;" style="whiteSpace=wrap;html=1;aspect=fixed;" parent="1" vertex="1">
          <mxGeometry x="374" y="60" width="80" height="80" as="geometry" />
        </mxCell>
        <mxCell id="uc-wD-CSq0h6vg46AXDH-3" value="db" style="whiteSpace=wrap;html=1;aspect=fixed;" parent="1" vertex="1">
          <mxGeometry x="680" y="60" width="80" height="80" as="geometry" />
        </mxCell>
        <mxCell id="uc-wD-CSq0h6vg46AXDH-4" value="jp" style="whiteSpace=wrap;html=1;aspect=fixed;" parent="1" vertex="1">
          <mxGeometry x="530" y="60" width="80" height="80" as="geometry" />
        </mxCell>
        <mxCell id="uc-wD-CSq0h6vg46AXDH-5" value="Mch&lt;br&gt;(Game)" style="whiteSpace=wrap;html=1;aspect=fixed;" parent="1" vertex="1">
          <mxGeometry x="220" y="60" width="80" height="80" as="geometry" />
        </mxCell>
        <mxCell id="uc-wD-CSq0h6vg46AXDH-14" style="edgeStyle=none;rounded=0;orthogonalLoop=1;jettySize=auto;html=1;exitX=1;exitY=0.25;exitDx=0;exitDy=0;" parent="1" source="uc-wD-CSq0h6vg46AXDH-11" edge="1">
          <mxGeometry relative="1" as="geometry">
            <mxPoint x="131" y="180" as="sourcePoint" />
            <mxPoint x="240" y="185" as="targetPoint" />
          </mxGeometry>
        </mxCell>
        <mxCell id="uc-wD-CSq0h6vg46AXDH-11" value="" style="rounded=0;whiteSpace=wrap;html=1;" parent="1" vertex="1">
          <mxGeometry x="100" y="160" width="30" height="100" as="geometry" />
        </mxCell>
        <mxCell id="uc-wD-CSq0h6vg46AXDH-12" value="" style="endArrow=none;html=1;rounded=0;entryX=0.5;entryY=1;entryDx=0;entryDy=0;startArrow=none;" parent="1" source="L5u0SmcFUmbHyVaPkKzl-14" target="uc-wD-CSq0h6vg46AXDH-11" edge="1">
          <mxGeometry width="50" height="50" relative="1" as="geometry">
            <mxPoint x="114.5" y="940" as="sourcePoint" />
            <mxPoint x="114.5" y="140" as="targetPoint" />
          </mxGeometry>
        </mxCell>
        <mxCell id="uc-wD-CSq0h6vg46AXDH-13" value="" style="rounded=0;whiteSpace=wrap;html=1;" parent="1" vertex="1">
          <mxGeometry x="245" y="160" width="30" height="250" as="geometry" />
        </mxCell>
        <mxCell id="L5u0SmcFUmbHyVaPkKzl-1" value="&lt;font style=&quot;font-size: 14px;&quot;&gt;select amount &amp;amp;&lt;br&gt;click online&lt;br&gt;recharge&lt;br&gt;&lt;/font&gt;" style="text;html=1;resizable=0;autosize=1;align=center;verticalAlign=middle;points=[];fillColor=none;strokeColor=none;rounded=0;fontSize=18;" parent="1" vertex="1">
          <mxGeometry x="125" y="180" width="120" height="80" as="geometry" />
        </mxCell>
        <mxCell id="L5u0SmcFUmbHyVaPkKzl-2" style="edgeStyle=none;rounded=0;orthogonalLoop=1;jettySize=auto;html=1;exitX=1;exitY=0.25;exitDx=0;exitDy=0;" parent="1" edge="1">
          <mxGeometry relative="1" as="geometry">
            <mxPoint x="280" y="250" as="sourcePoint" />
            <mxPoint x="550" y="250" as="targetPoint" />
          </mxGeometry>
        </mxCell>
        <mxCell id="L5u0SmcFUmbHyVaPkKzl-3" value="payment gateway" style="whiteSpace=wrap;html=1;aspect=fixed;" parent="1" vertex="1">
          <mxGeometry x="827" y="60" width="80" height="80" as="geometry" />
        </mxCell>
        <mxCell id="L5u0SmcFUmbHyVaPkKzl-4" value="" style="endArrow=none;html=1;rounded=0;entryX=0.5;entryY=1;entryDx=0;entryDy=0;startArrow=none;" parent="1" source="AqbjYp1SlVZOWLmPyZvC-3" edge="1">
          <mxGeometry width="50" height="50" relative="1" as="geometry">
            <mxPoint x="867" y="940" as="sourcePoint" />
            <mxPoint x="866.5" y="140" as="targetPoint" />
          </mxGeometry>
        </mxCell>
        <mxCell id="L5u0SmcFUmbHyVaPkKzl-6" value="&lt;font style=&quot;font-size: 14px;&quot;&gt;request h5 page&lt;br&gt;(params: amount,&amp;nbsp;&lt;br&gt;mch_id,user_id...)&lt;br&gt;&lt;/font&gt;" style="text;html=1;resizable=0;autosize=1;align=center;verticalAlign=middle;points=[];fillColor=none;strokeColor=none;rounded=0;fontSize=18;" parent="1" vertex="1">
          <mxGeometry x="279" y="240" width="140" height="80" as="geometry" />
        </mxCell>
        <mxCell id="L5u0SmcFUmbHyVaPkKzl-7" value="" style="endArrow=none;html=1;rounded=0;entryX=0.5;entryY=1;entryDx=0;entryDy=0;startArrow=none;" parent="1" source="L5u0SmcFUmbHyVaPkKzl-9" edge="1">
          <mxGeometry width="50" height="50" relative="1" as="geometry">
            <mxPoint x="569.5" y="940" as="sourcePoint" />
            <mxPoint x="569.5" y="140" as="targetPoint" />
          </mxGeometry>
        </mxCell>
        <mxCell id="L5u0SmcFUmbHyVaPkKzl-8" value="" style="endArrow=none;html=1;rounded=0;entryX=0.5;entryY=1;entryDx=0;entryDy=0;" parent="1" edge="1">
          <mxGeometry width="50" height="50" relative="1" as="geometry">
            <mxPoint x="719.5" y="940" as="sourcePoint" />
            <mxPoint x="719.5" y="140" as="targetPoint" />
          </mxGeometry>
        </mxCell>
        <mxCell id="L5u0SmcFUmbHyVaPkKzl-9" value="" style="rounded=0;whiteSpace=wrap;html=1;" parent="1" vertex="1">
          <mxGeometry x="555" y="230" width="30" height="200" as="geometry" />
        </mxCell>
        <mxCell id="L5u0SmcFUmbHyVaPkKzl-10" value="" style="endArrow=none;html=1;rounded=0;entryX=0.5;entryY=1;entryDx=0;entryDy=0;startArrow=none;" parent="1" source="KySWmPU1nAiWtckXAB0r-6" target="L5u0SmcFUmbHyVaPkKzl-9" edge="1">
          <mxGeometry width="50" height="50" relative="1" as="geometry">
            <mxPoint x="569.5" y="940" as="sourcePoint" />
            <mxPoint x="569.5" y="140" as="targetPoint" />
          </mxGeometry>
        </mxCell>
        <mxCell id="L5u0SmcFUmbHyVaPkKzl-14" value="" style="rounded=0;whiteSpace=wrap;html=1;" parent="1" vertex="1">
          <mxGeometry x="100" y="345" width="30" height="175" as="geometry" />
        </mxCell>
        <mxCell id="L5u0SmcFUmbHyVaPkKzl-15" value="" style="endArrow=none;html=1;rounded=0;entryX=0.5;entryY=1;entryDx=0;entryDy=0;startArrow=none;" parent="1" source="AqbjYp1SlVZOWLmPyZvC-7" target="L5u0SmcFUmbHyVaPkKzl-14" edge="1">
          <mxGeometry width="50" height="50" relative="1" as="geometry">
            <mxPoint x="114.5" y="940" as="sourcePoint" />
            <mxPoint x="115" y="260" as="targetPoint" />
          </mxGeometry>
        </mxCell>
        <mxCell id="uc-wD-CSq0h6vg46AXDH-15" value="" style="rounded=0;whiteSpace=wrap;html=1;" parent="1" vertex="1">
          <mxGeometry x="399" y="460" width="30" height="90" as="geometry" />
        </mxCell>
        <mxCell id="KySWmPU1nAiWtckXAB0r-1" value="" style="endArrow=none;html=1;rounded=0;entryX=0.5;entryY=1;entryDx=0;entryDy=0;" parent="1" target="uc-wD-CSq0h6vg46AXDH-15" edge="1">
          <mxGeometry width="50" height="50" relative="1" as="geometry">
            <mxPoint x="414" y="940" as="sourcePoint" />
            <mxPoint x="414" y="140" as="targetPoint" />
          </mxGeometry>
        </mxCell>
        <mxCell id="KySWmPU1nAiWtckXAB0r-2" style="edgeStyle=none;rounded=0;orthogonalLoop=1;jettySize=auto;html=1;exitX=1;exitY=0.25;exitDx=0;exitDy=0;" parent="1" edge="1">
          <mxGeometry relative="1" as="geometry">
            <mxPoint x="544" y="360" as="sourcePoint" />
            <mxPoint x="140" y="360" as="targetPoint" />
            <Array as="points">
              <mxPoint x="370" y="360" />
            </Array>
          </mxGeometry>
        </mxCell>
        <mxCell id="KySWmPU1nAiWtckXAB0r-3" value="&lt;font style=&quot;font-size: 14px;&quot;&gt;response h5&amp;nbsp;page&lt;br&gt;(payment_url,jwt)&lt;br&gt;&lt;/font&gt;" style="text;html=1;resizable=0;autosize=1;align=center;verticalAlign=middle;points=[];fillColor=none;strokeColor=none;rounded=0;fontSize=18;" parent="1" vertex="1">
          <mxGeometry x="410" y="350" width="140" height="60" as="geometry" />
        </mxCell>
        <mxCell id="KySWmPU1nAiWtckXAB0r-4" style="edgeStyle=none;rounded=0;orthogonalLoop=1;jettySize=auto;html=1;exitX=1;exitY=0.25;exitDx=0;exitDy=0;" parent="1" edge="1">
          <mxGeometry relative="1" as="geometry">
            <mxPoint x="139" y="480" as="sourcePoint" />
            <mxPoint x="399" y="480" as="targetPoint" />
          </mxGeometry>
        </mxCell>
        <mxCell id="KySWmPU1nAiWtckXAB0r-5" value="&lt;font style=&quot;font-size: 14px;&quot;&gt;select pay_type&lt;br&gt;&lt;/font&gt;" style="text;html=1;resizable=0;autosize=1;align=center;verticalAlign=middle;points=[];fillColor=none;strokeColor=none;rounded=0;fontSize=18;" parent="1" vertex="1">
          <mxGeometry x="125" y="470" width="120" height="40" as="geometry" />
        </mxCell>
        <mxCell id="KySWmPU1nAiWtckXAB0r-8" style="edgeStyle=none;rounded=0;orthogonalLoop=1;jettySize=auto;html=1;" parent="1" edge="1">
          <mxGeometry relative="1" as="geometry">
            <mxPoint x="430" y="536" as="sourcePoint" />
            <mxPoint x="550" y="536" as="targetPoint" />
          </mxGeometry>
        </mxCell>
        <mxCell id="KySWmPU1nAiWtckXAB0r-9" value="" style="rounded=0;whiteSpace=wrap;html=1;" parent="1" vertex="1">
          <mxGeometry x="705" y="577" width="30" height="80" as="geometry" />
        </mxCell>
        <mxCell id="AqbjYp1SlVZOWLmPyZvC-1" style="edgeStyle=none;rounded=0;orthogonalLoop=1;jettySize=auto;html=1;exitX=1;exitY=0.25;exitDx=0;exitDy=0;" parent="1" edge="1">
          <mxGeometry relative="1" as="geometry">
            <mxPoint x="590" y="590" as="sourcePoint" />
            <mxPoint x="700" y="590" as="targetPoint" />
          </mxGeometry>
        </mxCell>
        <mxCell id="AqbjYp1SlVZOWLmPyZvC-2" value="&lt;span style=&quot;color: rgb(0, 0, 0); font-family: Helvetica; font-size: 14px; font-style: normal; font-variant-ligatures: normal; font-variant-caps: normal; font-weight: 400; letter-spacing: normal; orphans: 2; text-align: center; text-indent: 0px; text-transform: none; widows: 2; word-spacing: 0px; -webkit-text-stroke-width: 0px; background-color: rgb(248, 249, 250); text-decoration-thickness: initial; text-decoration-style: initial; text-decoration-color: initial; float: none; display: inline !important;&quot;&gt;record order&lt;/span&gt;" style="text;whiteSpace=wrap;html=1;fontSize=10;" parent="1" vertex="1">
          <mxGeometry x="600" y="590" width="90" height="40" as="geometry" />
        </mxCell>
        <mxCell id="AqbjYp1SlVZOWLmPyZvC-3" value="" style="rounded=0;whiteSpace=wrap;html=1;" parent="1" vertex="1">
          <mxGeometry x="852" y="680" width="30" height="140" as="geometry" />
        </mxCell>
        <mxCell id="AqbjYp1SlVZOWLmPyZvC-4" value="" style="endArrow=none;html=1;rounded=0;entryX=0.5;entryY=1;entryDx=0;entryDy=0;startArrow=none;" parent="1" target="AqbjYp1SlVZOWLmPyZvC-3" edge="1">
          <mxGeometry width="50" height="50" relative="1" as="geometry">
            <mxPoint x="867" y="940" as="sourcePoint" />
            <mxPoint x="866.5" y="140" as="targetPoint" />
          </mxGeometry>
        </mxCell>
        <mxCell id="KySWmPU1nAiWtckXAB0r-6" value="" style="rounded=0;whiteSpace=wrap;html=1;" parent="1" vertex="1">
          <mxGeometry x="555" y="520" width="30" height="210" as="geometry" />
        </mxCell>
        <mxCell id="AqbjYp1SlVZOWLmPyZvC-5" value="" style="endArrow=none;html=1;rounded=0;entryX=0.5;entryY=1;entryDx=0;entryDy=0;" parent="1" target="KySWmPU1nAiWtckXAB0r-6" edge="1">
          <mxGeometry width="50" height="50" relative="1" as="geometry">
            <mxPoint x="569.5" y="940" as="sourcePoint" />
            <mxPoint x="570" y="430" as="targetPoint" />
          </mxGeometry>
        </mxCell>
        <mxCell id="AqbjYp1SlVZOWLmPyZvC-6" style="edgeStyle=none;rounded=0;orthogonalLoop=1;jettySize=auto;html=1;" parent="1" edge="1">
          <mxGeometry relative="1" as="geometry">
            <mxPoint x="590" y="700" as="sourcePoint" />
            <mxPoint x="852" y="700" as="targetPoint" />
          </mxGeometry>
        </mxCell>
        <mxCell id="AqbjYp1SlVZOWLmPyZvC-7" value="" style="rounded=0;whiteSpace=wrap;html=1;" parent="1" vertex="1">
          <mxGeometry x="100" y="760" width="30" height="130" as="geometry" />
        </mxCell>
        <mxCell id="AqbjYp1SlVZOWLmPyZvC-8" value="" style="endArrow=none;html=1;rounded=0;entryX=0.5;entryY=1;entryDx=0;entryDy=0;" parent="1" target="AqbjYp1SlVZOWLmPyZvC-7" edge="1">
          <mxGeometry width="50" height="50" relative="1" as="geometry">
            <mxPoint x="114.5" y="940" as="sourcePoint" />
            <mxPoint x="115" y="520" as="targetPoint" />
          </mxGeometry>
        </mxCell>
        <mxCell id="AqbjYp1SlVZOWLmPyZvC-9" style="edgeStyle=none;rounded=0;orthogonalLoop=1;jettySize=auto;html=1;exitX=1;exitY=0.25;exitDx=0;exitDy=0;" parent="1" edge="1">
          <mxGeometry relative="1" as="geometry">
            <mxPoint x="847" y="800" as="sourcePoint" />
            <mxPoint x="140" y="800" as="targetPoint" />
          </mxGeometry>
        </mxCell>
        <mxCell id="AqbjYp1SlVZOWLmPyZvC-10" value="&lt;font style=&quot;font-size: 14px;&quot;&gt;place order&lt;br&gt;,request payment page&lt;br&gt;&lt;br&gt;&lt;/font&gt;" style="text;html=1;resizable=0;autosize=1;align=center;verticalAlign=middle;points=[];fillColor=none;strokeColor=none;rounded=0;fontSize=18;" parent="1" vertex="1">
          <mxGeometry x="580" y="690" width="170" height="80" as="geometry" />
        </mxCell>
        <mxCell id="AqbjYp1SlVZOWLmPyZvC-11" value="&lt;font style=&quot;font-size: 14px;&quot;&gt;response payment page&lt;br&gt;&lt;br&gt;&lt;/font&gt;" style="text;html=1;resizable=0;autosize=1;align=center;verticalAlign=middle;points=[];fillColor=none;strokeColor=none;rounded=0;fontSize=18;" parent="1" vertex="1">
          <mxGeometry x="705" y="790" width="170" height="60" as="geometry" />
        </mxCell>
        <mxCell id="KySWmPU1nAiWtckXAB0r-7" value="&lt;span style=&quot;color: rgb(0, 0, 0); font-family: Helvetica; font-size: 14px; font-style: normal; font-variant-ligatures: normal; font-variant-caps: normal; font-weight: 400; letter-spacing: normal; orphans: 2; text-align: center; text-indent: 0px; text-transform: none; widows: 2; word-spacing: 0px; -webkit-text-stroke-width: 0px; background-color: rgb(248, 249, 250); text-decoration-thickness: initial; text-decoration-style: initial; text-decoration-color: initial; float: none; display: inline !important;&quot;&gt;place order&lt;br&gt;(params: jwt, pay_type)&lt;br&gt;&lt;/span&gt;" style="text;whiteSpace=wrap;html=1;fontSize=10;" parent="1" vertex="1">
          <mxGeometry x="420" y="537" width="150" height="40" as="geometry" />
        </mxCell>
      </root>
    </mxGraphModel>
  </diagram>
  <diagram id="InBnicRrhIuGmYRyvyZf" name="jp全球化架構圖">
    <mxGraphModel dx="1426" dy="697" grid="1" gridSize="10" guides="1" tooltips="1" connect="1" arrows="1" fold="1" page="1" pageScale="1" pageWidth="827" pageHeight="1169" math="0" shadow="0">
      <root>
        <mxCell id="0" />
        <mxCell id="1" parent="0" />
        <mxCell id="mwynB1rOgoHQFpIlx6MR-1" value="" style="rounded=0;whiteSpace=wrap;html=1;fontSize=18;fillColor=#FFFFFF;" parent="1" vertex="1">
          <mxGeometry x="100" y="330" width="200" height="640" as="geometry" />
        </mxCell>
        <mxCell id="mwynB1rOgoHQFpIlx6MR-2" value="" style="rounded=0;whiteSpace=wrap;html=1;fontSize=18;fillColor=#FFFFFF;" parent="1" vertex="1">
          <mxGeometry x="320" y="330" width="180" height="640" as="geometry" />
        </mxCell>
        <mxCell id="mwynB1rOgoHQFpIlx6MR-3" value="&lt;font style=&quot;font-size: 12px;&quot;&gt;nginx&lt;/font&gt;" style="rounded=0;whiteSpace=wrap;html=1;fontSize=18;fillColor=#CCFFCC;" parent="1" vertex="1">
          <mxGeometry x="100" y="280" width="200" height="30" as="geometry" />
        </mxCell>
        <mxCell id="mwynB1rOgoHQFpIlx6MR-4" value="&lt;font style=&quot;font-size: 12px;&quot;&gt;nginx&lt;/font&gt;" style="rounded=0;whiteSpace=wrap;html=1;fontSize=18;fillColor=#CCFFCC;" parent="1" vertex="1">
          <mxGeometry x="320" y="280" width="180" height="30" as="geometry" />
        </mxCell>
        <mxCell id="mwynB1rOgoHQFpIlx6MR-5" value="&lt;font style=&quot;font-size: 12px;&quot;&gt;nginx&lt;/font&gt;" style="rounded=0;whiteSpace=wrap;html=1;fontSize=18;fillColor=#CCFFCC;" parent="1" vertex="1">
          <mxGeometry x="520" y="280" width="175" height="30" as="geometry" />
        </mxCell>
        <mxCell id="mwynB1rOgoHQFpIlx6MR-6" value="&lt;font style=&quot;font-size: 12px;&quot;&gt;nginx&lt;/font&gt;" style="rounded=0;whiteSpace=wrap;html=1;fontSize=18;fillColor=#CCFFCC;" parent="1" vertex="1">
          <mxGeometry x="714.5" y="280" width="185.5" height="30" as="geometry" />
        </mxCell>
        <mxCell id="mwynB1rOgoHQFpIlx6MR-7" style="edgeStyle=none;shape=link;rounded=0;orthogonalLoop=1;jettySize=auto;html=1;exitX=1;exitY=0.5;exitDx=0;exitDy=0;exitPerimeter=0;entryX=0;entryY=0.5;entryDx=0;entryDy=0;entryPerimeter=0;fillColor=#D4FCFF;" parent="1" source="mwynB1rOgoHQFpIlx6MR-8" target="mwynB1rOgoHQFpIlx6MR-9" edge="1">
          <mxGeometry relative="1" as="geometry" />
        </mxCell>
        <mxCell id="mwynB1rOgoHQFpIlx6MR-8" value="&lt;font style=&quot;font-size: 12px;&quot;&gt;Admin master&lt;br&gt;&lt;/font&gt;" style="strokeWidth=2;html=1;shape=mxgraph.flowchart.database;whiteSpace=wrap;fontSize=18;fillColor=#F8CECC;" parent="1" vertex="1">
          <mxGeometry x="140" y="626" width="120" height="70" as="geometry" />
        </mxCell>
        <mxCell id="mwynB1rOgoHQFpIlx6MR-9" value="&lt;font style=&quot;font-size: 12px;&quot;&gt;Admin&amp;nbsp;slave&lt;br&gt;&lt;/font&gt;" style="strokeWidth=2;html=1;shape=mxgraph.flowchart.database;whiteSpace=wrap;fontSize=18;fillColor=#F8CECC;" parent="1" vertex="1">
          <mxGeometry x="340" y="626" width="120" height="70" as="geometry" />
        </mxCell>
        <mxCell id="mwynB1rOgoHQFpIlx6MR-10" style="edgeStyle=none;shape=link;rounded=0;orthogonalLoop=1;jettySize=auto;html=1;exitX=0;exitY=0.5;exitDx=0;exitDy=0;exitPerimeter=0;fillColor=#D4FCFF;" parent="1" source="mwynB1rOgoHQFpIlx6MR-11" target="mwynB1rOgoHQFpIlx6MR-31" edge="1">
          <mxGeometry relative="1" as="geometry" />
        </mxCell>
        <mxCell id="mwynB1rOgoHQFpIlx6MR-11" value="&lt;font style=&quot;font-size: 12px;&quot;&gt;VN master&lt;br&gt;&lt;/font&gt;" style="strokeWidth=2;html=1;shape=mxgraph.flowchart.database;whiteSpace=wrap;fontSize=18;fillColor=#CCFFCC;" parent="1" vertex="1">
          <mxGeometry x="340" y="716" width="120" height="70" as="geometry" />
        </mxCell>
        <mxCell id="mwynB1rOgoHQFpIlx6MR-12" value="&lt;font style=&quot;font-size: 10px;&quot;&gt;config server&lt;/font&gt;" style="rounded=0;whiteSpace=wrap;html=1;fontSize=18;fillColor=#99FFFF;" parent="1" vertex="1">
          <mxGeometry x="430" y="415.75" width="60" height="48.5" as="geometry" />
        </mxCell>
        <mxCell id="mwynB1rOgoHQFpIlx6MR-13" value="&lt;font style=&quot;font-size: 10px;&quot;&gt;redis&lt;/font&gt;" style="rounded=0;whiteSpace=wrap;html=1;fontSize=18;fillColor=#99FFFF;" parent="1" vertex="1">
          <mxGeometry x="430" y="480" width="60" height="48.5" as="geometry" />
        </mxCell>
        <mxCell id="mwynB1rOgoHQFpIlx6MR-14" value="&lt;span style=&quot;font-size: 14px;&quot;&gt;亞太&lt;/span&gt;" style="text;html=1;resizable=0;autosize=1;align=center;verticalAlign=middle;points=[];fillColor=none;strokeColor=none;rounded=0;fontSize=18;" parent="1" vertex="1">
          <mxGeometry x="180" y="250" width="40" height="30" as="geometry" />
        </mxCell>
        <mxCell id="mwynB1rOgoHQFpIlx6MR-15" value="&lt;span style=&quot;font-size: 14px;&quot;&gt;VN&lt;br&gt;&lt;/span&gt;" style="text;html=1;resizable=0;autosize=1;align=center;verticalAlign=middle;points=[];fillColor=none;strokeColor=none;rounded=0;fontSize=18;" parent="1" vertex="1">
          <mxGeometry x="399" y="250" width="30" height="30" as="geometry" />
        </mxCell>
        <mxCell id="mwynB1rOgoHQFpIlx6MR-16" value="" style="edgeStyle=orthogonalEdgeStyle;rounded=0;orthogonalLoop=1;jettySize=auto;html=1;" parent="1" source="mwynB1rOgoHQFpIlx6MR-17" target="mwynB1rOgoHQFpIlx6MR-14" edge="1">
          <mxGeometry relative="1" as="geometry" />
        </mxCell>
        <mxCell id="mwynB1rOgoHQFpIlx6MR-17" value="" style="shape=umlActor;verticalLabelPosition=bottom;verticalAlign=top;html=1;outlineConnect=0;" parent="1" vertex="1">
          <mxGeometry x="165" y="110" width="70" height="80" as="geometry" />
        </mxCell>
        <mxCell id="mwynB1rOgoHQFpIlx6MR-18" value="" style="edgeStyle=orthogonalEdgeStyle;rounded=0;orthogonalLoop=1;jettySize=auto;html=1;" parent="1" source="mwynB1rOgoHQFpIlx6MR-20" target="mwynB1rOgoHQFpIlx6MR-15" edge="1">
          <mxGeometry relative="1" as="geometry" />
        </mxCell>
        <mxCell id="mwynB1rOgoHQFpIlx6MR-19" value="設定通道..." style="edgeLabel;html=1;align=center;verticalAlign=middle;resizable=0;points=[];" parent="mwynB1rOgoHQFpIlx6MR-18" vertex="1" connectable="0">
          <mxGeometry x="-0.2" relative="1" as="geometry">
            <mxPoint as="offset" />
          </mxGeometry>
        </mxCell>
        <mxCell id="mwynB1rOgoHQFpIlx6MR-20" value="" style="shape=umlActor;verticalLabelPosition=bottom;verticalAlign=top;html=1;outlineConnect=0;" parent="1" vertex="1">
          <mxGeometry x="379" y="110" width="70" height="80" as="geometry" />
        </mxCell>
        <mxCell id="mwynB1rOgoHQFpIlx6MR-21" value="&lt;font style=&quot;font-size: 14px;&quot;&gt;管理後台&lt;/font&gt;" style="text;html=1;resizable=0;autosize=1;align=center;verticalAlign=middle;points=[];fillColor=none;strokeColor=none;rounded=0;fontSize=18;" parent="1" vertex="1">
          <mxGeometry x="165" y="70" width="70" height="30" as="geometry" />
        </mxCell>
        <mxCell id="mwynB1rOgoHQFpIlx6MR-22" value="&lt;font style=&quot;font-size: 14px;&quot;&gt;收付子平台(VN)&lt;/font&gt;" style="text;html=1;resizable=0;autosize=1;align=center;verticalAlign=middle;points=[];fillColor=none;strokeColor=none;rounded=0;fontSize=18;" parent="1" vertex="1">
          <mxGeometry x="354" y="65" width="120" height="40" as="geometry" />
        </mxCell>
        <mxCell id="mwynB1rOgoHQFpIlx6MR-23" value="" style="edgeStyle=orthogonalEdgeStyle;rounded=0;orthogonalLoop=1;jettySize=auto;html=1;" parent="1" edge="1">
          <mxGeometry relative="1" as="geometry">
            <mxPoint x="379" y="190" as="sourcePoint" />
            <mxPoint x="280" y="270" as="targetPoint" />
            <Array as="points">
              <mxPoint x="280" y="190" />
            </Array>
          </mxGeometry>
        </mxCell>
        <mxCell id="mwynB1rOgoHQFpIlx6MR-24" value="Login&lt;br&gt;get method api" style="edgeLabel;html=1;align=center;verticalAlign=middle;resizable=0;points=[];" parent="mwynB1rOgoHQFpIlx6MR-23" vertex="1" connectable="0">
          <mxGeometry x="-0.4916" y="-1" relative="1" as="geometry">
            <mxPoint x="1" as="offset" />
          </mxGeometry>
        </mxCell>
        <mxCell id="mwynB1rOgoHQFpIlx6MR-25" value="&lt;span style=&quot;font-size: 14px;&quot;&gt;ID&lt;br&gt;&lt;/span&gt;" style="text;html=1;resizable=0;autosize=1;align=center;verticalAlign=middle;points=[];fillColor=none;strokeColor=none;rounded=0;fontSize=18;" parent="1" vertex="1">
          <mxGeometry x="593" y="250" width="30" height="30" as="geometry" />
        </mxCell>
        <mxCell id="mwynB1rOgoHQFpIlx6MR-26" value="&lt;span style=&quot;font-size: 14px;&quot;&gt;BR&lt;br&gt;&lt;/span&gt;" style="text;html=1;resizable=0;autosize=1;align=center;verticalAlign=middle;points=[];fillColor=none;strokeColor=none;rounded=0;fontSize=18;" parent="1" vertex="1">
          <mxGeometry x="787.5" y="250" width="30" height="30" as="geometry" />
        </mxCell>
        <mxCell id="mwynB1rOgoHQFpIlx6MR-27" value="&lt;span style=&quot;font-size: 12px;&quot;&gt;server admin&lt;/span&gt;" style="rounded=0;whiteSpace=wrap;html=1;fontSize=18;fillColor=#FFE599;" parent="1" vertex="1">
          <mxGeometry x="120" y="350" width="85" height="46.25" as="geometry" />
        </mxCell>
        <mxCell id="mwynB1rOgoHQFpIlx6MR-28" value="&lt;span style=&quot;font-size: 12px;&quot;&gt;server admin&lt;/span&gt;&lt;span style=&quot;font-size: 12px;&quot;&gt;&lt;br&gt;&lt;/span&gt;" style="rounded=0;whiteSpace=wrap;html=1;fontSize=18;fillColor=#FFE599;" parent="1" vertex="1">
          <mxGeometry x="329" y="350" width="85" height="46.25" as="geometry" />
        </mxCell>
        <mxCell id="mwynB1rOgoHQFpIlx6MR-29" value="&lt;span style=&quot;font-size: 12px;&quot;&gt;server mch&lt;/span&gt;" style="rounded=0;whiteSpace=wrap;html=1;fontSize=18;fillColor=#FFE599;" parent="1" vertex="1">
          <mxGeometry x="329" y="410" width="85" height="46.25" as="geometry" />
        </mxCell>
        <mxCell id="mwynB1rOgoHQFpIlx6MR-30" value="&lt;span style=&quot;font-size: 12px;&quot;&gt;server api&lt;/span&gt;" style="rounded=0;whiteSpace=wrap;html=1;fontSize=18;fillColor=#FFE599;" parent="1" vertex="1">
          <mxGeometry x="329" y="468.5" width="85" height="46.25" as="geometry" />
        </mxCell>
        <mxCell id="mwynB1rOgoHQFpIlx6MR-31" value="&lt;font style=&quot;font-size: 12px;&quot;&gt;VN+ID+BR slave&lt;br&gt;&lt;/font&gt;" style="strokeWidth=2;html=1;shape=mxgraph.flowchart.database;whiteSpace=wrap;fontSize=18;fillColor=#CCFFCC;" parent="1" vertex="1">
          <mxGeometry x="140" y="810" width="120" height="70" as="geometry" />
        </mxCell>
        <mxCell id="mwynB1rOgoHQFpIlx6MR-32" value="&lt;font style=&quot;font-size: 10px;&quot;&gt;config server&lt;/font&gt;" style="rounded=0;whiteSpace=wrap;html=1;fontSize=18;fillColor=#99FFFF;" parent="1" vertex="1">
          <mxGeometry x="230" y="415.75" width="60" height="48.5" as="geometry" />
        </mxCell>
        <mxCell id="mwynB1rOgoHQFpIlx6MR-33" style="edgeStyle=none;rounded=0;orthogonalLoop=1;jettySize=auto;html=1;exitX=1;exitY=0.5;exitDx=0;exitDy=0;entryX=0;entryY=0.5;entryDx=0;entryDy=0;shape=link;" parent="1" source="mwynB1rOgoHQFpIlx6MR-34" target="mwynB1rOgoHQFpIlx6MR-35" edge="1">
          <mxGeometry relative="1" as="geometry" />
        </mxCell>
        <mxCell id="mwynB1rOgoHQFpIlx6MR-34" value="&lt;font style=&quot;font-size: 10px;&quot;&gt;safedog&lt;br&gt;(master)&lt;br&gt;&lt;/font&gt;" style="rounded=0;whiteSpace=wrap;html=1;fontSize=18;fillColor=#99FFFF;" parent="1" vertex="1">
          <mxGeometry x="230" y="540.75" width="60" height="48.5" as="geometry" />
        </mxCell>
        <mxCell id="mwynB1rOgoHQFpIlx6MR-35" value="&lt;font style=&quot;font-size: 10px;&quot;&gt;safedog&lt;br&gt;(slave)&lt;br&gt;&lt;/font&gt;" style="rounded=0;whiteSpace=wrap;html=1;fontSize=18;fillColor=#99FFFF;" parent="1" vertex="1">
          <mxGeometry x="430" y="540.75" width="60" height="48.5" as="geometry" />
        </mxCell>
        <mxCell id="mwynB1rOgoHQFpIlx6MR-36" value="" style="rounded=0;whiteSpace=wrap;html=1;fontSize=18;fillColor=#FFFFFF;" parent="1" vertex="1">
          <mxGeometry x="520" y="330" width="180" height="640" as="geometry" />
        </mxCell>
        <mxCell id="mwynB1rOgoHQFpIlx6MR-37" value="&lt;font style=&quot;font-size: 12px;&quot;&gt;Admin&amp;nbsp;slave&lt;br&gt;&lt;/font&gt;" style="strokeWidth=2;html=1;shape=mxgraph.flowchart.database;whiteSpace=wrap;fontSize=18;fillColor=#F8CECC;" parent="1" vertex="1">
          <mxGeometry x="540" y="626" width="120" height="70" as="geometry" />
        </mxCell>
        <mxCell id="mwynB1rOgoHQFpIlx6MR-38" style="edgeStyle=none;shape=link;rounded=0;orthogonalLoop=1;jettySize=auto;html=1;exitX=0;exitY=0.5;exitDx=0;exitDy=0;exitPerimeter=0;entryX=1;entryY=0.5;entryDx=0;entryDy=0;entryPerimeter=0;fillColor=#D4FCFF;" parent="1" source="mwynB1rOgoHQFpIlx6MR-39" target="mwynB1rOgoHQFpIlx6MR-31" edge="1">
          <mxGeometry relative="1" as="geometry" />
        </mxCell>
        <mxCell id="mwynB1rOgoHQFpIlx6MR-39" value="&lt;font style=&quot;font-size: 12px;&quot;&gt;ID master&lt;br&gt;&lt;/font&gt;" style="strokeWidth=2;html=1;shape=mxgraph.flowchart.database;whiteSpace=wrap;fontSize=18;fillColor=#CCFFCC;" parent="1" vertex="1">
          <mxGeometry x="540" y="800" width="120" height="70" as="geometry" />
        </mxCell>
        <mxCell id="mwynB1rOgoHQFpIlx6MR-40" value="&lt;font style=&quot;font-size: 10px;&quot;&gt;config server&lt;/font&gt;" style="rounded=0;whiteSpace=wrap;html=1;fontSize=18;fillColor=#99FFFF;" parent="1" vertex="1">
          <mxGeometry x="630" y="415.75" width="60" height="48.5" as="geometry" />
        </mxCell>
        <mxCell id="mwynB1rOgoHQFpIlx6MR-41" value="&lt;font style=&quot;font-size: 10px;&quot;&gt;redis&lt;/font&gt;" style="rounded=0;whiteSpace=wrap;html=1;fontSize=18;fillColor=#99FFFF;" parent="1" vertex="1">
          <mxGeometry x="630" y="480" width="60" height="48.5" as="geometry" />
        </mxCell>
        <mxCell id="mwynB1rOgoHQFpIlx6MR-42" value="&lt;span style=&quot;font-size: 12px;&quot;&gt;server admin&lt;/span&gt;&lt;span style=&quot;font-size: 12px;&quot;&gt;&lt;br&gt;&lt;/span&gt;" style="rounded=0;whiteSpace=wrap;html=1;fontSize=18;fillColor=#FFE599;" parent="1" vertex="1">
          <mxGeometry x="529" y="350" width="85" height="46.25" as="geometry" />
        </mxCell>
        <mxCell id="mwynB1rOgoHQFpIlx6MR-43" value="&lt;span style=&quot;font-size: 12px;&quot;&gt;server mch&lt;/span&gt;" style="rounded=0;whiteSpace=wrap;html=1;fontSize=18;fillColor=#FFE599;" parent="1" vertex="1">
          <mxGeometry x="529" y="410" width="85" height="46.25" as="geometry" />
        </mxCell>
        <mxCell id="mwynB1rOgoHQFpIlx6MR-44" value="&lt;span style=&quot;font-size: 12px;&quot;&gt;server api&lt;/span&gt;" style="rounded=0;whiteSpace=wrap;html=1;fontSize=18;fillColor=#FFE599;" parent="1" vertex="1">
          <mxGeometry x="529" y="468.5" width="85" height="46.25" as="geometry" />
        </mxCell>
        <mxCell id="mwynB1rOgoHQFpIlx6MR-45" value="&lt;font style=&quot;font-size: 10px;&quot;&gt;safedog&lt;br&gt;(slave)&lt;br&gt;&lt;/font&gt;" style="rounded=0;whiteSpace=wrap;html=1;fontSize=18;fillColor=#99FFFF;" parent="1" vertex="1">
          <mxGeometry x="630" y="540.75" width="60" height="48.5" as="geometry" />
        </mxCell>
        <mxCell id="mwynB1rOgoHQFpIlx6MR-46" value="" style="rounded=0;whiteSpace=wrap;html=1;fontSize=18;fillColor=#FFFFFF;" parent="1" vertex="1">
          <mxGeometry x="720" y="330" width="180" height="640" as="geometry" />
        </mxCell>
        <mxCell id="mwynB1rOgoHQFpIlx6MR-47" value="&lt;font style=&quot;font-size: 12px;&quot;&gt;Admin&amp;nbsp;slave&lt;br&gt;&lt;/font&gt;" style="strokeWidth=2;html=1;shape=mxgraph.flowchart.database;whiteSpace=wrap;fontSize=18;fillColor=#F8CECC;" parent="1" vertex="1">
          <mxGeometry x="740" y="626" width="120" height="70" as="geometry" />
        </mxCell>
        <mxCell id="mwynB1rOgoHQFpIlx6MR-48" style="edgeStyle=none;shape=link;rounded=0;orthogonalLoop=1;jettySize=auto;html=1;exitX=0;exitY=0.5;exitDx=0;exitDy=0;exitPerimeter=0;entryX=1;entryY=0.85;entryDx=0;entryDy=0;entryPerimeter=0;fillColor=#D4FCFF;" parent="1" source="mwynB1rOgoHQFpIlx6MR-49" target="mwynB1rOgoHQFpIlx6MR-31" edge="1">
          <mxGeometry relative="1" as="geometry" />
        </mxCell>
        <mxCell id="mwynB1rOgoHQFpIlx6MR-49" value="&lt;font style=&quot;font-size: 12px;&quot;&gt;BR master&lt;br&gt;&lt;/font&gt;" style="strokeWidth=2;html=1;shape=mxgraph.flowchart.database;whiteSpace=wrap;fontSize=18;fillColor=#CCFFCC;" parent="1" vertex="1">
          <mxGeometry x="747.25" y="880" width="120" height="70" as="geometry" />
        </mxCell>
        <mxCell id="mwynB1rOgoHQFpIlx6MR-50" value="&lt;font style=&quot;font-size: 10px;&quot;&gt;config server&lt;/font&gt;" style="rounded=0;whiteSpace=wrap;html=1;fontSize=18;fillColor=#99FFFF;" parent="1" vertex="1">
          <mxGeometry x="830" y="415.75" width="60" height="48.5" as="geometry" />
        </mxCell>
        <mxCell id="mwynB1rOgoHQFpIlx6MR-51" value="&lt;font style=&quot;font-size: 10px;&quot;&gt;redis&lt;/font&gt;" style="rounded=0;whiteSpace=wrap;html=1;fontSize=18;fillColor=#99FFFF;" parent="1" vertex="1">
          <mxGeometry x="830" y="480" width="60" height="48.5" as="geometry" />
        </mxCell>
        <mxCell id="mwynB1rOgoHQFpIlx6MR-52" value="&lt;span style=&quot;font-size: 12px;&quot;&gt;server admin&lt;/span&gt;&lt;span style=&quot;font-size: 12px;&quot;&gt;&lt;br&gt;&lt;/span&gt;" style="rounded=0;whiteSpace=wrap;html=1;fontSize=18;fillColor=#FFE599;" parent="1" vertex="1">
          <mxGeometry x="729" y="350" width="85" height="46.25" as="geometry" />
        </mxCell>
        <mxCell id="mwynB1rOgoHQFpIlx6MR-53" value="&lt;span style=&quot;font-size: 12px;&quot;&gt;server mch&lt;/span&gt;" style="rounded=0;whiteSpace=wrap;html=1;fontSize=18;fillColor=#FFE599;" parent="1" vertex="1">
          <mxGeometry x="729" y="410" width="85" height="46.25" as="geometry" />
        </mxCell>
        <mxCell id="mwynB1rOgoHQFpIlx6MR-54" value="&lt;span style=&quot;font-size: 12px;&quot;&gt;server api&lt;/span&gt;" style="rounded=0;whiteSpace=wrap;html=1;fontSize=18;fillColor=#FFE599;" parent="1" vertex="1">
          <mxGeometry x="729" y="468.5" width="85" height="46.25" as="geometry" />
        </mxCell>
        <mxCell id="mwynB1rOgoHQFpIlx6MR-55" value="&lt;font style=&quot;font-size: 10px;&quot;&gt;safedog&lt;br&gt;(slave)&lt;br&gt;&lt;/font&gt;" style="rounded=0;whiteSpace=wrap;html=1;fontSize=18;fillColor=#99FFFF;" parent="1" vertex="1">
          <mxGeometry x="830" y="540.75" width="60" height="48.5" as="geometry" />
        </mxCell>
        <mxCell id="mwynB1rOgoHQFpIlx6MR-56" value="&lt;font style=&quot;font-size: 10px;&quot;&gt;report dog&lt;/font&gt;" style="rounded=0;whiteSpace=wrap;html=1;fontSize=18;fillColor=#99FFFF;" parent="1" vertex="1">
          <mxGeometry x="230" y="350" width="60" height="48.5" as="geometry" />
        </mxCell>
        <mxCell id="mwynB1rOgoHQFpIlx6MR-57" value="&lt;font style=&quot;font-size: 10px;&quot;&gt;report dog&lt;/font&gt;" style="rounded=0;whiteSpace=wrap;html=1;fontSize=18;fillColor=#99FFFF;" parent="1" vertex="1">
          <mxGeometry x="430" y="350" width="60" height="48.5" as="geometry" />
        </mxCell>
        <mxCell id="mwynB1rOgoHQFpIlx6MR-58" value="&lt;font style=&quot;font-size: 10px;&quot;&gt;report dog&lt;/font&gt;" style="rounded=0;whiteSpace=wrap;html=1;fontSize=18;fillColor=#99FFFF;" parent="1" vertex="1">
          <mxGeometry x="630" y="350" width="60" height="48.5" as="geometry" />
        </mxCell>
        <mxCell id="mwynB1rOgoHQFpIlx6MR-59" value="&lt;font style=&quot;font-size: 10px;&quot;&gt;report dog&lt;/font&gt;" style="rounded=0;whiteSpace=wrap;html=1;fontSize=18;fillColor=#99FFFF;" parent="1" vertex="1">
          <mxGeometry x="830" y="348.88" width="60" height="48.5" as="geometry" />
        </mxCell>
        <mxCell id="mwynB1rOgoHQFpIlx6MR-60" value="&lt;font style=&quot;font-size: 10px;&quot;&gt;redis&lt;/font&gt;" style="rounded=0;whiteSpace=wrap;html=1;fontSize=18;fillColor=#99FFFF;" parent="1" vertex="1">
          <mxGeometry x="230" y="480" width="60" height="48.5" as="geometry" />
        </mxCell>
        <mxCell id="mwynB1rOgoHQFpIlx6MR-61" style="edgeStyle=none;shape=link;rounded=0;orthogonalLoop=1;jettySize=auto;html=1;exitX=1;exitY=0.5;exitDx=0;exitDy=0;fillColor=#D4FCFF;" parent="1" source="mwynB1rOgoHQFpIlx6MR-35" target="mwynB1rOgoHQFpIlx6MR-45" edge="1">
          <mxGeometry relative="1" as="geometry" />
        </mxCell>
        <mxCell id="mwynB1rOgoHQFpIlx6MR-62" style="edgeStyle=none;shape=link;rounded=0;orthogonalLoop=1;jettySize=auto;html=1;exitX=1;exitY=0.5;exitDx=0;exitDy=0;entryX=0;entryY=0.5;entryDx=0;entryDy=0;fillColor=#D4FCFF;" parent="1" source="mwynB1rOgoHQFpIlx6MR-45" target="mwynB1rOgoHQFpIlx6MR-55" edge="1">
          <mxGeometry relative="1" as="geometry" />
        </mxCell>
        <mxCell id="mwynB1rOgoHQFpIlx6MR-63" style="edgeStyle=none;shape=link;rounded=0;orthogonalLoop=1;jettySize=auto;html=1;exitX=1;exitY=0.5;exitDx=0;exitDy=0;exitPerimeter=0;fillColor=#D4FCFF;" parent="1" source="mwynB1rOgoHQFpIlx6MR-9" target="mwynB1rOgoHQFpIlx6MR-37" edge="1">
          <mxGeometry relative="1" as="geometry" />
        </mxCell>
        <mxCell id="mwynB1rOgoHQFpIlx6MR-64" style="edgeStyle=none;shape=link;rounded=0;orthogonalLoop=1;jettySize=auto;html=1;exitX=1;exitY=0.5;exitDx=0;exitDy=0;exitPerimeter=0;fillColor=#D4FCFF;" parent="1" source="mwynB1rOgoHQFpIlx6MR-37" target="mwynB1rOgoHQFpIlx6MR-47" edge="1">
          <mxGeometry relative="1" as="geometry" />
        </mxCell>
        <mxCell id="mwynB1rOgoHQFpIlx6MR-65" value="&lt;span style=&quot;font-size: 14px;&quot;&gt;MySQL&lt;/span&gt;" style="text;html=1;resizable=0;autosize=1;align=center;verticalAlign=middle;points=[];fillColor=none;strokeColor=none;rounded=0;fontSize=18;" parent="1" vertex="1">
          <mxGeometry x="170" y="620" width="60" height="30" as="geometry" />
        </mxCell>
        <mxCell id="mwynB1rOgoHQFpIlx6MR-66" value="&lt;span style=&quot;font-size: 14px;&quot;&gt;MySQL&lt;/span&gt;" style="text;html=1;resizable=0;autosize=1;align=center;verticalAlign=middle;points=[];fillColor=none;strokeColor=none;rounded=0;fontSize=18;" parent="1" vertex="1">
          <mxGeometry x="370" y="620" width="60" height="30" as="geometry" />
        </mxCell>
        <mxCell id="mwynB1rOgoHQFpIlx6MR-67" value="&lt;span style=&quot;font-size: 14px;&quot;&gt;MySQL&lt;/span&gt;" style="text;html=1;resizable=0;autosize=1;align=center;verticalAlign=middle;points=[];fillColor=none;strokeColor=none;rounded=0;fontSize=18;" parent="1" vertex="1">
          <mxGeometry x="570" y="620" width="60" height="30" as="geometry" />
        </mxCell>
        <mxCell id="mwynB1rOgoHQFpIlx6MR-68" value="&lt;span style=&quot;font-size: 14px;&quot;&gt;MySQL&lt;/span&gt;" style="text;html=1;resizable=0;autosize=1;align=center;verticalAlign=middle;points=[];fillColor=none;strokeColor=none;rounded=0;fontSize=18;" parent="1" vertex="1">
          <mxGeometry x="772.5" y="620" width="60" height="30" as="geometry" />
        </mxCell>
        <mxCell id="mwynB1rOgoHQFpIlx6MR-69" value="&lt;span style=&quot;font-size: 14px;&quot;&gt;MySQL&lt;/span&gt;" style="text;html=1;resizable=0;autosize=1;align=center;verticalAlign=middle;points=[];fillColor=none;strokeColor=none;rounded=0;fontSize=18;" parent="1" vertex="1">
          <mxGeometry x="165" y="795" width="70" height="40" as="geometry" />
        </mxCell>
        <mxCell id="mwynB1rOgoHQFpIlx6MR-70" value="&lt;span style=&quot;font-size: 14px;&quot;&gt;MySQL&lt;/span&gt;" style="text;html=1;resizable=0;autosize=1;align=center;verticalAlign=middle;points=[];fillColor=none;strokeColor=none;rounded=0;fontSize=18;" parent="1" vertex="1">
          <mxGeometry x="370" y="705" width="70" height="40" as="geometry" />
        </mxCell>
        <mxCell id="mwynB1rOgoHQFpIlx6MR-71" value="&lt;span style=&quot;font-size: 14px;&quot;&gt;MySQL&lt;/span&gt;" style="text;html=1;resizable=0;autosize=1;align=center;verticalAlign=middle;points=[];fillColor=none;strokeColor=none;rounded=0;fontSize=18;" parent="1" vertex="1">
          <mxGeometry x="565" y="785" width="70" height="40" as="geometry" />
        </mxCell>
        <mxCell id="mwynB1rOgoHQFpIlx6MR-72" value="&lt;span style=&quot;font-size: 14px;&quot;&gt;MySQL&lt;/span&gt;" style="text;html=1;resizable=0;autosize=1;align=center;verticalAlign=middle;points=[];fillColor=none;strokeColor=none;rounded=0;fontSize=18;" parent="1" vertex="1">
          <mxGeometry x="775" y="865" width="70" height="40" as="geometry" />
        </mxCell>
        <mxCell id="Vidf5gUthjke8cPNKwCz-1" style="edgeStyle=none;rounded=0;orthogonalLoop=1;jettySize=auto;html=1;exitX=0.5;exitY=1;exitDx=0;exitDy=0;fontSize=10;" parent="1" source="mwynB1rOgoHQFpIlx6MR-36" target="mwynB1rOgoHQFpIlx6MR-36" edge="1">
          <mxGeometry relative="1" as="geometry" />
        </mxCell>
        <mxCell id="Vidf5gUthjke8cPNKwCz-2" value="" style="edgeStyle=orthogonalEdgeStyle;rounded=0;orthogonalLoop=1;jettySize=auto;html=1;" parent="1" source="Vidf5gUthjke8cPNKwCz-4" edge="1">
          <mxGeometry relative="1" as="geometry">
            <mxPoint x="607.5" y="250" as="targetPoint" />
          </mxGeometry>
        </mxCell>
        <mxCell id="Vidf5gUthjke8cPNKwCz-3" value="查詢報表..." style="edgeLabel;html=1;align=center;verticalAlign=middle;resizable=0;points=[];" parent="Vidf5gUthjke8cPNKwCz-2" vertex="1" connectable="0">
          <mxGeometry x="-0.2" relative="1" as="geometry">
            <mxPoint as="offset" />
          </mxGeometry>
        </mxCell>
        <mxCell id="Vidf5gUthjke8cPNKwCz-4" value="" style="shape=umlActor;verticalLabelPosition=bottom;verticalAlign=top;html=1;outlineConnect=0;" parent="1" vertex="1">
          <mxGeometry x="572.5" y="110" width="70" height="80" as="geometry" />
        </mxCell>
        <mxCell id="Vidf5gUthjke8cPNKwCz-5" value="&lt;font style=&quot;font-size: 14px;&quot;&gt;商戶後台(ID)&lt;/font&gt;" style="text;html=1;resizable=0;autosize=1;align=center;verticalAlign=middle;points=[];fillColor=none;strokeColor=none;rounded=0;fontSize=18;" parent="1" vertex="1">
          <mxGeometry x="557.5" y="65" width="100" height="40" as="geometry" />
        </mxCell>
        <mxCell id="Vidf5gUthjke8cPNKwCz-6" value="" style="edgeStyle=orthogonalEdgeStyle;rounded=0;orthogonalLoop=1;jettySize=auto;html=1;" parent="1" source="Vidf5gUthjke8cPNKwCz-8" edge="1">
          <mxGeometry relative="1" as="geometry">
            <mxPoint x="810" y="250" as="targetPoint" />
          </mxGeometry>
        </mxCell>
        <mxCell id="Vidf5gUthjke8cPNKwCz-7" value="下單＆查詢pay_type..." style="edgeLabel;html=1;align=center;verticalAlign=middle;resizable=0;points=[];" parent="Vidf5gUthjke8cPNKwCz-6" vertex="1" connectable="0">
          <mxGeometry x="-0.2" relative="1" as="geometry">
            <mxPoint as="offset" />
          </mxGeometry>
        </mxCell>
        <mxCell id="Vidf5gUthjke8cPNKwCz-8" value="" style="shape=umlActor;verticalLabelPosition=bottom;verticalAlign=top;html=1;outlineConnect=0;" parent="1" vertex="1">
          <mxGeometry x="775" y="110" width="70" height="80" as="geometry" />
        </mxCell>
        <mxCell id="Vidf5gUthjke8cPNKwCz-9" value="&lt;font style=&quot;font-size: 14px;&quot;&gt;用戶(BR)&lt;/font&gt;" style="text;html=1;resizable=0;autosize=1;align=center;verticalAlign=middle;points=[];fillColor=none;strokeColor=none;rounded=0;fontSize=18;" parent="1" vertex="1">
          <mxGeometry x="770" y="65" width="80" height="40" as="geometry" />
        </mxCell>
      </root>
    </mxGraphModel>
  </diagram>
  <diagram id="OglpMEez0M24vf6w7h9z" name="jp全球化流程圖">
    <mxGraphModel dx="1426" dy="697" grid="1" gridSize="10" guides="1" tooltips="1" connect="1" arrows="1" fold="1" page="1" pageScale="1" pageWidth="827" pageHeight="1169" math="0" shadow="0">
      <root>
        <mxCell id="0" />
        <mxCell id="1" parent="0" />
        <mxCell id="_Hq1Kuzz3KdiezZZvwW3-2" value="" style="endArrow=none;html=1;rounded=0;entryX=0.5;entryY=1;entryDx=0;entryDy=0;" parent="1" target="_Hq1Kuzz3KdiezZZvwW3-6" edge="1">
          <mxGeometry width="50" height="50" relative="1" as="geometry">
            <mxPoint x="414" y="940" as="sourcePoint" />
            <mxPoint x="440" y="190" as="targetPoint" />
          </mxGeometry>
        </mxCell>
        <mxCell id="_Hq1Kuzz3KdiezZZvwW3-3" value="" style="endArrow=none;html=1;rounded=0;entryX=0.5;entryY=1;entryDx=0;entryDy=0;" parent="1" edge="1">
          <mxGeometry width="50" height="50" relative="1" as="geometry">
            <mxPoint x="259.5" y="940" as="sourcePoint" />
            <mxPoint x="259.5" y="140" as="targetPoint" />
          </mxGeometry>
        </mxCell>
        <mxCell id="_Hq1Kuzz3KdiezZZvwW3-5" value="" style="shape=umlActor;verticalLabelPosition=bottom;verticalAlign=top;html=1;outlineConnect=0;" parent="1" vertex="1">
          <mxGeometry x="80" y="60" width="70" height="80" as="geometry" />
        </mxCell>
        <mxCell id="_Hq1Kuzz3KdiezZZvwW3-6" value="&lt;font style=&quot;font-size: 10px;&quot;&gt;cash register (h5)&lt;/font&gt;" style="whiteSpace=wrap;html=1;aspect=fixed;" parent="1" vertex="1">
          <mxGeometry x="374" y="60" width="80" height="80" as="geometry" />
        </mxCell>
        <mxCell id="_Hq1Kuzz3KdiezZZvwW3-7" value="db" style="whiteSpace=wrap;html=1;aspect=fixed;" parent="1" vertex="1">
          <mxGeometry x="680" y="60" width="80" height="80" as="geometry" />
        </mxCell>
        <mxCell id="_Hq1Kuzz3KdiezZZvwW3-8" value="jp" style="whiteSpace=wrap;html=1;aspect=fixed;" parent="1" vertex="1">
          <mxGeometry x="530" y="60" width="80" height="80" as="geometry" />
        </mxCell>
        <mxCell id="_Hq1Kuzz3KdiezZZvwW3-9" value="Mch&lt;br&gt;(Game)" style="whiteSpace=wrap;html=1;aspect=fixed;" parent="1" vertex="1">
          <mxGeometry x="220" y="60" width="80" height="80" as="geometry" />
        </mxCell>
        <mxCell id="_Hq1Kuzz3KdiezZZvwW3-10" style="edgeStyle=none;rounded=0;orthogonalLoop=1;jettySize=auto;html=1;exitX=1;exitY=0.25;exitDx=0;exitDy=0;" parent="1" edge="1">
          <mxGeometry relative="1" as="geometry">
            <mxPoint x="130" y="185" as="sourcePoint" />
            <mxPoint x="240" y="185" as="targetPoint" />
          </mxGeometry>
        </mxCell>
        <mxCell id="_Hq1Kuzz3KdiezZZvwW3-15" value="&lt;font style=&quot;font-size: 14px;&quot;&gt;select amount &amp;amp;&lt;br&gt;click online &lt;br&gt;recharge&lt;br&gt;&lt;/font&gt;" style="text;html=1;resizable=0;autosize=1;align=center;verticalAlign=middle;points=[];fillColor=none;strokeColor=none;rounded=0;fontSize=18;" parent="1" vertex="1">
          <mxGeometry x="120" y="180" width="120" height="80" as="geometry" />
        </mxCell>
        <mxCell id="_Hq1Kuzz3KdiezZZvwW3-17" value="pay channel" style="whiteSpace=wrap;html=1;aspect=fixed;" parent="1" vertex="1">
          <mxGeometry x="827" y="60" width="80" height="80" as="geometry" />
        </mxCell>
        <mxCell id="_Hq1Kuzz3KdiezZZvwW3-18" value="" style="endArrow=none;html=1;rounded=0;entryX=0.5;entryY=1;entryDx=0;entryDy=0;startArrow=none;" parent="1" edge="1">
          <mxGeometry width="50" height="50" relative="1" as="geometry">
            <mxPoint x="867" y="940" as="sourcePoint" />
            <mxPoint x="866.5" y="140" as="targetPoint" />
          </mxGeometry>
        </mxCell>
        <mxCell id="_Hq1Kuzz3KdiezZZvwW3-21" value="" style="endArrow=none;html=1;rounded=0;entryX=0.5;entryY=1;entryDx=0;entryDy=0;" parent="1" edge="1">
          <mxGeometry width="50" height="50" relative="1" as="geometry">
            <mxPoint x="719.5" y="940" as="sourcePoint" />
            <mxPoint x="719.5" y="140" as="targetPoint" />
          </mxGeometry>
        </mxCell>
        <mxCell id="_Hq1Kuzz3KdiezZZvwW3-29" value="" style="rounded=0;whiteSpace=wrap;html=1;" parent="1" vertex="1">
          <mxGeometry x="980" y="210" width="30" height="270" as="geometry" />
        </mxCell>
        <mxCell id="_Hq1Kuzz3KdiezZZvwW3-30" value="" style="endArrow=none;html=1;rounded=0;entryX=0.5;entryY=1;entryDx=0;entryDy=0;" parent="1" edge="1">
          <mxGeometry width="50" height="50" relative="1" as="geometry">
            <mxPoint x="569.5" y="940" as="sourcePoint" />
            <mxPoint x="569.5" y="140" as="targetPoint" />
          </mxGeometry>
        </mxCell>
        <mxCell id="_Hq1Kuzz3KdiezZZvwW3-31" value="" style="endArrow=none;html=1;rounded=0;entryX=0.5;entryY=1;entryDx=0;entryDy=0;" parent="1" edge="1">
          <mxGeometry width="50" height="50" relative="1" as="geometry">
            <mxPoint x="114.5" y="940" as="sourcePoint" />
            <mxPoint x="114.5" y="140" as="targetPoint" />
          </mxGeometry>
        </mxCell>
      </root>
    </mxGraphModel>
  </diagram>
  <diagram id="gdUKgz7tmGTjcBzncPki" name="jp h5收銀台 bak">
    <mxGraphModel dx="1426" dy="697" grid="1" gridSize="10" guides="1" tooltips="1" connect="1" arrows="1" fold="1" page="1" pageScale="1" pageWidth="827" pageHeight="1169" math="0" shadow="0">
      <root>
        <mxCell id="0" />
        <mxCell id="1" parent="0" />
        <mxCell id="qx8lSgY3FJgU8UZLdKn6-1" value="" style="endArrow=none;html=1;rounded=0;entryX=0.5;entryY=1;entryDx=0;entryDy=0;startArrow=none;" parent="1" source="qx8lSgY3FJgU8UZLdKn6-24" target="qx8lSgY3FJgU8UZLdKn6-5" edge="1">
          <mxGeometry width="50" height="50" relative="1" as="geometry">
            <mxPoint x="414" y="940" as="sourcePoint" />
            <mxPoint x="440" y="190" as="targetPoint" />
          </mxGeometry>
        </mxCell>
        <mxCell id="ElQSPUJu0k0vVPrVruRL-1" value="" style="rounded=0;whiteSpace=wrap;html=1;" parent="1" vertex="1">
          <mxGeometry x="399" y="230" width="30" height="200" as="geometry" />
        </mxCell>
        <mxCell id="qx8lSgY3FJgU8UZLdKn6-2" value="" style="endArrow=none;html=1;rounded=0;entryX=0.5;entryY=1;entryDx=0;entryDy=0;startArrow=none;" parent="1" source="9s-UIVs5GzwC4Q7ToV-j-5" edge="1">
          <mxGeometry width="50" height="50" relative="1" as="geometry">
            <mxPoint x="260" y="1280" as="sourcePoint" />
            <mxPoint x="259.5" y="140" as="targetPoint" />
          </mxGeometry>
        </mxCell>
        <mxCell id="qx8lSgY3FJgU8UZLdKn6-3" value="" style="endArrow=none;html=1;rounded=0;entryX=0.5;entryY=1;entryDx=0;entryDy=0;startArrow=none;" parent="1" source="qx8lSgY3FJgU8UZLdKn6-10" edge="1">
          <mxGeometry width="50" height="50" relative="1" as="geometry">
            <mxPoint x="114.5" y="940" as="sourcePoint" />
            <mxPoint x="114.5" y="140" as="targetPoint" />
          </mxGeometry>
        </mxCell>
        <mxCell id="qx8lSgY3FJgU8UZLdKn6-4" value="" style="shape=umlActor;verticalLabelPosition=bottom;verticalAlign=top;html=1;outlineConnect=0;" parent="1" vertex="1">
          <mxGeometry x="80" y="60" width="70" height="80" as="geometry" />
        </mxCell>
        <mxCell id="qx8lSgY3FJgU8UZLdKn6-5" value="&lt;font style=&quot;font-size: 10px;&quot;&gt;cash register (h5)&lt;/font&gt;" style="whiteSpace=wrap;html=1;aspect=fixed;" parent="1" vertex="1">
          <mxGeometry x="374" y="60" width="80" height="80" as="geometry" />
        </mxCell>
        <mxCell id="qx8lSgY3FJgU8UZLdKn6-6" value="db" style="whiteSpace=wrap;html=1;aspect=fixed;" parent="1" vertex="1">
          <mxGeometry x="680" y="60" width="80" height="80" as="geometry" />
        </mxCell>
        <mxCell id="qx8lSgY3FJgU8UZLdKn6-7" value="jp" style="whiteSpace=wrap;html=1;aspect=fixed;" parent="1" vertex="1">
          <mxGeometry x="530" y="60" width="80" height="80" as="geometry" />
        </mxCell>
        <mxCell id="qx8lSgY3FJgU8UZLdKn6-8" value="Mch&lt;br&gt;(Game)" style="whiteSpace=wrap;html=1;aspect=fixed;" parent="1" vertex="1">
          <mxGeometry x="220" y="60" width="80" height="80" as="geometry" />
        </mxCell>
        <mxCell id="qx8lSgY3FJgU8UZLdKn6-9" style="edgeStyle=none;rounded=0;orthogonalLoop=1;jettySize=auto;html=1;exitX=1;exitY=0.25;exitDx=0;exitDy=0;" parent="1" source="qx8lSgY3FJgU8UZLdKn6-10" edge="1">
          <mxGeometry relative="1" as="geometry">
            <mxPoint x="131" y="180" as="sourcePoint" />
            <mxPoint x="240" y="185" as="targetPoint" />
          </mxGeometry>
        </mxCell>
        <mxCell id="qx8lSgY3FJgU8UZLdKn6-10" value="" style="rounded=0;whiteSpace=wrap;html=1;" parent="1" vertex="1">
          <mxGeometry x="100" y="160" width="30" height="100" as="geometry" />
        </mxCell>
        <mxCell id="qx8lSgY3FJgU8UZLdKn6-11" value="" style="endArrow=none;html=1;rounded=0;entryX=0.5;entryY=1;entryDx=0;entryDy=0;startArrow=none;" parent="1" source="qx8lSgY3FJgU8UZLdKn6-22" target="qx8lSgY3FJgU8UZLdKn6-10" edge="1">
          <mxGeometry width="50" height="50" relative="1" as="geometry">
            <mxPoint x="114.5" y="940" as="sourcePoint" />
            <mxPoint x="114.5" y="140" as="targetPoint" />
          </mxGeometry>
        </mxCell>
        <mxCell id="qx8lSgY3FJgU8UZLdKn6-12" value="" style="rounded=0;whiteSpace=wrap;html=1;" parent="1" vertex="1">
          <mxGeometry x="245" y="160" width="30" height="250" as="geometry" />
        </mxCell>
        <mxCell id="qx8lSgY3FJgU8UZLdKn6-13" value="&lt;font style=&quot;font-size: 14px;&quot;&gt;select amount &amp;amp;&lt;br&gt;click online&lt;br&gt;recharge&lt;br&gt;&lt;/font&gt;" style="text;html=1;resizable=0;autosize=1;align=center;verticalAlign=middle;points=[];fillColor=none;strokeColor=none;rounded=0;fontSize=18;" parent="1" vertex="1">
          <mxGeometry x="125" y="180" width="120" height="80" as="geometry" />
        </mxCell>
        <mxCell id="qx8lSgY3FJgU8UZLdKn6-15" value="payment gateway" style="whiteSpace=wrap;html=1;aspect=fixed;" parent="1" vertex="1">
          <mxGeometry x="827" y="60" width="80" height="80" as="geometry" />
        </mxCell>
        <mxCell id="qx8lSgY3FJgU8UZLdKn6-16" value="" style="endArrow=none;html=1;rounded=0;entryX=0.5;entryY=1;entryDx=0;entryDy=0;startArrow=none;" parent="1" source="qx8lSgY3FJgU8UZLdKn6-34" edge="1">
          <mxGeometry width="50" height="50" relative="1" as="geometry">
            <mxPoint x="867" y="940" as="sourcePoint" />
            <mxPoint x="866.5" y="140" as="targetPoint" />
          </mxGeometry>
        </mxCell>
        <mxCell id="qx8lSgY3FJgU8UZLdKn6-17" value="&lt;font style=&quot;font-size: 14px;&quot;&gt;create_order&lt;br&gt;(params: amount,&amp;nbsp;&lt;br&gt;mch_id,user_id...)&lt;br&gt;&lt;/font&gt;" style="text;html=1;resizable=0;autosize=1;align=center;verticalAlign=middle;points=[];fillColor=none;strokeColor=none;rounded=0;fontSize=18;" parent="1" vertex="1">
          <mxGeometry x="270" y="240" width="140" height="80" as="geometry" />
        </mxCell>
        <mxCell id="qx8lSgY3FJgU8UZLdKn6-18" value="" style="endArrow=none;html=1;rounded=0;entryX=0.5;entryY=1;entryDx=0;entryDy=0;startArrow=none;" parent="1" source="qx8lSgY3FJgU8UZLdKn6-20" edge="1">
          <mxGeometry width="50" height="50" relative="1" as="geometry">
            <mxPoint x="569.5" y="940" as="sourcePoint" />
            <mxPoint x="569.5" y="140" as="targetPoint" />
          </mxGeometry>
        </mxCell>
        <mxCell id="qx8lSgY3FJgU8UZLdKn6-19" value="" style="endArrow=none;html=1;rounded=0;entryX=0.5;entryY=1;entryDx=0;entryDy=0;startArrow=none;" parent="1" source="KViRH-Rk5z1py82ypwF5-3" edge="1">
          <mxGeometry width="50" height="50" relative="1" as="geometry">
            <mxPoint x="720" y="1180" as="sourcePoint" />
            <mxPoint x="719.5" y="140" as="targetPoint" />
          </mxGeometry>
        </mxCell>
        <mxCell id="qx8lSgY3FJgU8UZLdKn6-20" value="" style="rounded=0;whiteSpace=wrap;html=1;" parent="1" vertex="1">
          <mxGeometry x="555" y="270" width="30" height="160" as="geometry" />
        </mxCell>
        <mxCell id="qx8lSgY3FJgU8UZLdKn6-21" value="" style="endArrow=none;html=1;rounded=0;entryX=0.5;entryY=1;entryDx=0;entryDy=0;startArrow=none;" parent="1" source="qx8lSgY3FJgU8UZLdKn6-36" target="qx8lSgY3FJgU8UZLdKn6-20" edge="1">
          <mxGeometry width="50" height="50" relative="1" as="geometry">
            <mxPoint x="569.5" y="940" as="sourcePoint" />
            <mxPoint x="569.5" y="140" as="targetPoint" />
          </mxGeometry>
        </mxCell>
        <mxCell id="qx8lSgY3FJgU8UZLdKn6-22" value="" style="rounded=0;whiteSpace=wrap;html=1;" parent="1" vertex="1">
          <mxGeometry x="100" y="345" width="30" height="175" as="geometry" />
        </mxCell>
        <mxCell id="qx8lSgY3FJgU8UZLdKn6-23" value="" style="endArrow=none;html=1;rounded=0;entryX=0.5;entryY=1;entryDx=0;entryDy=0;startArrow=none;" parent="1" source="qx8lSgY3FJgU8UZLdKn6-39" target="qx8lSgY3FJgU8UZLdKn6-22" edge="1">
          <mxGeometry width="50" height="50" relative="1" as="geometry">
            <mxPoint x="114.5" y="940" as="sourcePoint" />
            <mxPoint x="115" y="260" as="targetPoint" />
          </mxGeometry>
        </mxCell>
        <mxCell id="qx8lSgY3FJgU8UZLdKn6-24" value="" style="rounded=0;whiteSpace=wrap;html=1;" parent="1" vertex="1">
          <mxGeometry x="399" y="460" width="30" height="90" as="geometry" />
        </mxCell>
        <mxCell id="qx8lSgY3FJgU8UZLdKn6-25" value="" style="endArrow=none;html=1;rounded=0;entryX=0.5;entryY=1;entryDx=0;entryDy=0;startArrow=none;" parent="1" source="ElQSPUJu0k0vVPrVruRL-23" target="qx8lSgY3FJgU8UZLdKn6-24" edge="1">
          <mxGeometry width="50" height="50" relative="1" as="geometry">
            <mxPoint x="414" y="1280" as="sourcePoint" />
            <mxPoint x="414" y="140" as="targetPoint" />
          </mxGeometry>
        </mxCell>
        <mxCell id="qx8lSgY3FJgU8UZLdKn6-26" style="edgeStyle=none;rounded=0;orthogonalLoop=1;jettySize=auto;html=1;" parent="1" edge="1">
          <mxGeometry relative="1" as="geometry">
            <mxPoint x="365" y="395" as="sourcePoint" />
            <mxPoint x="135" y="395" as="targetPoint" />
            <Array as="points">
              <mxPoint x="385" y="395" />
              <mxPoint x="365" y="395" />
            </Array>
          </mxGeometry>
        </mxCell>
        <mxCell id="qx8lSgY3FJgU8UZLdKn6-27" value="&lt;font style=&quot;font-size: 14px;&quot;&gt;encode jwt &amp;amp;&lt;br&gt;response h5&amp;nbsp;page&lt;br&gt;(payment_url,jwt)&lt;br&gt;&lt;/font&gt;" style="text;html=1;resizable=0;autosize=1;align=center;verticalAlign=middle;points=[];fillColor=none;strokeColor=none;rounded=0;fontSize=18;" parent="1" vertex="1">
          <mxGeometry x="259" y="390" width="140" height="80" as="geometry" />
        </mxCell>
        <mxCell id="qx8lSgY3FJgU8UZLdKn6-28" style="edgeStyle=none;rounded=0;orthogonalLoop=1;jettySize=auto;html=1;exitX=1;exitY=0.25;exitDx=0;exitDy=0;" parent="1" edge="1">
          <mxGeometry relative="1" as="geometry">
            <mxPoint x="139" y="480" as="sourcePoint" />
            <mxPoint x="399" y="480" as="targetPoint" />
          </mxGeometry>
        </mxCell>
        <mxCell id="qx8lSgY3FJgU8UZLdKn6-29" value="&lt;font style=&quot;font-size: 14px;&quot;&gt;select pay_type,&lt;br&gt;&lt;span style=&quot;&quot;&gt;place order&lt;/span&gt;&lt;br&gt;&lt;/font&gt;" style="text;html=1;resizable=0;autosize=1;align=center;verticalAlign=middle;points=[];fillColor=none;strokeColor=none;rounded=0;fontSize=18;" parent="1" vertex="1">
          <mxGeometry x="125" y="470" width="120" height="60" as="geometry" />
        </mxCell>
        <mxCell id="qx8lSgY3FJgU8UZLdKn6-30" style="edgeStyle=none;rounded=0;orthogonalLoop=1;jettySize=auto;html=1;" parent="1" edge="1">
          <mxGeometry relative="1" as="geometry">
            <mxPoint x="430" y="536" as="sourcePoint" />
            <mxPoint x="550" y="536" as="targetPoint" />
          </mxGeometry>
        </mxCell>
        <mxCell id="qx8lSgY3FJgU8UZLdKn6-32" style="edgeStyle=none;rounded=0;orthogonalLoop=1;jettySize=auto;html=1;exitX=1;exitY=0.25;exitDx=0;exitDy=0;" parent="1" edge="1">
          <mxGeometry relative="1" as="geometry">
            <mxPoint x="590" y="590" as="sourcePoint" />
            <mxPoint x="700" y="590" as="targetPoint" />
          </mxGeometry>
        </mxCell>
        <mxCell id="qx8lSgY3FJgU8UZLdKn6-33" value="&lt;span style=&quot;color: rgb(0, 0, 0); font-family: Helvetica; font-size: 14px; font-style: normal; font-variant-ligatures: normal; font-variant-caps: normal; font-weight: 400; letter-spacing: normal; orphans: 2; text-align: center; text-indent: 0px; text-transform: none; widows: 2; word-spacing: 0px; -webkit-text-stroke-width: 0px; background-color: rgb(248, 249, 250); text-decoration-thickness: initial; text-decoration-style: initial; text-decoration-color: initial; float: none; display: inline !important;&quot;&gt;update order&lt;/span&gt;" style="text;whiteSpace=wrap;html=1;fontSize=10;" parent="1" vertex="1">
          <mxGeometry x="600" y="597" width="90" height="40" as="geometry" />
        </mxCell>
        <mxCell id="qx8lSgY3FJgU8UZLdKn6-34" value="" style="rounded=0;whiteSpace=wrap;html=1;" parent="1" vertex="1">
          <mxGeometry x="852" y="680" width="30" height="140" as="geometry" />
        </mxCell>
        <mxCell id="qx8lSgY3FJgU8UZLdKn6-35" value="" style="endArrow=none;html=1;rounded=0;entryX=0.5;entryY=1;entryDx=0;entryDy=0;startArrow=none;" parent="1" source="ElQSPUJu0k0vVPrVruRL-9" target="qx8lSgY3FJgU8UZLdKn6-34" edge="1">
          <mxGeometry width="50" height="50" relative="1" as="geometry">
            <mxPoint x="867" y="1180" as="sourcePoint" />
            <mxPoint x="866.5" y="140" as="targetPoint" />
          </mxGeometry>
        </mxCell>
        <mxCell id="qx8lSgY3FJgU8UZLdKn6-36" value="" style="rounded=0;whiteSpace=wrap;html=1;" parent="1" vertex="1">
          <mxGeometry x="555" y="520" width="30" height="210" as="geometry" />
        </mxCell>
        <mxCell id="qx8lSgY3FJgU8UZLdKn6-37" value="" style="endArrow=none;html=1;rounded=0;entryX=0.5;entryY=1;entryDx=0;entryDy=0;" parent="1" target="qx8lSgY3FJgU8UZLdKn6-36" edge="1">
          <mxGeometry width="50" height="50" relative="1" as="geometry">
            <mxPoint x="570" y="1280" as="sourcePoint" />
            <mxPoint x="570" y="430" as="targetPoint" />
          </mxGeometry>
        </mxCell>
        <mxCell id="qx8lSgY3FJgU8UZLdKn6-38" style="edgeStyle=none;rounded=0;orthogonalLoop=1;jettySize=auto;html=1;" parent="1" edge="1">
          <mxGeometry relative="1" as="geometry">
            <mxPoint x="590" y="700" as="sourcePoint" />
            <mxPoint x="852" y="700" as="targetPoint" />
          </mxGeometry>
        </mxCell>
        <mxCell id="qx8lSgY3FJgU8UZLdKn6-39" value="" style="rounded=0;whiteSpace=wrap;html=1;" parent="1" vertex="1">
          <mxGeometry x="100" y="760" width="30" height="130" as="geometry" />
        </mxCell>
        <mxCell id="qx8lSgY3FJgU8UZLdKn6-40" value="" style="endArrow=none;html=1;rounded=0;entryX=0.5;entryY=1;entryDx=0;entryDy=0;" parent="1" target="qx8lSgY3FJgU8UZLdKn6-39" edge="1">
          <mxGeometry width="50" height="50" relative="1" as="geometry">
            <mxPoint x="115" y="1280" as="sourcePoint" />
            <mxPoint x="115" y="520" as="targetPoint" />
          </mxGeometry>
        </mxCell>
        <mxCell id="qx8lSgY3FJgU8UZLdKn6-41" style="edgeStyle=none;rounded=0;orthogonalLoop=1;jettySize=auto;html=1;exitX=1;exitY=0.25;exitDx=0;exitDy=0;" parent="1" edge="1">
          <mxGeometry relative="1" as="geometry">
            <mxPoint x="847" y="800" as="sourcePoint" />
            <mxPoint x="140" y="800" as="targetPoint" />
          </mxGeometry>
        </mxCell>
        <mxCell id="qx8lSgY3FJgU8UZLdKn6-42" value="&lt;font style=&quot;font-size: 14px;&quot;&gt;place order&lt;br&gt;,request payment page&lt;br&gt;&lt;br&gt;&lt;/font&gt;" style="text;html=1;resizable=0;autosize=1;align=center;verticalAlign=middle;points=[];fillColor=none;strokeColor=none;rounded=0;fontSize=18;" parent="1" vertex="1">
          <mxGeometry x="580" y="690" width="170" height="80" as="geometry" />
        </mxCell>
        <mxCell id="qx8lSgY3FJgU8UZLdKn6-43" value="&lt;font style=&quot;font-size: 14px;&quot;&gt;response payment page&lt;br&gt;&lt;br&gt;&lt;/font&gt;" style="text;html=1;resizable=0;autosize=1;align=center;verticalAlign=middle;points=[];fillColor=none;strokeColor=none;rounded=0;fontSize=18;" parent="1" vertex="1">
          <mxGeometry x="705" y="790" width="170" height="60" as="geometry" />
        </mxCell>
        <mxCell id="qx8lSgY3FJgU8UZLdKn6-44" value="&lt;span style=&quot;color: rgb(0, 0, 0); font-family: Helvetica; font-size: 14px; font-style: normal; font-variant-ligatures: normal; font-variant-caps: normal; font-weight: 400; letter-spacing: normal; orphans: 2; text-align: center; text-indent: 0px; text-transform: none; widows: 2; word-spacing: 0px; -webkit-text-stroke-width: 0px; background-color: rgb(248, 249, 250); text-decoration-thickness: initial; text-decoration-style: initial; text-decoration-color: initial; float: none; display: inline !important;&quot;&gt;place order&lt;br&gt;(params: jwt, pay_type)&lt;br&gt;&lt;/span&gt;" style="text;whiteSpace=wrap;html=1;fontSize=10;" parent="1" vertex="1">
          <mxGeometry x="420" y="537" width="150" height="40" as="geometry" />
        </mxCell>
        <mxCell id="ElQSPUJu0k0vVPrVruRL-2" style="edgeStyle=none;rounded=0;orthogonalLoop=1;jettySize=auto;html=1;exitX=1;exitY=0.25;exitDx=0;exitDy=0;" parent="1" edge="1">
          <mxGeometry relative="1" as="geometry">
            <mxPoint x="285" y="245" as="sourcePoint" />
            <mxPoint x="395" y="245" as="targetPoint" />
          </mxGeometry>
        </mxCell>
        <mxCell id="ElQSPUJu0k0vVPrVruRL-4" style="edgeStyle=none;rounded=0;orthogonalLoop=1;jettySize=auto;html=1;exitX=1;exitY=0.25;exitDx=0;exitDy=0;" parent="1" edge="1">
          <mxGeometry relative="1" as="geometry">
            <mxPoint x="435" y="284.5" as="sourcePoint" />
            <mxPoint x="545" y="284.5" as="targetPoint" />
          </mxGeometry>
        </mxCell>
        <mxCell id="ElQSPUJu0k0vVPrVruRL-7" style="edgeStyle=none;rounded=0;orthogonalLoop=1;jettySize=auto;html=1;" parent="1" edge="1">
          <mxGeometry relative="1" as="geometry">
            <mxPoint x="550" y="370" as="sourcePoint" />
            <mxPoint x="440" y="370" as="targetPoint" />
            <Array as="points" />
          </mxGeometry>
        </mxCell>
        <mxCell id="ElQSPUJu0k0vVPrVruRL-8" value="&lt;font style=&quot;font-size: 14px;&quot;&gt;response&lt;br&gt;(order_id,pay_types)&lt;br&gt;&lt;/font&gt;" style="text;html=1;resizable=0;autosize=1;align=center;verticalAlign=middle;points=[];fillColor=none;strokeColor=none;rounded=0;fontSize=18;" parent="1" vertex="1">
          <mxGeometry x="420" y="360" width="150" height="60" as="geometry" />
        </mxCell>
        <mxCell id="ElQSPUJu0k0vVPrVruRL-10" style="edgeStyle=none;rounded=0;orthogonalLoop=1;jettySize=auto;html=1;exitX=1;exitY=0.25;exitDx=0;exitDy=0;" parent="1" edge="1">
          <mxGeometry relative="1" as="geometry">
            <mxPoint x="142.5" y="860" as="sourcePoint" />
            <mxPoint x="847.5" y="860" as="targetPoint" />
            <Array as="points">
              <mxPoint x="242.5" y="860" />
            </Array>
          </mxGeometry>
        </mxCell>
        <mxCell id="ElQSPUJu0k0vVPrVruRL-11" value="" style="endArrow=none;html=1;rounded=0;entryX=0.5;entryY=1;entryDx=0;entryDy=0;startArrow=none;" parent="1" target="ElQSPUJu0k0vVPrVruRL-9" edge="1">
          <mxGeometry width="50" height="50" relative="1" as="geometry">
            <mxPoint x="867" y="1090" as="sourcePoint" />
            <mxPoint x="867" y="820" as="targetPoint" />
          </mxGeometry>
        </mxCell>
        <mxCell id="ElQSPUJu0k0vVPrVruRL-12" value="&lt;font style=&quot;font-size: 14px;&quot;&gt;Fill in the account info.&lt;br&gt;&amp;amp; submit it&lt;br&gt;&lt;/font&gt;" style="text;html=1;resizable=0;autosize=1;align=center;verticalAlign=middle;points=[];fillColor=none;strokeColor=none;rounded=0;fontSize=18;" parent="1" vertex="1">
          <mxGeometry x="140" y="850" width="160" height="60" as="geometry" />
        </mxCell>
        <mxCell id="ElQSPUJu0k0vVPrVruRL-13" value="" style="rounded=0;whiteSpace=wrap;html=1;" parent="1" vertex="1">
          <mxGeometry x="555" y="920" width="30" height="170" as="geometry" />
        </mxCell>
        <mxCell id="ElQSPUJu0k0vVPrVruRL-14" value="" style="rounded=0;whiteSpace=wrap;html=1;" parent="1" vertex="1">
          <mxGeometry x="705" y="980" width="30" height="80" as="geometry" />
        </mxCell>
        <mxCell id="ElQSPUJu0k0vVPrVruRL-15" value="" style="endArrow=none;html=1;rounded=0;entryX=0.5;entryY=1;entryDx=0;entryDy=0;" parent="1" target="ElQSPUJu0k0vVPrVruRL-14" edge="1">
          <mxGeometry width="50" height="50" relative="1" as="geometry">
            <mxPoint x="720" y="1280" as="sourcePoint" />
            <mxPoint x="719.5" y="140" as="targetPoint" />
          </mxGeometry>
        </mxCell>
        <mxCell id="ElQSPUJu0k0vVPrVruRL-16" style="edgeStyle=none;rounded=0;orthogonalLoop=1;jettySize=auto;html=1;" parent="1" edge="1">
          <mxGeometry relative="1" as="geometry">
            <mxPoint x="825" y="939.5" as="sourcePoint" />
            <mxPoint x="595" y="939.5" as="targetPoint" />
            <Array as="points">
              <mxPoint x="845" y="939.5" />
              <mxPoint x="825" y="939.5" />
            </Array>
          </mxGeometry>
        </mxCell>
        <mxCell id="ElQSPUJu0k0vVPrVruRL-17" value="&lt;font style=&quot;font-size: 14px;&quot;&gt;callback payment result&lt;br&gt;&lt;br&gt;&lt;/font&gt;" style="text;html=1;resizable=0;autosize=1;align=center;verticalAlign=middle;points=[];fillColor=none;strokeColor=none;rounded=0;fontSize=18;" parent="1" vertex="1">
          <mxGeometry x="690" y="940" width="170" height="60" as="geometry" />
        </mxCell>
        <mxCell id="ElQSPUJu0k0vVPrVruRL-18" style="edgeStyle=none;rounded=0;orthogonalLoop=1;jettySize=auto;html=1;exitX=1;exitY=0.25;exitDx=0;exitDy=0;" parent="1" edge="1">
          <mxGeometry relative="1" as="geometry">
            <mxPoint x="590" y="1000" as="sourcePoint" />
            <mxPoint x="700" y="1000" as="targetPoint" />
          </mxGeometry>
        </mxCell>
        <mxCell id="ElQSPUJu0k0vVPrVruRL-19" value="&lt;span style=&quot;color: rgb(0, 0, 0); font-family: Helvetica; font-size: 14px; font-style: normal; font-variant-ligatures: normal; font-variant-caps: normal; font-weight: 400; letter-spacing: normal; orphans: 2; text-align: center; text-indent: 0px; text-transform: none; widows: 2; word-spacing: 0px; -webkit-text-stroke-width: 0px; background-color: rgb(248, 249, 250); text-decoration-thickness: initial; text-decoration-style: initial; text-decoration-color: initial; float: none; display: inline !important;&quot;&gt;update order status&lt;/span&gt;" style="text;whiteSpace=wrap;html=1;fontSize=10;" parent="1" vertex="1">
          <mxGeometry x="600" y="1000" width="90" height="40" as="geometry" />
        </mxCell>
        <mxCell id="ElQSPUJu0k0vVPrVruRL-20" value="" style="rounded=0;whiteSpace=wrap;html=1;" parent="1" vertex="1">
          <mxGeometry x="245" y="1010" width="30" height="90" as="geometry" />
        </mxCell>
        <mxCell id="ElQSPUJu0k0vVPrVruRL-21" style="edgeStyle=none;rounded=0;orthogonalLoop=1;jettySize=auto;html=1;" parent="1" edge="1">
          <mxGeometry relative="1" as="geometry">
            <mxPoint x="519" y="1030" as="sourcePoint" />
            <mxPoint x="289" y="1030" as="targetPoint" />
            <Array as="points">
              <mxPoint x="539" y="1030" />
              <mxPoint x="519" y="1030" />
            </Array>
          </mxGeometry>
        </mxCell>
        <mxCell id="ElQSPUJu0k0vVPrVruRL-22" value="&lt;font style=&quot;font-size: 14px;&quot;&gt;callback payment result&lt;br&gt;&lt;br&gt;&lt;/font&gt;" style="text;html=1;resizable=0;autosize=1;align=center;verticalAlign=middle;points=[];fillColor=none;strokeColor=none;rounded=0;fontSize=18;" parent="1" vertex="1">
          <mxGeometry x="385" y="1030" width="170" height="60" as="geometry" />
        </mxCell>
        <mxCell id="ElQSPUJu0k0vVPrVruRL-23" value="" style="rounded=0;whiteSpace=wrap;html=1;" parent="1" vertex="1">
          <mxGeometry x="399" y="1100" width="30" height="170" as="geometry" />
        </mxCell>
        <mxCell id="ElQSPUJu0k0vVPrVruRL-24" value="" style="endArrow=none;html=1;rounded=0;entryX=0.5;entryY=1;entryDx=0;entryDy=0;" parent="1" target="ElQSPUJu0k0vVPrVruRL-23" edge="1">
          <mxGeometry width="50" height="50" relative="1" as="geometry">
            <mxPoint x="414" y="1280" as="sourcePoint" />
            <mxPoint x="414" y="550" as="targetPoint" />
          </mxGeometry>
        </mxCell>
        <mxCell id="ElQSPUJu0k0vVPrVruRL-26" value="" style="endArrow=none;html=1;rounded=0;entryX=0.5;entryY=1;entryDx=0;entryDy=0;startArrow=none;" parent="1" edge="1">
          <mxGeometry width="50" height="50" relative="1" as="geometry">
            <mxPoint x="867" y="1290" as="sourcePoint" />
            <mxPoint x="867" y="1270" as="targetPoint" />
          </mxGeometry>
        </mxCell>
        <mxCell id="ElQSPUJu0k0vVPrVruRL-27" style="edgeStyle=none;rounded=0;orthogonalLoop=1;jettySize=auto;html=1;" parent="1" edge="1">
          <mxGeometry relative="1" as="geometry">
            <mxPoint x="670" y="1130" as="sourcePoint" />
            <mxPoint x="440" y="1130" as="targetPoint" />
            <Array as="points">
              <mxPoint x="840" y="1130" />
              <mxPoint x="670" y="1130" />
            </Array>
          </mxGeometry>
        </mxCell>
        <mxCell id="9s-UIVs5GzwC4Q7ToV-j-1" value="&lt;font style=&quot;font-size: 14px;&quot;&gt;jump to return_url&lt;br&gt;&lt;/font&gt;" style="text;html=1;resizable=0;autosize=1;align=center;verticalAlign=middle;points=[];fillColor=none;strokeColor=none;rounded=0;fontSize=18;" parent="1" vertex="1">
          <mxGeometry x="720" y="1129" width="130" height="40" as="geometry" />
        </mxCell>
        <mxCell id="9s-UIVs5GzwC4Q7ToV-j-2" value="" style="rounded=0;whiteSpace=wrap;html=1;" parent="1" vertex="1">
          <mxGeometry x="555" y="1150" width="30" height="90" as="geometry" />
        </mxCell>
        <mxCell id="9s-UIVs5GzwC4Q7ToV-j-3" style="edgeStyle=none;rounded=0;orthogonalLoop=1;jettySize=auto;html=1;exitX=1;exitY=0.25;exitDx=0;exitDy=0;" parent="1" edge="1">
          <mxGeometry relative="1" as="geometry">
            <mxPoint x="440" y="1190" as="sourcePoint" />
            <mxPoint x="550" y="1190" as="targetPoint" />
          </mxGeometry>
        </mxCell>
        <mxCell id="9s-UIVs5GzwC4Q7ToV-j-4" value="&lt;span style=&quot;color: rgb(0, 0, 0); font-family: Helvetica; font-size: 14px; font-style: normal; font-variant-ligatures: normal; font-variant-caps: normal; font-weight: 400; letter-spacing: normal; orphans: 2; text-align: center; text-indent: 0px; text-transform: none; widows: 2; word-spacing: 0px; -webkit-text-stroke-width: 0px; background-color: rgb(248, 249, 250); text-decoration-thickness: initial; text-decoration-style: initial; text-decoration-color: initial; float: none; display: inline !important;&quot;&gt;polling order status&lt;/span&gt;" style="text;whiteSpace=wrap;html=1;fontSize=10;" parent="1" vertex="1">
          <mxGeometry x="450" y="1190" width="90" height="40" as="geometry" />
        </mxCell>
        <mxCell id="9s-UIVs5GzwC4Q7ToV-j-5" value="" style="rounded=0;whiteSpace=wrap;html=1;" parent="1" vertex="1">
          <mxGeometry x="245" y="1180" width="30" height="90" as="geometry" />
        </mxCell>
        <mxCell id="9s-UIVs5GzwC4Q7ToV-j-6" value="" style="endArrow=none;html=1;rounded=0;entryX=0.5;entryY=1;entryDx=0;entryDy=0;" parent="1" target="9s-UIVs5GzwC4Q7ToV-j-5" edge="1">
          <mxGeometry width="50" height="50" relative="1" as="geometry">
            <mxPoint x="260" y="1280" as="sourcePoint" />
            <mxPoint x="259.5" y="140" as="targetPoint" />
          </mxGeometry>
        </mxCell>
        <mxCell id="9s-UIVs5GzwC4Q7ToV-j-7" style="edgeStyle=none;rounded=0;orthogonalLoop=1;jettySize=auto;html=1;" parent="1" edge="1">
          <mxGeometry relative="1" as="geometry">
            <mxPoint x="395" y="1224.5" as="sourcePoint" />
            <mxPoint x="285" y="1224.5" as="targetPoint" />
            <Array as="points" />
          </mxGeometry>
        </mxCell>
        <mxCell id="9s-UIVs5GzwC4Q7ToV-j-8" value="&lt;font style=&quot;font-size: 14px;&quot;&gt;return to game&lt;br&gt;&lt;/font&gt;" style="text;html=1;resizable=0;autosize=1;align=center;verticalAlign=middle;points=[];fillColor=none;strokeColor=none;rounded=0;fontSize=18;" parent="1" vertex="1">
          <mxGeometry x="285" y="1215" width="110" height="40" as="geometry" />
        </mxCell>
        <mxCell id="ElQSPUJu0k0vVPrVruRL-9" value="" style="rounded=0;whiteSpace=wrap;html=1;" parent="1" vertex="1">
          <mxGeometry x="852" y="840" width="30" height="430" as="geometry" />
        </mxCell>
        <mxCell id="KViRH-Rk5z1py82ypwF5-1" value="&lt;font style=&quot;font-size: 14px;&quot;&gt;create_order&lt;br&gt;(params: amount,&amp;nbsp;&lt;br&gt;mch_id,user_id...)&lt;br&gt;&lt;/font&gt;" style="text;html=1;resizable=0;autosize=1;align=center;verticalAlign=middle;points=[];fillColor=none;strokeColor=none;rounded=0;fontSize=18;" vertex="1" parent="1">
          <mxGeometry x="425" y="270" width="140" height="80" as="geometry" />
        </mxCell>
        <mxCell id="KViRH-Rk5z1py82ypwF5-3" value="" style="rounded=0;whiteSpace=wrap;html=1;" vertex="1" parent="1">
          <mxGeometry x="705" y="310" width="30" height="80" as="geometry" />
        </mxCell>
        <mxCell id="KViRH-Rk5z1py82ypwF5-4" value="" style="endArrow=none;html=1;rounded=0;entryX=0.5;entryY=1;entryDx=0;entryDy=0;startArrow=none;" edge="1" parent="1" source="ElQSPUJu0k0vVPrVruRL-14" target="KViRH-Rk5z1py82ypwF5-3">
          <mxGeometry width="50" height="50" relative="1" as="geometry">
            <mxPoint x="719.9772727272725" y="980" as="sourcePoint" />
            <mxPoint x="719.5" y="140" as="targetPoint" />
          </mxGeometry>
        </mxCell>
        <mxCell id="KViRH-Rk5z1py82ypwF5-5" style="edgeStyle=none;rounded=0;orthogonalLoop=1;jettySize=auto;html=1;exitX=1;exitY=0.25;exitDx=0;exitDy=0;" edge="1" parent="1">
          <mxGeometry relative="1" as="geometry">
            <mxPoint x="595" y="329.5" as="sourcePoint" />
            <mxPoint x="705" y="329.5" as="targetPoint" />
          </mxGeometry>
        </mxCell>
        <mxCell id="KViRH-Rk5z1py82ypwF5-6" value="&lt;span style=&quot;color: rgb(0, 0, 0); font-family: Helvetica; font-size: 14px; font-style: normal; font-variant-ligatures: normal; font-variant-caps: normal; font-weight: 400; letter-spacing: normal; orphans: 2; text-align: center; text-indent: 0px; text-transform: none; widows: 2; word-spacing: 0px; -webkit-text-stroke-width: 0px; background-color: rgb(248, 249, 250); text-decoration-thickness: initial; text-decoration-style: initial; text-decoration-color: initial; float: none; display: inline !important;&quot;&gt;record order&lt;/span&gt;" style="text;whiteSpace=wrap;html=1;fontSize=10;" vertex="1" parent="1">
          <mxGeometry x="600" y="330" width="90" height="40" as="geometry" />
        </mxCell>
        <mxCell id="qx8lSgY3FJgU8UZLdKn6-31" value="" style="rounded=0;whiteSpace=wrap;html=1;" parent="1" vertex="1">
          <mxGeometry x="705" y="577" width="30" height="80" as="geometry" />
        </mxCell>
      </root>
    </mxGraphModel>
  </diagram>
  <diagram id="0nQRgiIaoNibAWqdbD_k" name="數據平台報表生成">
    <mxGraphModel dx="946" dy="517" grid="1" gridSize="10" guides="1" tooltips="1" connect="1" arrows="1" fold="1" page="1" pageScale="1" pageWidth="827" pageHeight="1169" math="0" shadow="0">
      <root>
        <mxCell id="0" />
        <mxCell id="1" parent="0" />
        <mxCell id="HShmz5Oxjh6kWvzX-_9a-1" style="edgeStyle=orthogonalEdgeStyle;rounded=0;orthogonalLoop=1;jettySize=auto;html=1;exitX=0.25;exitY=1;exitDx=0;exitDy=0;entryX=0.5;entryY=0;entryDx=0;entryDy=0;" parent="1" source="HShmz5Oxjh6kWvzX-_9a-3" target="HShmz5Oxjh6kWvzX-_9a-14" edge="1">
          <mxGeometry relative="1" as="geometry" />
        </mxCell>
        <mxCell id="HShmz5Oxjh6kWvzX-_9a-2" style="edgeStyle=orthogonalEdgeStyle;rounded=0;orthogonalLoop=1;jettySize=auto;html=1;exitX=0.75;exitY=1;exitDx=0;exitDy=0;entryX=0.5;entryY=0;entryDx=0;entryDy=0;" parent="1" source="HShmz5Oxjh6kWvzX-_9a-3" target="HShmz5Oxjh6kWvzX-_9a-22" edge="1">
          <mxGeometry relative="1" as="geometry" />
        </mxCell>
        <mxCell id="HShmz5Oxjh6kWvzX-_9a-3" value="报表生成" style="rounded=1;whiteSpace=wrap;html=1;fontSize=12;glass=0;strokeWidth=1;shadow=0;fillColor=#F7FF12;" parent="1" vertex="1">
          <mxGeometry x="360" y="80" width="120" height="40" as="geometry" />
        </mxCell>
        <mxCell id="HShmz5Oxjh6kWvzX-_9a-4" style="edgeStyle=orthogonalEdgeStyle;rounded=0;orthogonalLoop=1;jettySize=auto;html=1;exitX=0.25;exitY=1;exitDx=0;exitDy=0;entryX=0;entryY=0.5;entryDx=0;entryDy=0;elbow=vertical;" parent="1" source="HShmz5Oxjh6kWvzX-_9a-14" target="HShmz5Oxjh6kWvzX-_9a-15" edge="1">
          <mxGeometry relative="1" as="geometry" />
        </mxCell>
        <mxCell id="HShmz5Oxjh6kWvzX-_9a-5" style="edgeStyle=orthogonalEdgeStyle;rounded=0;orthogonalLoop=1;jettySize=auto;html=1;exitX=0.25;exitY=1;exitDx=0;exitDy=0;entryX=0;entryY=0.5;entryDx=0;entryDy=0;elbow=vertical;" parent="1" source="HShmz5Oxjh6kWvzX-_9a-14" target="HShmz5Oxjh6kWvzX-_9a-23" edge="1">
          <mxGeometry relative="1" as="geometry" />
        </mxCell>
        <mxCell id="HShmz5Oxjh6kWvzX-_9a-6" style="edgeStyle=orthogonalEdgeStyle;rounded=0;orthogonalLoop=1;jettySize=auto;html=1;exitX=0.25;exitY=1;exitDx=0;exitDy=0;entryX=0;entryY=0.5;entryDx=0;entryDy=0;elbow=vertical;" parent="1" source="HShmz5Oxjh6kWvzX-_9a-14" target="HShmz5Oxjh6kWvzX-_9a-25" edge="1">
          <mxGeometry relative="1" as="geometry" />
        </mxCell>
        <mxCell id="HShmz5Oxjh6kWvzX-_9a-7" style="edgeStyle=orthogonalEdgeStyle;rounded=0;orthogonalLoop=1;jettySize=auto;html=1;exitX=0.25;exitY=1;exitDx=0;exitDy=0;entryX=0;entryY=0.5;entryDx=0;entryDy=0;elbow=vertical;" parent="1" source="HShmz5Oxjh6kWvzX-_9a-14" target="HShmz5Oxjh6kWvzX-_9a-24" edge="1">
          <mxGeometry relative="1" as="geometry" />
        </mxCell>
        <mxCell id="HShmz5Oxjh6kWvzX-_9a-8" style="edgeStyle=orthogonalEdgeStyle;rounded=0;orthogonalLoop=1;jettySize=auto;html=1;exitX=0.25;exitY=1;exitDx=0;exitDy=0;entryX=0;entryY=0.5;entryDx=0;entryDy=0;elbow=vertical;" parent="1" source="HShmz5Oxjh6kWvzX-_9a-14" target="HShmz5Oxjh6kWvzX-_9a-26" edge="1">
          <mxGeometry relative="1" as="geometry" />
        </mxCell>
        <mxCell id="HShmz5Oxjh6kWvzX-_9a-9" style="edgeStyle=orthogonalEdgeStyle;rounded=0;orthogonalLoop=1;jettySize=auto;html=1;exitX=0.25;exitY=1;exitDx=0;exitDy=0;entryX=0;entryY=0.5;entryDx=0;entryDy=0;elbow=vertical;" parent="1" source="HShmz5Oxjh6kWvzX-_9a-14" target="HShmz5Oxjh6kWvzX-_9a-27" edge="1">
          <mxGeometry relative="1" as="geometry" />
        </mxCell>
        <mxCell id="HShmz5Oxjh6kWvzX-_9a-10" style="edgeStyle=orthogonalEdgeStyle;rounded=0;orthogonalLoop=1;jettySize=auto;html=1;exitX=0.25;exitY=1;exitDx=0;exitDy=0;entryX=0;entryY=0.5;entryDx=0;entryDy=0;elbow=vertical;" parent="1" source="HShmz5Oxjh6kWvzX-_9a-14" target="HShmz5Oxjh6kWvzX-_9a-28" edge="1">
          <mxGeometry relative="1" as="geometry" />
        </mxCell>
        <mxCell id="HShmz5Oxjh6kWvzX-_9a-11" style="edgeStyle=orthogonalEdgeStyle;rounded=0;orthogonalLoop=1;jettySize=auto;html=1;exitX=0.25;exitY=1;exitDx=0;exitDy=0;entryX=0;entryY=0.5;entryDx=0;entryDy=0;elbow=vertical;" parent="1" source="HShmz5Oxjh6kWvzX-_9a-14" target="HShmz5Oxjh6kWvzX-_9a-30" edge="1">
          <mxGeometry relative="1" as="geometry" />
        </mxCell>
        <mxCell id="HShmz5Oxjh6kWvzX-_9a-12" style="edgeStyle=orthogonalEdgeStyle;rounded=0;orthogonalLoop=1;jettySize=auto;html=1;exitX=0.25;exitY=1;exitDx=0;exitDy=0;entryX=0;entryY=0.5;entryDx=0;entryDy=0;elbow=vertical;" parent="1" source="HShmz5Oxjh6kWvzX-_9a-14" target="HShmz5Oxjh6kWvzX-_9a-29" edge="1">
          <mxGeometry relative="1" as="geometry" />
        </mxCell>
        <mxCell id="HShmz5Oxjh6kWvzX-_9a-13" style="edgeStyle=orthogonalEdgeStyle;rounded=0;orthogonalLoop=1;jettySize=auto;html=1;exitX=0.25;exitY=1;exitDx=0;exitDy=0;entryX=0;entryY=0.5;entryDx=0;entryDy=0;elbow=vertical;" parent="1" source="HShmz5Oxjh6kWvzX-_9a-14" target="HShmz5Oxjh6kWvzX-_9a-31" edge="1">
          <mxGeometry relative="1" as="geometry" />
        </mxCell>
        <mxCell id="HShmz5Oxjh6kWvzX-_9a-14" value="Base Event" style="rounded=1;whiteSpace=wrap;html=1;fontSize=12;glass=0;strokeWidth=1;shadow=0;fillColor=#BFFF94;" parent="1" vertex="1">
          <mxGeometry x="176" y="160" width="120" height="40" as="geometry" />
        </mxCell>
        <mxCell id="HShmz5Oxjh6kWvzX-_9a-15" value="Registrt" style="rounded=1;whiteSpace=wrap;html=1;fontSize=12;glass=0;strokeWidth=1;shadow=0;fillColor=#5CFFEF;" parent="1" vertex="1">
          <mxGeometry x="244" y="210" width="120" height="20" as="geometry" />
        </mxCell>
        <mxCell id="HShmz5Oxjh6kWvzX-_9a-16" style="edgeStyle=orthogonalEdgeStyle;rounded=0;orthogonalLoop=1;jettySize=auto;html=1;exitX=0.25;exitY=1;exitDx=0;exitDy=0;entryX=0;entryY=0.5;entryDx=0;entryDy=0;elbow=vertical;" parent="1" source="HShmz5Oxjh6kWvzX-_9a-22" target="HShmz5Oxjh6kWvzX-_9a-32" edge="1">
          <mxGeometry relative="1" as="geometry" />
        </mxCell>
        <mxCell id="HShmz5Oxjh6kWvzX-_9a-17" style="edgeStyle=orthogonalEdgeStyle;rounded=0;orthogonalLoop=1;jettySize=auto;html=1;exitX=0.25;exitY=1;exitDx=0;exitDy=0;entryX=0;entryY=0.5;entryDx=0;entryDy=0;elbow=vertical;" parent="1" source="HShmz5Oxjh6kWvzX-_9a-22" target="HShmz5Oxjh6kWvzX-_9a-33" edge="1">
          <mxGeometry relative="1" as="geometry" />
        </mxCell>
        <mxCell id="HShmz5Oxjh6kWvzX-_9a-18" style="edgeStyle=orthogonalEdgeStyle;rounded=0;orthogonalLoop=1;jettySize=auto;html=1;exitX=0.25;exitY=1;exitDx=0;exitDy=0;entryX=0;entryY=0.5;entryDx=0;entryDy=0;elbow=vertical;" parent="1" source="HShmz5Oxjh6kWvzX-_9a-22" target="HShmz5Oxjh6kWvzX-_9a-35" edge="1">
          <mxGeometry relative="1" as="geometry" />
        </mxCell>
        <mxCell id="HShmz5Oxjh6kWvzX-_9a-19" style="edgeStyle=orthogonalEdgeStyle;rounded=0;orthogonalLoop=1;jettySize=auto;html=1;exitX=0.25;exitY=1;exitDx=0;exitDy=0;entryX=0;entryY=0.5;entryDx=0;entryDy=0;elbow=vertical;" parent="1" source="HShmz5Oxjh6kWvzX-_9a-22" target="HShmz5Oxjh6kWvzX-_9a-34" edge="1">
          <mxGeometry relative="1" as="geometry" />
        </mxCell>
        <mxCell id="HShmz5Oxjh6kWvzX-_9a-20" style="edgeStyle=orthogonalEdgeStyle;rounded=0;orthogonalLoop=1;jettySize=auto;html=1;exitX=0.25;exitY=1;exitDx=0;exitDy=0;entryX=0;entryY=0.5;entryDx=0;entryDy=0;elbow=vertical;" parent="1" source="HShmz5Oxjh6kWvzX-_9a-22" target="HShmz5Oxjh6kWvzX-_9a-36" edge="1">
          <mxGeometry relative="1" as="geometry" />
        </mxCell>
        <mxCell id="HShmz5Oxjh6kWvzX-_9a-21" style="edgeStyle=orthogonalEdgeStyle;rounded=0;orthogonalLoop=1;jettySize=auto;html=1;exitX=0.25;exitY=1;exitDx=0;exitDy=0;entryX=0;entryY=0.5;entryDx=0;entryDy=0;elbow=vertical;" parent="1" source="HShmz5Oxjh6kWvzX-_9a-22" target="HShmz5Oxjh6kWvzX-_9a-37" edge="1">
          <mxGeometry relative="1" as="geometry" />
        </mxCell>
        <mxCell id="HShmz5Oxjh6kWvzX-_9a-22" value="Extra Report" style="rounded=1;whiteSpace=wrap;html=1;fontSize=12;glass=0;strokeWidth=1;shadow=0;fillColor=#BFFF94;" parent="1" vertex="1">
          <mxGeometry x="506" y="160" width="120" height="40" as="geometry" />
        </mxCell>
        <mxCell id="HShmz5Oxjh6kWvzX-_9a-23" value="Bind" style="rounded=1;whiteSpace=wrap;html=1;fontSize=12;glass=0;strokeWidth=1;shadow=0;fillColor=#5CFFEF;" parent="1" vertex="1">
          <mxGeometry x="244" y="240" width="120" height="20" as="geometry" />
        </mxCell>
        <mxCell id="HShmz5Oxjh6kWvzX-_9a-24" value="RechargeApply" style="rounded=1;whiteSpace=wrap;html=1;fontSize=12;glass=0;strokeWidth=1;shadow=0;fillColor=#5CFFEF;" parent="1" vertex="1">
          <mxGeometry x="244" y="300" width="120" height="20" as="geometry" />
        </mxCell>
        <mxCell id="HShmz5Oxjh6kWvzX-_9a-25" value="Active" style="rounded=1;whiteSpace=wrap;html=1;fontSize=12;glass=0;strokeWidth=1;shadow=0;fillColor=#5CFFEF;" parent="1" vertex="1">
          <mxGeometry x="244" y="270" width="120" height="20" as="geometry" />
        </mxCell>
        <mxCell id="HShmz5Oxjh6kWvzX-_9a-26" value="RechargeSuccess" style="rounded=1;whiteSpace=wrap;html=1;fontSize=12;glass=0;strokeWidth=1;shadow=0;fillColor=#5CFFEF;" parent="1" vertex="1">
          <mxGeometry x="244" y="330" width="120" height="20" as="geometry" />
        </mxCell>
        <mxCell id="HShmz5Oxjh6kWvzX-_9a-27" value="WithdrawSuccess" style="rounded=1;whiteSpace=wrap;html=1;fontSize=12;glass=0;strokeWidth=1;shadow=0;fillColor=#5CFFEF;" parent="1" vertex="1">
          <mxGeometry x="244" y="360" width="120" height="20" as="geometry" />
        </mxCell>
        <mxCell id="HShmz5Oxjh6kWvzX-_9a-28" value="WithdrawForbidden" style="rounded=1;whiteSpace=wrap;html=1;fontSize=12;glass=0;strokeWidth=1;shadow=0;fillColor=#5CFFEF;" parent="1" vertex="1">
          <mxGeometry x="244" y="390" width="120" height="20" as="geometry" />
        </mxCell>
        <mxCell id="HShmz5Oxjh6kWvzX-_9a-29" value="BetOrder" style="rounded=1;whiteSpace=wrap;html=1;fontSize=12;glass=0;strokeWidth=1;shadow=0;fillColor=#5CFFEF;" parent="1" vertex="1">
          <mxGeometry x="244" y="450" width="120" height="20" as="geometry" />
        </mxCell>
        <mxCell id="HShmz5Oxjh6kWvzX-_9a-30" value="PlatformAward" style="rounded=1;whiteSpace=wrap;html=1;fontSize=12;glass=0;strokeWidth=1;shadow=0;fillColor=#5CFFEF;" parent="1" vertex="1">
          <mxGeometry x="244" y="420" width="120" height="20" as="geometry" />
        </mxCell>
        <mxCell id="HShmz5Oxjh6kWvzX-_9a-31" value="GameLogin" style="rounded=1;whiteSpace=wrap;html=1;fontSize=12;glass=0;strokeWidth=1;shadow=0;fillColor=#5CFFEF;" parent="1" vertex="1">
          <mxGeometry x="244" y="480" width="120" height="20" as="geometry" />
        </mxCell>
        <mxCell id="HShmz5Oxjh6kWvzX-_9a-32" value="user_bet" style="rounded=1;whiteSpace=wrap;html=1;fontSize=12;glass=0;strokeWidth=1;shadow=0;fillColor=#5CFFEF;" parent="1" vertex="1">
          <mxGeometry x="576" y="210" width="120" height="20" as="geometry" />
        </mxCell>
        <mxCell id="HShmz5Oxjh6kWvzX-_9a-33" value="user_recharge" style="rounded=1;whiteSpace=wrap;html=1;fontSize=12;glass=0;strokeWidth=1;shadow=0;fillColor=#5CFFEF;" parent="1" vertex="1">
          <mxGeometry x="576" y="240" width="120" height="20" as="geometry" />
        </mxCell>
        <mxCell id="HShmz5Oxjh6kWvzX-_9a-34" value="bet_range" style="rounded=1;whiteSpace=wrap;html=1;fontSize=12;glass=0;strokeWidth=1;shadow=0;fillColor=#5CFFEF;" parent="1" vertex="1">
          <mxGeometry x="576" y="300" width="120" height="20" as="geometry" />
        </mxCell>
        <mxCell id="HShmz5Oxjh6kWvzX-_9a-35" value="active_user" style="rounded=1;whiteSpace=wrap;html=1;fontSize=12;glass=0;strokeWidth=1;shadow=0;fillColor=#5CFFEF;" parent="1" vertex="1">
          <mxGeometry x="576" y="270" width="120" height="20" as="geometry" />
        </mxCell>
        <mxCell id="HShmz5Oxjh6kWvzX-_9a-36" value="recharge_range" style="rounded=1;whiteSpace=wrap;html=1;fontSize=12;glass=0;strokeWidth=1;shadow=0;fillColor=#5CFFEF;" parent="1" vertex="1">
          <mxGeometry x="576" y="330" width="120" height="20" as="geometry" />
        </mxCell>
        <mxCell id="HShmz5Oxjh6kWvzX-_9a-37" value="continuous_recharge" style="rounded=1;whiteSpace=wrap;html=1;fontSize=12;glass=0;strokeWidth=1;shadow=0;fillColor=#5CFFEF;" parent="1" vertex="1">
          <mxGeometry x="576" y="360" width="120" height="20" as="geometry" />
        </mxCell>
      </root>
    </mxGraphModel>
  </diagram>
  <diagram id="OKpP5DfgcP6QouAxUaC8" name="數據平台digest程式架構">
    <mxGraphModel dx="1426" dy="697" grid="1" gridSize="10" guides="1" tooltips="1" connect="1" arrows="1" fold="1" page="1" pageScale="1" pageWidth="827" pageHeight="1169" math="0" shadow="0">
      <root>
        <mxCell id="0" />
        <mxCell id="1" parent="0" />
        <mxCell id="j0LxTd15q2ZY2LEIXLAE-1" style="edgeStyle=orthogonalEdgeStyle;rounded=0;orthogonalLoop=1;jettySize=auto;html=1;exitX=0.25;exitY=1;exitDx=0;exitDy=0;entryX=0;entryY=0.5;entryDx=0;entryDy=0;elbow=vertical;" edge="1" parent="1" source="j0LxTd15q2ZY2LEIXLAE-6" target="j0LxTd15q2ZY2LEIXLAE-7">
          <mxGeometry relative="1" as="geometry" />
        </mxCell>
        <mxCell id="j0LxTd15q2ZY2LEIXLAE-2" style="edgeStyle=orthogonalEdgeStyle;rounded=0;orthogonalLoop=1;jettySize=auto;html=1;exitX=0.25;exitY=1;exitDx=0;exitDy=0;entryX=0;entryY=0.5;entryDx=0;entryDy=0;elbow=vertical;" edge="1" parent="1" source="j0LxTd15q2ZY2LEIXLAE-6" target="j0LxTd15q2ZY2LEIXLAE-8">
          <mxGeometry relative="1" as="geometry" />
        </mxCell>
        <mxCell id="j0LxTd15q2ZY2LEIXLAE-3" style="edgeStyle=orthogonalEdgeStyle;rounded=0;orthogonalLoop=1;jettySize=auto;html=1;exitX=0.25;exitY=1;exitDx=0;exitDy=0;entryX=0;entryY=0.5;entryDx=0;entryDy=0;elbow=vertical;" edge="1" parent="1" source="j0LxTd15q2ZY2LEIXLAE-6" target="j0LxTd15q2ZY2LEIXLAE-9">
          <mxGeometry relative="1" as="geometry" />
        </mxCell>
        <mxCell id="j0LxTd15q2ZY2LEIXLAE-4" style="edgeStyle=orthogonalEdgeStyle;rounded=0;orthogonalLoop=1;jettySize=auto;html=1;exitX=0.25;exitY=1;exitDx=0;exitDy=0;entryX=0;entryY=0.5;entryDx=0;entryDy=0;elbow=vertical;" edge="1" parent="1" source="j0LxTd15q2ZY2LEIXLAE-6" target="j0LxTd15q2ZY2LEIXLAE-10">
          <mxGeometry relative="1" as="geometry" />
        </mxCell>
        <mxCell id="j0LxTd15q2ZY2LEIXLAE-5" style="edgeStyle=orthogonalEdgeStyle;rounded=0;orthogonalLoop=1;jettySize=auto;html=1;exitX=0.25;exitY=1;exitDx=0;exitDy=0;entryX=0;entryY=0.5;entryDx=0;entryDy=0;elbow=vertical;" edge="1" parent="1" source="j0LxTd15q2ZY2LEIXLAE-6" target="j0LxTd15q2ZY2LEIXLAE-11">
          <mxGeometry relative="1" as="geometry" />
        </mxCell>
        <mxCell id="j0LxTd15q2ZY2LEIXLAE-6" value="Digestion" style="rounded=1;whiteSpace=wrap;html=1;fontSize=12;glass=0;strokeWidth=1;shadow=0;fillColor=#F7FF12;" vertex="1" parent="1">
          <mxGeometry x="120" y="80" width="120" height="40" as="geometry" />
        </mxCell>
        <mxCell id="j0LxTd15q2ZY2LEIXLAE-7" value="gis&lt;br&gt;&lt;span style=&quot;font-family: monospace; text-align: left;&quot;&gt;公司基础通用框架&lt;/span&gt;" style="rounded=1;whiteSpace=wrap;html=1;fontSize=12;glass=0;strokeWidth=1;shadow=0;fillColor=#F7FF12;" vertex="1" parent="1">
          <mxGeometry x="200" y="130" width="120" height="40" as="geometry" />
        </mxCell>
        <mxCell id="j0LxTd15q2ZY2LEIXLAE-8" value="common&lt;br&gt;&lt;span style=&quot;font-family: monospace; text-align: left;&quot;&gt;通用代码&lt;/span&gt;" style="rounded=1;whiteSpace=wrap;html=1;fontSize=12;glass=0;strokeWidth=1;shadow=0;fillColor=#F7FF12;" vertex="1" parent="1">
          <mxGeometry x="200" y="190" width="120" height="40" as="geometry" />
        </mxCell>
        <mxCell id="j0LxTd15q2ZY2LEIXLAE-9" value="game_common&lt;br&gt;&lt;span style=&quot;font-family: monospace; text-align: left;&quot;&gt;各平台通用代码&lt;/span&gt;" style="rounded=1;whiteSpace=wrap;html=1;fontSize=12;glass=0;strokeWidth=1;shadow=0;fillColor=#F7FF12;" vertex="1" parent="1">
          <mxGeometry x="201" y="249" width="120" height="40" as="geometry" />
        </mxCell>
        <mxCell id="j0LxTd15q2ZY2LEIXLAE-10" value="game&lt;br&gt;&lt;span style=&quot;font-family: monospace; text-align: left;&quot;&gt;各平台代码&lt;/span&gt;" style="rounded=1;whiteSpace=wrap;html=1;fontSize=12;glass=0;strokeWidth=1;shadow=0;fillColor=#F7FF12;" vertex="1" parent="1">
          <mxGeometry x="201" y="309" width="120" height="40" as="geometry" />
        </mxCell>
        <mxCell id="j0LxTd15q2ZY2LEIXLAE-11" value="main&lt;br&gt;&lt;span style=&quot;font-family: monospace; text-align: left;&quot;&gt;所有指令入口&lt;/span&gt;" style="rounded=1;whiteSpace=wrap;html=1;fontSize=12;glass=0;strokeWidth=1;shadow=0;fillColor=#F7FF12;" vertex="1" parent="1">
          <mxGeometry x="200" y="370" width="120" height="40" as="geometry" />
        </mxCell>
      </root>
    </mxGraphModel>
  </diagram>
  <diagram id="WQ8pvlnTt7CRym55hwKU" name="數據平台digest程式架構1">
    <mxGraphModel dx="1426" dy="697" grid="1" gridSize="10" guides="1" tooltips="1" connect="1" arrows="1" fold="1" page="1" pageScale="1" pageWidth="827" pageHeight="1169" math="0" shadow="0">
      <root>
        <mxCell id="0" />
        <mxCell id="1" parent="0" />
        <mxCell id="ueSRf5qQ5hVV3v4eNCJv-1" style="edgeStyle=orthogonalEdgeStyle;rounded=0;orthogonalLoop=1;jettySize=auto;html=1;exitX=0.25;exitY=1;exitDx=0;exitDy=0;entryX=0;entryY=0.5;entryDx=0;entryDy=0;elbow=vertical;" edge="1" parent="1" source="ueSRf5qQ5hVV3v4eNCJv-6" target="ueSRf5qQ5hVV3v4eNCJv-9">
          <mxGeometry relative="1" as="geometry" />
        </mxCell>
        <mxCell id="ueSRf5qQ5hVV3v4eNCJv-2" style="edgeStyle=orthogonalEdgeStyle;rounded=0;orthogonalLoop=1;jettySize=auto;html=1;exitX=0.25;exitY=1;exitDx=0;exitDy=0;entryX=0;entryY=0.5;entryDx=0;entryDy=0;elbow=vertical;" edge="1" parent="1" source="ueSRf5qQ5hVV3v4eNCJv-6" target="ueSRf5qQ5hVV3v4eNCJv-10">
          <mxGeometry relative="1" as="geometry" />
        </mxCell>
        <mxCell id="ueSRf5qQ5hVV3v4eNCJv-3" style="edgeStyle=orthogonalEdgeStyle;rounded=0;orthogonalLoop=1;jettySize=auto;html=1;exitX=0.25;exitY=1;exitDx=0;exitDy=0;entryX=0;entryY=0.5;entryDx=0;entryDy=0;elbow=vertical;" edge="1" parent="1" source="ueSRf5qQ5hVV3v4eNCJv-6" target="ueSRf5qQ5hVV3v4eNCJv-11">
          <mxGeometry relative="1" as="geometry" />
        </mxCell>
        <mxCell id="ueSRf5qQ5hVV3v4eNCJv-4" style="edgeStyle=orthogonalEdgeStyle;rounded=0;orthogonalLoop=1;jettySize=auto;html=1;exitX=0.25;exitY=1;exitDx=0;exitDy=0;entryX=0;entryY=0.5;entryDx=0;entryDy=0;elbow=vertical;" edge="1" parent="1" source="ueSRf5qQ5hVV3v4eNCJv-6" target="ueSRf5qQ5hVV3v4eNCJv-12">
          <mxGeometry relative="1" as="geometry" />
        </mxCell>
        <mxCell id="ueSRf5qQ5hVV3v4eNCJv-5" style="edgeStyle=orthogonalEdgeStyle;rounded=0;orthogonalLoop=1;jettySize=auto;html=1;exitX=0.25;exitY=1;exitDx=0;exitDy=0;entryX=0;entryY=0.5;entryDx=0;entryDy=0;elbow=vertical;" edge="1" parent="1" source="ueSRf5qQ5hVV3v4eNCJv-6" target="ueSRf5qQ5hVV3v4eNCJv-13">
          <mxGeometry relative="1" as="geometry" />
        </mxCell>
        <mxCell id="ueSRf5qQ5hVV3v4eNCJv-6" value="Digestion" style="rounded=1;whiteSpace=wrap;html=1;fontSize=12;glass=0;strokeWidth=1;shadow=0;fillColor=#F7FF12;" vertex="1" parent="1">
          <mxGeometry x="120" y="80" width="120" height="40" as="geometry" />
        </mxCell>
        <mxCell id="ueSRf5qQ5hVV3v4eNCJv-7" style="edgeStyle=orthogonalEdgeStyle;rounded=0;orthogonalLoop=1;jettySize=auto;html=1;exitX=1;exitY=0.5;exitDx=0;exitDy=0;fontSize=14;elbow=vertical;" edge="1" parent="1" source="ueSRf5qQ5hVV3v4eNCJv-9" target="ueSRf5qQ5hVV3v4eNCJv-14">
          <mxGeometry relative="1" as="geometry" />
        </mxCell>
        <mxCell id="ueSRf5qQ5hVV3v4eNCJv-8" style="edgeStyle=orthogonalEdgeStyle;rounded=0;orthogonalLoop=1;jettySize=auto;html=1;exitX=1;exitY=0.5;exitDx=0;exitDy=0;entryX=0;entryY=0.5;entryDx=0;entryDy=0;fontSize=14;elbow=vertical;" edge="1" parent="1" source="ueSRf5qQ5hVV3v4eNCJv-9" target="ueSRf5qQ5hVV3v4eNCJv-15">
          <mxGeometry relative="1" as="geometry" />
        </mxCell>
        <mxCell id="ueSRf5qQ5hVV3v4eNCJv-9" value="gis&lt;br&gt;&lt;span style=&quot;font-family: monospace; text-align: left;&quot;&gt;公司基础通用框架&lt;/span&gt;" style="rounded=1;whiteSpace=wrap;html=1;fontSize=12;glass=0;strokeWidth=1;shadow=0;fillColor=#FF5A54;" vertex="1" parent="1">
          <mxGeometry x="200" y="130" width="120" height="40" as="geometry" />
        </mxCell>
        <mxCell id="ueSRf5qQ5hVV3v4eNCJv-10" value="common&lt;br&gt;&lt;span style=&quot;font-family: monospace; text-align: left;&quot;&gt;通用代码&lt;/span&gt;" style="rounded=1;whiteSpace=wrap;html=1;fontSize=12;glass=0;strokeWidth=1;shadow=0;fillColor=#F7FF12;" vertex="1" parent="1">
          <mxGeometry x="200" y="190" width="120" height="40" as="geometry" />
        </mxCell>
        <mxCell id="ueSRf5qQ5hVV3v4eNCJv-11" value="game_common&lt;br&gt;&lt;span style=&quot;font-family: monospace; text-align: left;&quot;&gt;各平台通用代码&lt;/span&gt;" style="rounded=1;whiteSpace=wrap;html=1;fontSize=12;glass=0;strokeWidth=1;shadow=0;fillColor=#F7FF12;" vertex="1" parent="1">
          <mxGeometry x="201" y="249" width="120" height="40" as="geometry" />
        </mxCell>
        <mxCell id="ueSRf5qQ5hVV3v4eNCJv-12" value="game&lt;br&gt;&lt;span style=&quot;font-family: monospace; text-align: left;&quot;&gt;各平台代码&lt;/span&gt;" style="rounded=1;whiteSpace=wrap;html=1;fontSize=12;glass=0;strokeWidth=1;shadow=0;fillColor=#F7FF12;" vertex="1" parent="1">
          <mxGeometry x="201" y="309" width="120" height="40" as="geometry" />
        </mxCell>
        <mxCell id="ueSRf5qQ5hVV3v4eNCJv-13" value="main&lt;br&gt;&lt;span style=&quot;font-family: monospace; text-align: left;&quot;&gt;所有指令入口&lt;/span&gt;" style="rounded=1;whiteSpace=wrap;html=1;fontSize=12;glass=0;strokeWidth=1;shadow=0;fillColor=#F7FF12;" vertex="1" parent="1">
          <mxGeometry x="200" y="370" width="120" height="40" as="geometry" />
        </mxCell>
        <mxCell id="ueSRf5qQ5hVV3v4eNCJv-14" value="&lt;span style=&quot;font-family: monospace; text-align: left;&quot;&gt;&lt;font style=&quot;font-size: 14px;&quot;&gt;公司基础通用框架&lt;/font&gt;&lt;/span&gt;" style="rounded=1;whiteSpace=wrap;html=1;fontSize=12;glass=0;strokeWidth=1;shadow=0;fillColor=#BFFF94;" vertex="1" parent="1">
          <mxGeometry x="410" y="127" width="240" height="45" as="geometry" />
        </mxCell>
        <mxCell id="ueSRf5qQ5hVV3v4eNCJv-15" value="&lt;div style=&quot;text-align: left;&quot;&gt;&lt;span style=&quot;background-color: initial;&quot;&gt;&lt;font style=&quot;font-size: 14px;&quot; face=&quot;monospace&quot;&gt;全球化功能&lt;br&gt;(待優化)&lt;/font&gt;&lt;/span&gt;&lt;/div&gt;" style="rounded=1;whiteSpace=wrap;html=1;fontSize=12;glass=0;strokeWidth=1;shadow=0;fillColor=#BFFF94;" vertex="1" parent="1">
          <mxGeometry x="410" y="220" width="240" height="45" as="geometry" />
        </mxCell>
      </root>
    </mxGraphModel>
  </diagram>
  <diagram id="Nuhx7tcSFWkuqwiHJoyl" name="數據平台digest程式架構2">
    <mxGraphModel dx="1426" dy="697" grid="1" gridSize="10" guides="1" tooltips="1" connect="1" arrows="1" fold="1" page="1" pageScale="1" pageWidth="827" pageHeight="1169" math="0" shadow="0">
      <root>
        <mxCell id="0" />
        <mxCell id="1" parent="0" />
        <mxCell id="Ib8dntt2_Uezporf9YFh-1" style="edgeStyle=orthogonalEdgeStyle;rounded=0;orthogonalLoop=1;jettySize=auto;html=1;exitX=0.25;exitY=1;exitDx=0;exitDy=0;entryX=0;entryY=0.5;entryDx=0;entryDy=0;elbow=vertical;" edge="1" parent="1" source="Ib8dntt2_Uezporf9YFh-6" target="Ib8dntt2_Uezporf9YFh-7">
          <mxGeometry relative="1" as="geometry" />
        </mxCell>
        <mxCell id="Ib8dntt2_Uezporf9YFh-2" style="edgeStyle=orthogonalEdgeStyle;rounded=0;orthogonalLoop=1;jettySize=auto;html=1;exitX=0.25;exitY=1;exitDx=0;exitDy=0;entryX=0;entryY=0.5;entryDx=0;entryDy=0;elbow=vertical;" edge="1" parent="1" source="Ib8dntt2_Uezporf9YFh-6" target="Ib8dntt2_Uezporf9YFh-8">
          <mxGeometry relative="1" as="geometry" />
        </mxCell>
        <mxCell id="Ib8dntt2_Uezporf9YFh-3" style="edgeStyle=orthogonalEdgeStyle;rounded=0;orthogonalLoop=1;jettySize=auto;html=1;exitX=0.25;exitY=1;exitDx=0;exitDy=0;entryX=0;entryY=0.5;entryDx=0;entryDy=0;elbow=vertical;" edge="1" parent="1" source="Ib8dntt2_Uezporf9YFh-6" target="Ib8dntt2_Uezporf9YFh-9">
          <mxGeometry relative="1" as="geometry" />
        </mxCell>
        <mxCell id="Ib8dntt2_Uezporf9YFh-4" style="edgeStyle=orthogonalEdgeStyle;rounded=0;orthogonalLoop=1;jettySize=auto;html=1;exitX=0.25;exitY=1;exitDx=0;exitDy=0;entryX=0;entryY=0.5;entryDx=0;entryDy=0;elbow=vertical;" edge="1" parent="1" source="Ib8dntt2_Uezporf9YFh-6" target="Ib8dntt2_Uezporf9YFh-10">
          <mxGeometry relative="1" as="geometry" />
        </mxCell>
        <mxCell id="Ib8dntt2_Uezporf9YFh-5" style="edgeStyle=orthogonalEdgeStyle;rounded=0;orthogonalLoop=1;jettySize=auto;html=1;exitX=0.25;exitY=1;exitDx=0;exitDy=0;entryX=0;entryY=0.5;entryDx=0;entryDy=0;elbow=vertical;" edge="1" parent="1" source="Ib8dntt2_Uezporf9YFh-6" target="Ib8dntt2_Uezporf9YFh-13">
          <mxGeometry relative="1" as="geometry" />
        </mxCell>
        <mxCell id="Ib8dntt2_Uezporf9YFh-6" value="Digestion" style="rounded=1;whiteSpace=wrap;html=1;fontSize=12;glass=0;strokeWidth=1;shadow=0;fillColor=#F7FF12;" vertex="1" parent="1">
          <mxGeometry x="120" y="80" width="120" height="40" as="geometry" />
        </mxCell>
        <mxCell id="Ib8dntt2_Uezporf9YFh-7" value="gis&lt;br&gt;&lt;span style=&quot;font-family: monospace; text-align: left;&quot;&gt;公司基础通用框架&lt;/span&gt;" style="rounded=1;whiteSpace=wrap;html=1;fontSize=12;glass=0;strokeWidth=1;shadow=0;fillColor=#F7FF12;" vertex="1" parent="1">
          <mxGeometry x="200" y="130" width="120" height="40" as="geometry" />
        </mxCell>
        <mxCell id="Ib8dntt2_Uezporf9YFh-8" value="common&lt;br&gt;&lt;span style=&quot;font-family: monospace; text-align: left;&quot;&gt;通用代码&lt;/span&gt;" style="rounded=1;whiteSpace=wrap;html=1;fontSize=12;glass=0;strokeWidth=1;shadow=0;fillColor=#F7FF12;" vertex="1" parent="1">
          <mxGeometry x="200" y="190" width="120" height="40" as="geometry" />
        </mxCell>
        <mxCell id="Ib8dntt2_Uezporf9YFh-9" value="game_common&lt;br&gt;&lt;span style=&quot;font-family: monospace; text-align: left;&quot;&gt;各平台通用代码&lt;/span&gt;" style="rounded=1;whiteSpace=wrap;html=1;fontSize=12;glass=0;strokeWidth=1;shadow=0;fillColor=#F7FF12;" vertex="1" parent="1">
          <mxGeometry x="201" y="249" width="120" height="40" as="geometry" />
        </mxCell>
        <mxCell id="Ib8dntt2_Uezporf9YFh-10" value="game&lt;br&gt;&lt;span style=&quot;font-family: monospace; text-align: left;&quot;&gt;各平台代码&lt;/span&gt;" style="rounded=1;whiteSpace=wrap;html=1;fontSize=12;glass=0;strokeWidth=1;shadow=0;fillColor=#F7FF12;" vertex="1" parent="1">
          <mxGeometry x="201" y="309" width="120" height="40" as="geometry" />
        </mxCell>
        <mxCell id="Ib8dntt2_Uezporf9YFh-11" style="edgeStyle=orthogonalEdgeStyle;rounded=0;orthogonalLoop=1;jettySize=auto;html=1;exitX=1;exitY=0.5;exitDx=0;exitDy=0;entryX=0;entryY=0.5;entryDx=0;entryDy=0;fontSize=14;elbow=vertical;" edge="1" parent="1" source="Ib8dntt2_Uezporf9YFh-13" target="Ib8dntt2_Uezporf9YFh-14">
          <mxGeometry relative="1" as="geometry" />
        </mxCell>
        <mxCell id="Ib8dntt2_Uezporf9YFh-12" style="edgeStyle=orthogonalEdgeStyle;rounded=0;orthogonalLoop=1;jettySize=auto;html=1;exitX=1;exitY=0.5;exitDx=0;exitDy=0;fontSize=14;elbow=vertical;" edge="1" parent="1" source="Ib8dntt2_Uezporf9YFh-13" target="Ib8dntt2_Uezporf9YFh-15">
          <mxGeometry relative="1" as="geometry" />
        </mxCell>
        <mxCell id="Ib8dntt2_Uezporf9YFh-13" value="main&lt;br&gt;&lt;span style=&quot;font-family: monospace; text-align: left;&quot;&gt;所有指令入口&lt;/span&gt;" style="rounded=1;whiteSpace=wrap;html=1;fontSize=12;glass=0;strokeWidth=1;shadow=0;fillColor=#FF5A54;" vertex="1" parent="1">
          <mxGeometry x="200" y="370" width="120" height="40" as="geometry" />
        </mxCell>
        <mxCell id="Ib8dntt2_Uezporf9YFh-14" value="&lt;div style=&quot;text-align: left;&quot;&gt;&lt;span style=&quot;background-color: initial; font-size: 14px;&quot;&gt;&lt;font face=&quot;monospace&quot;&gt;生成報表&lt;/font&gt;&lt;/span&gt;&lt;/div&gt;&lt;div style=&quot;text-align: left;&quot;&gt;&lt;font face=&quot;monospace&quot;&gt;&lt;span style=&quot;font-size: 14px;&quot;&gt;exec_base_event: 基礎報表&lt;/span&gt;&lt;/font&gt;&lt;/div&gt;&lt;div style=&quot;text-align: left;&quot;&gt;&lt;font face=&quot;monospace&quot;&gt;&lt;span style=&quot;font-size: 14px;&quot;&gt;exec_extra_report: 其他報表&amp;nbsp;&lt;/span&gt;&lt;/font&gt;&lt;/div&gt;" style="rounded=1;whiteSpace=wrap;html=1;fontSize=12;glass=0;strokeWidth=1;shadow=0;fillColor=#BFFF94;" vertex="1" parent="1">
          <mxGeometry x="410" y="127" width="290" height="73" as="geometry" />
        </mxCell>
        <mxCell id="Ib8dntt2_Uezporf9YFh-15" value="&lt;div style=&quot;text-align: left;&quot;&gt;&lt;font face=&quot;monospace&quot;&gt;&lt;span style=&quot;font-size: 14px;&quot;&gt;其他指令＆工具&lt;/span&gt;&lt;/font&gt;&lt;/div&gt;&lt;div style=&quot;text-align: left;&quot;&gt;&lt;div&gt;&lt;span style=&quot;background-color: initial; font-size: 14px;&quot;&gt;&lt;font face=&quot;monospace&quot;&gt;create_index_templates&lt;/font&gt;&lt;/span&gt;&lt;font face=&quot;monospace&quot;&gt;&lt;span style=&quot;font-size: 14px;&quot;&gt;: es index&lt;/span&gt;&lt;/font&gt;&lt;/div&gt;&lt;/div&gt;&lt;div style=&quot;text-align: left;&quot;&gt;&lt;font face=&quot;monospace&quot;&gt;&lt;span style=&quot;font-size: 14px;&quot;&gt;create_mongo_index: mongo index&lt;/span&gt;&lt;/font&gt;&lt;/div&gt;&lt;div style=&quot;text-align: left;&quot;&gt;&lt;font face=&quot;monospace&quot;&gt;&lt;span style=&quot;font-size: 14px;&quot;&gt;monitor: data monitor&lt;/span&gt;&lt;/font&gt;&lt;/div&gt;&lt;div style=&quot;text-align: left;&quot;&gt;&lt;font face=&quot;monospace&quot;&gt;&lt;span style=&quot;font-size: 14px;&quot;&gt;start_open_server: grpc server&lt;/span&gt;&lt;/font&gt;&lt;/div&gt;" style="rounded=1;whiteSpace=wrap;html=1;fontSize=12;glass=0;strokeWidth=1;shadow=0;fillColor=#BFFF94;" vertex="1" parent="1">
          <mxGeometry x="410" y="220" width="290" height="150" as="geometry" />
        </mxCell>
      </root>
    </mxGraphModel>
  </diagram>
  <diagram id="v0Vn04d9WC46YC_XXBGB" name="數據平台digest程式架構3">
    <mxGraphModel dx="1426" dy="697" grid="1" gridSize="10" guides="1" tooltips="1" connect="1" arrows="1" fold="1" page="1" pageScale="1" pageWidth="827" pageHeight="1169" math="0" shadow="0">
      <root>
        <mxCell id="0" />
        <mxCell id="1" parent="0" />
        <mxCell id="ujJDtvpnPGoy0atUmd6r-1" style="edgeStyle=orthogonalEdgeStyle;rounded=0;orthogonalLoop=1;jettySize=auto;html=1;exitX=0.25;exitY=1;exitDx=0;exitDy=0;entryX=0;entryY=0.5;entryDx=0;entryDy=0;elbow=vertical;" edge="1" parent="1" source="ujJDtvpnPGoy0atUmd6r-6" target="ujJDtvpnPGoy0atUmd6r-7">
          <mxGeometry relative="1" as="geometry" />
        </mxCell>
        <mxCell id="ujJDtvpnPGoy0atUmd6r-2" style="edgeStyle=orthogonalEdgeStyle;rounded=0;orthogonalLoop=1;jettySize=auto;html=1;exitX=0.25;exitY=1;exitDx=0;exitDy=0;entryX=0;entryY=0.5;entryDx=0;entryDy=0;elbow=vertical;" edge="1" parent="1" source="ujJDtvpnPGoy0atUmd6r-6" target="ujJDtvpnPGoy0atUmd6r-8">
          <mxGeometry relative="1" as="geometry" />
        </mxCell>
        <mxCell id="ujJDtvpnPGoy0atUmd6r-3" style="edgeStyle=orthogonalEdgeStyle;rounded=0;orthogonalLoop=1;jettySize=auto;html=1;exitX=0.25;exitY=1;exitDx=0;exitDy=0;entryX=0;entryY=0.5;entryDx=0;entryDy=0;elbow=vertical;" edge="1" parent="1" source="ujJDtvpnPGoy0atUmd6r-6" target="ujJDtvpnPGoy0atUmd6r-16">
          <mxGeometry relative="1" as="geometry" />
        </mxCell>
        <mxCell id="ujJDtvpnPGoy0atUmd6r-4" style="edgeStyle=orthogonalEdgeStyle;rounded=0;orthogonalLoop=1;jettySize=auto;html=1;exitX=0.25;exitY=1;exitDx=0;exitDy=0;entryX=0;entryY=0.5;entryDx=0;entryDy=0;elbow=vertical;" edge="1" parent="1" source="ujJDtvpnPGoy0atUmd6r-6" target="ujJDtvpnPGoy0atUmd6r-17">
          <mxGeometry relative="1" as="geometry" />
        </mxCell>
        <mxCell id="ujJDtvpnPGoy0atUmd6r-5" style="edgeStyle=orthogonalEdgeStyle;rounded=0;orthogonalLoop=1;jettySize=auto;html=1;exitX=0.25;exitY=1;exitDx=0;exitDy=0;entryX=0;entryY=0.5;entryDx=0;entryDy=0;elbow=vertical;" edge="1" parent="1" source="ujJDtvpnPGoy0atUmd6r-6" target="ujJDtvpnPGoy0atUmd6r-18">
          <mxGeometry relative="1" as="geometry" />
        </mxCell>
        <mxCell id="ujJDtvpnPGoy0atUmd6r-6" value="Digestion" style="rounded=1;whiteSpace=wrap;html=1;fontSize=12;glass=0;strokeWidth=1;shadow=0;fillColor=#F7FF12;" vertex="1" parent="1">
          <mxGeometry x="120" y="80" width="120" height="40" as="geometry" />
        </mxCell>
        <mxCell id="ujJDtvpnPGoy0atUmd6r-7" value="gis&lt;br&gt;&lt;span style=&quot;font-family: monospace; text-align: left;&quot;&gt;公司基础通用框架&lt;/span&gt;" style="rounded=1;whiteSpace=wrap;html=1;fontSize=12;glass=0;strokeWidth=1;shadow=0;fillColor=#F7FF12;" vertex="1" parent="1">
          <mxGeometry x="200" y="130" width="120" height="40" as="geometry" />
        </mxCell>
        <mxCell id="ujJDtvpnPGoy0atUmd6r-8" value="common&lt;br&gt;&lt;span style=&quot;font-family: monospace; text-align: left;&quot;&gt;通用代码&lt;/span&gt;" style="rounded=1;whiteSpace=wrap;html=1;fontSize=12;glass=0;strokeWidth=1;shadow=0;fillColor=#F7FF12;" vertex="1" parent="1">
          <mxGeometry x="200" y="190" width="120" height="40" as="geometry" />
        </mxCell>
        <mxCell id="ujJDtvpnPGoy0atUmd6r-9" style="edgeStyle=orthogonalEdgeStyle;rounded=0;orthogonalLoop=1;jettySize=auto;html=1;exitX=1;exitY=0.5;exitDx=0;exitDy=0;entryX=0;entryY=0.5;entryDx=0;entryDy=0;elbow=vertical;" edge="1" parent="1" source="ujJDtvpnPGoy0atUmd6r-16" target="ujJDtvpnPGoy0atUmd6r-19">
          <mxGeometry relative="1" as="geometry" />
        </mxCell>
        <mxCell id="ujJDtvpnPGoy0atUmd6r-10" style="edgeStyle=orthogonalEdgeStyle;rounded=0;orthogonalLoop=1;jettySize=auto;html=1;exitX=1;exitY=0.5;exitDx=0;exitDy=0;entryX=0;entryY=0.5;entryDx=0;entryDy=0;elbow=vertical;" edge="1" parent="1" source="ujJDtvpnPGoy0atUmd6r-16" target="ujJDtvpnPGoy0atUmd6r-20">
          <mxGeometry relative="1" as="geometry" />
        </mxCell>
        <mxCell id="ujJDtvpnPGoy0atUmd6r-11" style="edgeStyle=orthogonalEdgeStyle;rounded=0;orthogonalLoop=1;jettySize=auto;html=1;exitX=1;exitY=0.5;exitDx=0;exitDy=0;entryX=0;entryY=0.5;entryDx=0;entryDy=0;elbow=vertical;" edge="1" parent="1" source="ujJDtvpnPGoy0atUmd6r-16" target="ujJDtvpnPGoy0atUmd6r-21">
          <mxGeometry relative="1" as="geometry" />
        </mxCell>
        <mxCell id="ujJDtvpnPGoy0atUmd6r-12" style="edgeStyle=orthogonalEdgeStyle;rounded=0;orthogonalLoop=1;jettySize=auto;html=1;exitX=1;exitY=0.5;exitDx=0;exitDy=0;entryX=0;entryY=0.5;entryDx=0;entryDy=0;elbow=vertical;" edge="1" parent="1" source="ujJDtvpnPGoy0atUmd6r-16" target="ujJDtvpnPGoy0atUmd6r-22">
          <mxGeometry relative="1" as="geometry" />
        </mxCell>
        <mxCell id="ujJDtvpnPGoy0atUmd6r-13" style="edgeStyle=orthogonalEdgeStyle;rounded=0;orthogonalLoop=1;jettySize=auto;html=1;exitX=1;exitY=0.5;exitDx=0;exitDy=0;entryX=0;entryY=0.5;entryDx=0;entryDy=0;elbow=vertical;" edge="1" parent="1" source="ujJDtvpnPGoy0atUmd6r-16" target="ujJDtvpnPGoy0atUmd6r-23">
          <mxGeometry relative="1" as="geometry" />
        </mxCell>
        <mxCell id="ujJDtvpnPGoy0atUmd6r-14" style="edgeStyle=orthogonalEdgeStyle;rounded=0;orthogonalLoop=1;jettySize=auto;html=1;exitX=1;exitY=0.5;exitDx=0;exitDy=0;entryX=0;entryY=0.5;entryDx=0;entryDy=0;elbow=vertical;" edge="1" parent="1" source="ujJDtvpnPGoy0atUmd6r-16" target="ujJDtvpnPGoy0atUmd6r-24">
          <mxGeometry relative="1" as="geometry" />
        </mxCell>
        <mxCell id="ujJDtvpnPGoy0atUmd6r-15" style="edgeStyle=orthogonalEdgeStyle;rounded=0;orthogonalLoop=1;jettySize=auto;html=1;exitX=1;exitY=0.5;exitDx=0;exitDy=0;entryX=0;entryY=0.5;entryDx=0;entryDy=0;elbow=vertical;" edge="1" parent="1" source="ujJDtvpnPGoy0atUmd6r-16" target="ujJDtvpnPGoy0atUmd6r-25">
          <mxGeometry relative="1" as="geometry" />
        </mxCell>
        <mxCell id="ujJDtvpnPGoy0atUmd6r-16" value="game_common&lt;br&gt;&lt;span style=&quot;font-family: monospace; text-align: left;&quot;&gt;各平台通用代码&lt;/span&gt;" style="rounded=1;whiteSpace=wrap;html=1;fontSize=12;glass=0;strokeWidth=1;shadow=0;fillColor=#FF5A54;" vertex="1" parent="1">
          <mxGeometry x="201" y="249" width="120" height="40" as="geometry" />
        </mxCell>
        <mxCell id="ujJDtvpnPGoy0atUmd6r-17" value="game&lt;br&gt;&lt;span style=&quot;font-family: monospace; text-align: left;&quot;&gt;各平台代码&lt;/span&gt;" style="rounded=1;whiteSpace=wrap;html=1;fontSize=12;glass=0;strokeWidth=1;shadow=0;fillColor=#F7FF12;" vertex="1" parent="1">
          <mxGeometry x="201" y="309" width="120" height="40" as="geometry" />
        </mxCell>
        <mxCell id="ujJDtvpnPGoy0atUmd6r-18" value="main&lt;br&gt;&lt;span style=&quot;font-family: monospace; text-align: left;&quot;&gt;所有指令入口&lt;/span&gt;" style="rounded=1;whiteSpace=wrap;html=1;fontSize=12;glass=0;strokeWidth=1;shadow=0;fillColor=#F7FF12;" vertex="1" parent="1">
          <mxGeometry x="200" y="370" width="120" height="40" as="geometry" />
        </mxCell>
        <mxCell id="ujJDtvpnPGoy0atUmd6r-19" value="conf&lt;br&gt;&lt;div style=&quot;text-align: left;&quot;&gt;&lt;span style=&quot;background-color: initial;&quot;&gt;&lt;font face=&quot;monospace&quot;&gt;各平台設定檔&lt;/font&gt;&lt;/span&gt;&lt;/div&gt;" style="rounded=1;whiteSpace=wrap;html=1;fontSize=12;glass=0;strokeWidth=1;shadow=0;fillColor=#BFFF94;" vertex="1" parent="1">
          <mxGeometry x="410" y="135" width="180" height="30" as="geometry" />
        </mxCell>
        <mxCell id="ujJDtvpnPGoy0atUmd6r-20" value="helper&lt;br&gt;&lt;div style=&quot;text-align: left;&quot;&gt;&lt;span style=&quot;background-color: initial;&quot;&gt;&lt;font face=&quot;monospace&quot;&gt;各平台相同func不同處理&lt;/font&gt;&lt;/span&gt;&lt;/div&gt;" style="rounded=1;whiteSpace=wrap;html=1;fontSize=12;glass=0;strokeWidth=1;shadow=0;fillColor=#BFFF94;" vertex="1" parent="1">
          <mxGeometry x="410" y="175" width="180" height="30" as="geometry" />
        </mxCell>
        <mxCell id="ujJDtvpnPGoy0atUmd6r-21" value="event&lt;br&gt;event&lt;span style=&quot;font-family: monospace; background-color: initial; text-align: left;&quot;&gt;基礎組建&lt;/span&gt;" style="rounded=1;whiteSpace=wrap;html=1;fontSize=12;glass=0;strokeWidth=1;shadow=0;fillColor=#BFFF94;" vertex="1" parent="1">
          <mxGeometry x="410" y="215" width="180" height="30" as="geometry" />
        </mxCell>
        <mxCell id="ujJDtvpnPGoy0atUmd6r-22" value="dao&lt;br&gt;&lt;div style=&quot;text-align: left;&quot;&gt;&lt;span style=&quot;background-color: initial;&quot;&gt;&lt;font face=&quot;monospace&quot;&gt;mysql基礎組建&lt;/font&gt;&lt;/span&gt;&lt;/div&gt;" style="rounded=1;whiteSpace=wrap;html=1;fontSize=12;glass=0;strokeWidth=1;shadow=0;fillColor=#BFFF94;" vertex="1" parent="1">
          <mxGeometry x="410" y="255" width="180" height="30" as="geometry" />
        </mxCell>
        <mxCell id="ujJDtvpnPGoy0atUmd6r-23" value="report_storage&lt;br&gt;&lt;div style=&quot;text-align: left;&quot;&gt;&lt;span style=&quot;background-color: initial;&quot;&gt;&lt;font face=&quot;monospace&quot;&gt;報表存取基礎組建&lt;/font&gt;&lt;/span&gt;&lt;/div&gt;" style="rounded=1;whiteSpace=wrap;html=1;fontSize=12;glass=0;strokeWidth=1;shadow=0;fillColor=#BFFF94;" vertex="1" parent="1">
          <mxGeometry x="410" y="295" width="180" height="30" as="geometry" />
        </mxCell>
        <mxCell id="ujJDtvpnPGoy0atUmd6r-24" value="service&lt;br&gt;&lt;div style=&quot;text-align: left;&quot;&gt;&lt;span style=&quot;background-color: initial;&quot;&gt;&lt;font face=&quot;monospace&quot;&gt;service pool 供各平台共用&lt;/font&gt;&lt;/span&gt;&lt;/div&gt;" style="rounded=1;whiteSpace=wrap;html=1;fontSize=12;glass=0;strokeWidth=1;shadow=0;fillColor=#BFFF94;" vertex="1" parent="1">
          <mxGeometry x="410" y="336" width="180" height="30" as="geometry" />
        </mxCell>
        <mxCell id="ujJDtvpnPGoy0atUmd6r-25" value="schema&lt;br&gt;&lt;div style=&quot;text-align: left;&quot;&gt;&lt;font face=&quot;monospace&quot;&gt;定義組建讀寫schema&lt;/font&gt;&lt;/div&gt;" style="rounded=1;whiteSpace=wrap;html=1;fontSize=12;glass=0;strokeWidth=1;shadow=0;fillColor=#BFFF94;" vertex="1" parent="1">
          <mxGeometry x="410" y="377" width="180" height="30" as="geometry" />
        </mxCell>
      </root>
    </mxGraphModel>
  </diagram>
  <diagram id="7lsJKk7C0HWK_pA_Lop9" name="數據平台digest程式架構4">
    <mxGraphModel dx="1426" dy="697" grid="1" gridSize="10" guides="1" tooltips="1" connect="1" arrows="1" fold="1" page="1" pageScale="1" pageWidth="827" pageHeight="1169" math="0" shadow="0">
      <root>
        <mxCell id="0" />
        <mxCell id="1" parent="0" />
        <mxCell id="vzNr2bCn89sipSU69nPP-1" style="edgeStyle=orthogonalEdgeStyle;rounded=0;orthogonalLoop=1;jettySize=auto;html=1;exitX=0.25;exitY=1;exitDx=0;exitDy=0;entryX=0;entryY=0.5;entryDx=0;entryDy=0;elbow=vertical;" edge="1" parent="1" source="vzNr2bCn89sipSU69nPP-6" target="vzNr2bCn89sipSU69nPP-7">
          <mxGeometry relative="1" as="geometry" />
        </mxCell>
        <mxCell id="vzNr2bCn89sipSU69nPP-2" style="edgeStyle=orthogonalEdgeStyle;rounded=0;orthogonalLoop=1;jettySize=auto;html=1;exitX=0.25;exitY=1;exitDx=0;exitDy=0;entryX=0;entryY=0.5;entryDx=0;entryDy=0;elbow=vertical;" edge="1" parent="1" source="vzNr2bCn89sipSU69nPP-6" target="vzNr2bCn89sipSU69nPP-14">
          <mxGeometry relative="1" as="geometry" />
        </mxCell>
        <mxCell id="vzNr2bCn89sipSU69nPP-3" style="edgeStyle=orthogonalEdgeStyle;rounded=0;orthogonalLoop=1;jettySize=auto;html=1;exitX=0.25;exitY=1;exitDx=0;exitDy=0;entryX=0;entryY=0.5;entryDx=0;entryDy=0;elbow=vertical;" edge="1" parent="1" source="vzNr2bCn89sipSU69nPP-6" target="vzNr2bCn89sipSU69nPP-15">
          <mxGeometry relative="1" as="geometry" />
        </mxCell>
        <mxCell id="vzNr2bCn89sipSU69nPP-4" style="edgeStyle=orthogonalEdgeStyle;rounded=0;orthogonalLoop=1;jettySize=auto;html=1;exitX=0.25;exitY=1;exitDx=0;exitDy=0;entryX=0;entryY=0.5;entryDx=0;entryDy=0;elbow=vertical;" edge="1" parent="1" source="vzNr2bCn89sipSU69nPP-6" target="vzNr2bCn89sipSU69nPP-16">
          <mxGeometry relative="1" as="geometry" />
        </mxCell>
        <mxCell id="vzNr2bCn89sipSU69nPP-5" style="edgeStyle=orthogonalEdgeStyle;rounded=0;orthogonalLoop=1;jettySize=auto;html=1;exitX=0.25;exitY=1;exitDx=0;exitDy=0;entryX=0;entryY=0.5;entryDx=0;entryDy=0;elbow=vertical;" edge="1" parent="1" source="vzNr2bCn89sipSU69nPP-6" target="vzNr2bCn89sipSU69nPP-17">
          <mxGeometry relative="1" as="geometry" />
        </mxCell>
        <mxCell id="vzNr2bCn89sipSU69nPP-6" value="Digestion" style="rounded=1;whiteSpace=wrap;html=1;fontSize=12;glass=0;strokeWidth=1;shadow=0;fillColor=#F7FF12;" vertex="1" parent="1">
          <mxGeometry x="120" y="80" width="120" height="40" as="geometry" />
        </mxCell>
        <mxCell id="vzNr2bCn89sipSU69nPP-7" value="gis&lt;br&gt;&lt;span style=&quot;font-family: monospace; text-align: left;&quot;&gt;公司基础通用框架&lt;/span&gt;" style="rounded=1;whiteSpace=wrap;html=1;fontSize=12;glass=0;strokeWidth=1;shadow=0;fillColor=#F7FF12;" vertex="1" parent="1">
          <mxGeometry x="200" y="130" width="120" height="40" as="geometry" />
        </mxCell>
        <mxCell id="vzNr2bCn89sipSU69nPP-8" style="edgeStyle=orthogonalEdgeStyle;rounded=0;orthogonalLoop=1;jettySize=auto;html=1;exitX=1;exitY=0.5;exitDx=0;exitDy=0;entryX=0;entryY=0.5;entryDx=0;entryDy=0;fontSize=14;elbow=vertical;" edge="1" parent="1" source="vzNr2bCn89sipSU69nPP-14" target="vzNr2bCn89sipSU69nPP-18">
          <mxGeometry relative="1" as="geometry" />
        </mxCell>
        <mxCell id="vzNr2bCn89sipSU69nPP-9" style="edgeStyle=orthogonalEdgeStyle;rounded=0;orthogonalLoop=1;jettySize=auto;html=1;exitX=1;exitY=0.5;exitDx=0;exitDy=0;entryX=0;entryY=0.5;entryDx=0;entryDy=0;fontSize=14;elbow=vertical;" edge="1" parent="1" source="vzNr2bCn89sipSU69nPP-14" target="vzNr2bCn89sipSU69nPP-19">
          <mxGeometry relative="1" as="geometry" />
        </mxCell>
        <mxCell id="vzNr2bCn89sipSU69nPP-10" style="edgeStyle=orthogonalEdgeStyle;rounded=0;orthogonalLoop=1;jettySize=auto;html=1;exitX=1;exitY=0.5;exitDx=0;exitDy=0;entryX=0;entryY=0.5;entryDx=0;entryDy=0;fontSize=14;elbow=vertical;" edge="1" parent="1" source="vzNr2bCn89sipSU69nPP-14" target="vzNr2bCn89sipSU69nPP-20">
          <mxGeometry relative="1" as="geometry" />
        </mxCell>
        <mxCell id="vzNr2bCn89sipSU69nPP-11" style="edgeStyle=orthogonalEdgeStyle;rounded=0;orthogonalLoop=1;jettySize=auto;html=1;exitX=1;exitY=0.5;exitDx=0;exitDy=0;entryX=0;entryY=0.5;entryDx=0;entryDy=0;fontSize=14;elbow=vertical;" edge="1" parent="1" source="vzNr2bCn89sipSU69nPP-14" target="vzNr2bCn89sipSU69nPP-21">
          <mxGeometry relative="1" as="geometry" />
        </mxCell>
        <mxCell id="vzNr2bCn89sipSU69nPP-12" style="edgeStyle=orthogonalEdgeStyle;rounded=0;orthogonalLoop=1;jettySize=auto;html=1;exitX=1;exitY=0.5;exitDx=0;exitDy=0;entryX=0;entryY=0.5;entryDx=0;entryDy=0;fontSize=14;elbow=vertical;" edge="1" parent="1" source="vzNr2bCn89sipSU69nPP-14" target="vzNr2bCn89sipSU69nPP-22">
          <mxGeometry relative="1" as="geometry" />
        </mxCell>
        <mxCell id="vzNr2bCn89sipSU69nPP-13" style="edgeStyle=orthogonalEdgeStyle;rounded=0;orthogonalLoop=1;jettySize=auto;html=1;exitX=1;exitY=0.5;exitDx=0;exitDy=0;entryX=0;entryY=0.5;entryDx=0;entryDy=0;fontSize=14;elbow=vertical;" edge="1" parent="1" source="vzNr2bCn89sipSU69nPP-14" target="vzNr2bCn89sipSU69nPP-23">
          <mxGeometry relative="1" as="geometry" />
        </mxCell>
        <mxCell id="vzNr2bCn89sipSU69nPP-14" value="common&lt;br&gt;&lt;span style=&quot;font-family: monospace; text-align: left;&quot;&gt;通用代码&lt;/span&gt;" style="rounded=1;whiteSpace=wrap;html=1;fontSize=12;glass=0;strokeWidth=1;shadow=0;fillColor=#FF5A54;" vertex="1" parent="1">
          <mxGeometry x="200" y="190" width="120" height="40" as="geometry" />
        </mxCell>
        <mxCell id="vzNr2bCn89sipSU69nPP-15" value="game_common&lt;br&gt;&lt;span style=&quot;font-family: monospace; text-align: left;&quot;&gt;各平台通用代码&lt;/span&gt;" style="rounded=1;whiteSpace=wrap;html=1;fontSize=12;glass=0;strokeWidth=1;shadow=0;fillColor=#F7FF12;" vertex="1" parent="1">
          <mxGeometry x="201" y="249" width="120" height="40" as="geometry" />
        </mxCell>
        <mxCell id="vzNr2bCn89sipSU69nPP-16" value="game&lt;br&gt;&lt;span style=&quot;font-family: monospace; text-align: left;&quot;&gt;各平台代码&lt;/span&gt;" style="rounded=1;whiteSpace=wrap;html=1;fontSize=12;glass=0;strokeWidth=1;shadow=0;fillColor=#F7FF12;" vertex="1" parent="1">
          <mxGeometry x="201" y="309" width="120" height="40" as="geometry" />
        </mxCell>
        <mxCell id="vzNr2bCn89sipSU69nPP-17" value="main&lt;br&gt;&lt;span style=&quot;font-family: monospace; text-align: left;&quot;&gt;所有指令入口&lt;/span&gt;" style="rounded=1;whiteSpace=wrap;html=1;fontSize=12;glass=0;strokeWidth=1;shadow=0;fillColor=#F7FF12;" vertex="1" parent="1">
          <mxGeometry x="200" y="370" width="120" height="40" as="geometry" />
        </mxCell>
        <mxCell id="vzNr2bCn89sipSU69nPP-18" value="db(&lt;span style=&quot;font-family: monospace; text-align: left;&quot;&gt;mongo&lt;/span&gt;)" style="rounded=1;whiteSpace=wrap;html=1;fontSize=12;glass=0;strokeWidth=1;shadow=0;fillColor=#BFFF94;" vertex="1" parent="1">
          <mxGeometry x="410" y="135" width="180" height="30" as="geometry" />
        </mxCell>
        <mxCell id="vzNr2bCn89sipSU69nPP-19" value="es" style="rounded=1;whiteSpace=wrap;html=1;fontSize=12;glass=0;strokeWidth=1;shadow=0;fillColor=#BFFF94;" vertex="1" parent="1">
          <mxGeometry x="410" y="175" width="180" height="30" as="geometry" />
        </mxCell>
        <mxCell id="vzNr2bCn89sipSU69nPP-20" value="event" style="rounded=1;whiteSpace=wrap;html=1;fontSize=12;glass=0;strokeWidth=1;shadow=0;fillColor=#BFFF94;" vertex="1" parent="1">
          <mxGeometry x="410" y="215" width="180" height="30" as="geometry" />
        </mxCell>
        <mxCell id="vzNr2bCn89sipSU69nPP-21" value="report&lt;br&gt;(封裝event查詢並組成報表)" style="rounded=1;whiteSpace=wrap;html=1;fontSize=12;glass=0;strokeWidth=1;shadow=0;fillColor=#BFFF94;" vertex="1" parent="1">
          <mxGeometry x="410" y="255" width="180" height="30" as="geometry" />
        </mxCell>
        <mxCell id="vzNr2bCn89sipSU69nPP-22" value="monitor" style="rounded=1;whiteSpace=wrap;html=1;fontSize=12;glass=0;strokeWidth=1;shadow=0;fillColor=#BFFF94;" vertex="1" parent="1">
          <mxGeometry x="410" y="295" width="180" height="30" as="geometry" />
        </mxCell>
        <mxCell id="vzNr2bCn89sipSU69nPP-23" value="utils" style="rounded=1;whiteSpace=wrap;html=1;fontSize=12;glass=0;strokeWidth=1;shadow=0;fillColor=#BFFF94;" vertex="1" parent="1">
          <mxGeometry x="410" y="336" width="180" height="30" as="geometry" />
        </mxCell>
      </root>
    </mxGraphModel>
  </diagram>
  <diagram id="e7y3dhQUILTz8Np7OkK1" name="數據平台digest程式架構5">
    <mxGraphModel dx="1426" dy="697" grid="1" gridSize="10" guides="1" tooltips="1" connect="1" arrows="1" fold="1" page="1" pageScale="1" pageWidth="827" pageHeight="1169" math="0" shadow="0">
      <root>
        <mxCell id="0" />
        <mxCell id="1" parent="0" />
        <mxCell id="RVtSkSW86suxpk0UL8fP-1" style="edgeStyle=orthogonalEdgeStyle;rounded=0;orthogonalLoop=1;jettySize=auto;html=1;exitX=0.25;exitY=1;exitDx=0;exitDy=0;entryX=0;entryY=0.5;entryDx=0;entryDy=0;elbow=vertical;" edge="1" parent="1" source="RVtSkSW86suxpk0UL8fP-6" target="RVtSkSW86suxpk0UL8fP-7">
          <mxGeometry relative="1" as="geometry" />
        </mxCell>
        <mxCell id="RVtSkSW86suxpk0UL8fP-2" style="edgeStyle=orthogonalEdgeStyle;rounded=0;orthogonalLoop=1;jettySize=auto;html=1;exitX=0.25;exitY=1;exitDx=0;exitDy=0;entryX=0;entryY=0.5;entryDx=0;entryDy=0;elbow=vertical;" edge="1" parent="1" source="RVtSkSW86suxpk0UL8fP-6" target="RVtSkSW86suxpk0UL8fP-8">
          <mxGeometry relative="1" as="geometry" />
        </mxCell>
        <mxCell id="RVtSkSW86suxpk0UL8fP-3" style="edgeStyle=orthogonalEdgeStyle;rounded=0;orthogonalLoop=1;jettySize=auto;html=1;exitX=0.25;exitY=1;exitDx=0;exitDy=0;entryX=0;entryY=0.5;entryDx=0;entryDy=0;elbow=vertical;" edge="1" parent="1" source="RVtSkSW86suxpk0UL8fP-6" target="RVtSkSW86suxpk0UL8fP-9">
          <mxGeometry relative="1" as="geometry" />
        </mxCell>
        <mxCell id="RVtSkSW86suxpk0UL8fP-4" style="edgeStyle=orthogonalEdgeStyle;rounded=0;orthogonalLoop=1;jettySize=auto;html=1;exitX=0.25;exitY=1;exitDx=0;exitDy=0;entryX=0;entryY=0.5;entryDx=0;entryDy=0;elbow=vertical;" edge="1" parent="1" source="RVtSkSW86suxpk0UL8fP-6" target="RVtSkSW86suxpk0UL8fP-13">
          <mxGeometry relative="1" as="geometry" />
        </mxCell>
        <mxCell id="RVtSkSW86suxpk0UL8fP-5" style="edgeStyle=orthogonalEdgeStyle;rounded=0;orthogonalLoop=1;jettySize=auto;html=1;exitX=0.25;exitY=1;exitDx=0;exitDy=0;entryX=0;entryY=0.5;entryDx=0;entryDy=0;elbow=vertical;" edge="1" parent="1" source="RVtSkSW86suxpk0UL8fP-6" target="RVtSkSW86suxpk0UL8fP-14">
          <mxGeometry relative="1" as="geometry" />
        </mxCell>
        <mxCell id="RVtSkSW86suxpk0UL8fP-6" value="Digestion" style="rounded=1;whiteSpace=wrap;html=1;fontSize=12;glass=0;strokeWidth=1;shadow=0;fillColor=#F7FF12;" vertex="1" parent="1">
          <mxGeometry x="120" y="80" width="120" height="40" as="geometry" />
        </mxCell>
        <mxCell id="RVtSkSW86suxpk0UL8fP-7" value="gis&lt;br&gt;&lt;span style=&quot;font-family: monospace; text-align: left;&quot;&gt;公司基础通用框架&lt;/span&gt;" style="rounded=1;whiteSpace=wrap;html=1;fontSize=12;glass=0;strokeWidth=1;shadow=0;fillColor=#F7FF12;" vertex="1" parent="1">
          <mxGeometry x="200" y="130" width="120" height="40" as="geometry" />
        </mxCell>
        <mxCell id="RVtSkSW86suxpk0UL8fP-8" value="common&lt;br&gt;&lt;span style=&quot;font-family: monospace; text-align: left;&quot;&gt;通用代码&lt;/span&gt;" style="rounded=1;whiteSpace=wrap;html=1;fontSize=12;glass=0;strokeWidth=1;shadow=0;fillColor=#F7FF12;" vertex="1" parent="1">
          <mxGeometry x="200" y="190" width="120" height="40" as="geometry" />
        </mxCell>
        <mxCell id="RVtSkSW86suxpk0UL8fP-9" value="game_common&lt;br&gt;&lt;span style=&quot;font-family: monospace; text-align: left;&quot;&gt;各平台通用代码&lt;/span&gt;" style="rounded=1;whiteSpace=wrap;html=1;fontSize=12;glass=0;strokeWidth=1;shadow=0;fillColor=#F7FF12;" vertex="1" parent="1">
          <mxGeometry x="201" y="249" width="120" height="40" as="geometry" />
        </mxCell>
        <mxCell id="RVtSkSW86suxpk0UL8fP-10" style="edgeStyle=orthogonalEdgeStyle;rounded=0;orthogonalLoop=1;jettySize=auto;html=1;exitX=1;exitY=0.5;exitDx=0;exitDy=0;entryX=0;entryY=0.5;entryDx=0;entryDy=0;fontSize=14;elbow=vertical;" edge="1" parent="1" source="RVtSkSW86suxpk0UL8fP-13" target="RVtSkSW86suxpk0UL8fP-19">
          <mxGeometry relative="1" as="geometry" />
        </mxCell>
        <mxCell id="RVtSkSW86suxpk0UL8fP-11" style="edgeStyle=orthogonalEdgeStyle;rounded=0;orthogonalLoop=1;jettySize=auto;html=1;exitX=1;exitY=0.5;exitDx=0;exitDy=0;entryX=0;entryY=0.5;entryDx=0;entryDy=0;fontSize=14;elbow=vertical;" edge="1" parent="1" source="RVtSkSW86suxpk0UL8fP-13" target="RVtSkSW86suxpk0UL8fP-20">
          <mxGeometry relative="1" as="geometry" />
        </mxCell>
        <mxCell id="RVtSkSW86suxpk0UL8fP-12" style="edgeStyle=orthogonalEdgeStyle;rounded=0;orthogonalLoop=1;jettySize=auto;html=1;exitX=1;exitY=0.5;exitDx=0;exitDy=0;entryX=0;entryY=0.5;entryDx=0;entryDy=0;fontSize=14;elbow=vertical;" edge="1" parent="1" source="RVtSkSW86suxpk0UL8fP-13" target="RVtSkSW86suxpk0UL8fP-21">
          <mxGeometry relative="1" as="geometry" />
        </mxCell>
        <mxCell id="RVtSkSW86suxpk0UL8fP-13" value="game&lt;br&gt;&lt;span style=&quot;font-family: monospace; text-align: left;&quot;&gt;各平台代码&lt;/span&gt;" style="rounded=1;whiteSpace=wrap;html=1;fontSize=12;glass=0;strokeWidth=1;shadow=0;fillColor=#FF5A54;" vertex="1" parent="1">
          <mxGeometry x="201" y="309" width="120" height="40" as="geometry" />
        </mxCell>
        <mxCell id="RVtSkSW86suxpk0UL8fP-14" value="main&lt;br&gt;&lt;span style=&quot;font-family: monospace; text-align: left;&quot;&gt;所有指令入口&lt;/span&gt;" style="rounded=1;whiteSpace=wrap;html=1;fontSize=12;glass=0;strokeWidth=1;shadow=0;fillColor=#F7FF12;" vertex="1" parent="1">
          <mxGeometry x="200" y="370" width="120" height="40" as="geometry" />
        </mxCell>
        <mxCell id="RVtSkSW86suxpk0UL8fP-15" style="edgeStyle=orthogonalEdgeStyle;rounded=0;orthogonalLoop=1;jettySize=auto;html=1;exitX=1;exitY=0.5;exitDx=0;exitDy=0;fontSize=14;elbow=vertical;" edge="1" parent="1" source="RVtSkSW86suxpk0UL8fP-19" target="RVtSkSW86suxpk0UL8fP-22">
          <mxGeometry relative="1" as="geometry" />
        </mxCell>
        <mxCell id="RVtSkSW86suxpk0UL8fP-16" style="edgeStyle=orthogonalEdgeStyle;rounded=0;orthogonalLoop=1;jettySize=auto;html=1;exitX=1;exitY=0.5;exitDx=0;exitDy=0;entryX=0;entryY=0.5;entryDx=0;entryDy=0;fontSize=14;elbow=vertical;" edge="1" parent="1" source="RVtSkSW86suxpk0UL8fP-19" target="RVtSkSW86suxpk0UL8fP-23">
          <mxGeometry relative="1" as="geometry" />
        </mxCell>
        <mxCell id="RVtSkSW86suxpk0UL8fP-17" style="edgeStyle=orthogonalEdgeStyle;rounded=0;orthogonalLoop=1;jettySize=auto;html=1;exitX=1;exitY=0.5;exitDx=0;exitDy=0;entryX=0;entryY=0.5;entryDx=0;entryDy=0;fontSize=14;elbow=vertical;" edge="1" parent="1" source="RVtSkSW86suxpk0UL8fP-19" target="RVtSkSW86suxpk0UL8fP-24">
          <mxGeometry relative="1" as="geometry" />
        </mxCell>
        <mxCell id="RVtSkSW86suxpk0UL8fP-18" style="edgeStyle=orthogonalEdgeStyle;rounded=0;orthogonalLoop=1;jettySize=auto;html=1;exitX=1;exitY=0.5;exitDx=0;exitDy=0;entryX=0;entryY=0.5;entryDx=0;entryDy=0;fontSize=14;elbow=vertical;" edge="1" parent="1" source="RVtSkSW86suxpk0UL8fP-19" target="RVtSkSW86suxpk0UL8fP-25">
          <mxGeometry relative="1" as="geometry" />
        </mxCell>
        <mxCell id="RVtSkSW86suxpk0UL8fP-19" value="VN" style="rounded=1;whiteSpace=wrap;html=1;fontSize=12;glass=0;strokeWidth=1;shadow=0;fillColor=#BFFF94;" vertex="1" parent="1">
          <mxGeometry x="410" y="135" width="60" height="30" as="geometry" />
        </mxCell>
        <mxCell id="RVtSkSW86suxpk0UL8fP-20" value="LZ" style="rounded=1;whiteSpace=wrap;html=1;fontSize=12;glass=0;strokeWidth=1;shadow=0;fillColor=#BFFF94;" vertex="1" parent="1">
          <mxGeometry x="410" y="175" width="60" height="30" as="geometry" />
        </mxCell>
        <mxCell id="RVtSkSW86suxpk0UL8fP-21" value="..." style="rounded=1;whiteSpace=wrap;html=1;fontSize=12;glass=0;strokeWidth=1;shadow=0;fillColor=#BFFF94;" vertex="1" parent="1">
          <mxGeometry x="410" y="215" width="60" height="30" as="geometry" />
        </mxCell>
        <mxCell id="RVtSkSW86suxpk0UL8fP-22" value="&lt;font style=&quot;font-size: 14px;&quot;&gt;&lt;b&gt;&lt;font style=&quot;&quot;&gt;低階組建&lt;/font&gt;&lt;/b&gt;&lt;br&gt;&lt;/font&gt;&lt;div style=&quot;text-align: left;&quot;&gt;&lt;font face=&quot;monospace&quot;&gt;繼承並實作低階組建&lt;/font&gt;&lt;/div&gt;" style="rounded=1;whiteSpace=wrap;html=1;fontSize=12;glass=0;strokeWidth=1;shadow=0;fillColor=#5CFFEF;" vertex="1" parent="1">
          <mxGeometry x="540" y="120" width="180" height="60" as="geometry" />
        </mxCell>
        <mxCell id="RVtSkSW86suxpk0UL8fP-23" value="&lt;font style=&quot;font-size: 14px;&quot;&gt;&lt;b&gt;api 相關(service)&lt;/b&gt;&lt;/font&gt;&lt;br&gt;從service pool選用需要的service&lt;br&gt;並將低階組建注入" style="rounded=1;whiteSpace=wrap;html=1;fontSize=12;glass=0;strokeWidth=1;shadow=0;fillColor=#5CFFEF;" vertex="1" parent="1">
          <mxGeometry x="540" y="189" width="180" height="60" as="geometry" />
        </mxCell>
        <mxCell id="RVtSkSW86suxpk0UL8fP-24" value="&lt;font style=&quot;font-size: 14px;&quot;&gt;&lt;b&gt;&lt;font style=&quot;&quot;&gt;open&lt;/font&gt;&lt;/b&gt;&lt;br&gt;&lt;/font&gt;&lt;div style=&quot;text-align: left;&quot;&gt;&lt;font face=&quot;monospace&quot;&gt;開放其他平台取得數據&lt;/font&gt;&lt;/div&gt;" style="rounded=1;whiteSpace=wrap;html=1;fontSize=12;glass=0;strokeWidth=1;shadow=0;fillColor=#5CFFEF;" vertex="1" parent="1">
          <mxGeometry x="540" y="259" width="180" height="60" as="geometry" />
        </mxCell>
        <mxCell id="RVtSkSW86suxpk0UL8fP-25" value="&lt;font style=&quot;font-size: 14px;&quot;&gt;&lt;b&gt;&lt;font style=&quot;&quot;&gt;monitor&lt;/font&gt;&lt;/b&gt;&lt;br&gt;&lt;/font&gt;&lt;div style=&quot;text-align: left;&quot;&gt;數據監測&lt;/div&gt;" style="rounded=1;whiteSpace=wrap;html=1;fontSize=12;glass=0;strokeWidth=1;shadow=0;fillColor=#5CFFEF;" vertex="1" parent="1">
          <mxGeometry x="540" y="330" width="180" height="60" as="geometry" />
        </mxCell>
      </root>
    </mxGraphModel>
  </diagram>
  <diagram id="FIeQ1Zfb1F_E6E6DB6ss" name="數據平台digest程式架構6">
    <mxGraphModel dx="1426" dy="697" grid="1" gridSize="10" guides="1" tooltips="1" connect="1" arrows="1" fold="1" page="1" pageScale="1" pageWidth="827" pageHeight="1169" math="0" shadow="0">
      <root>
        <mxCell id="0" />
        <mxCell id="1" parent="0" />
        <mxCell id="bb3maRveoX8HLHpQJ_gR-1" value="&lt;font style=&quot;font-size: 18px;&quot;&gt;Process&lt;br&gt;&lt;/font&gt;&lt;br&gt;&lt;br&gt;&lt;br&gt;&lt;br&gt;&lt;br&gt;&lt;br&gt;&lt;br&gt;&lt;br&gt;&lt;br&gt;&lt;br&gt;&lt;br&gt;&lt;br&gt;&lt;br&gt;&lt;br&gt;&lt;br&gt;&lt;br&gt;&lt;br&gt;&lt;br&gt;&lt;br&gt;&lt;br&gt;&lt;br&gt;" style="rounded=1;whiteSpace=wrap;html=1;fontSize=12;glass=0;strokeWidth=1;shadow=0;fillColor=#D4FCFF;" vertex="1" parent="1">
          <mxGeometry x="500" y="50" width="300" height="380" as="geometry" />
        </mxCell>
        <mxCell id="bb3maRveoX8HLHpQJ_gR-2" style="edgeStyle=orthogonalEdgeStyle;rounded=0;orthogonalLoop=1;jettySize=auto;html=1;exitX=1;exitY=0.5;exitDx=0;exitDy=0;entryX=0;entryY=0.5;entryDx=0;entryDy=0;fontSize=18;elbow=vertical;" edge="1" parent="1" source="bb3maRveoX8HLHpQJ_gR-3" target="bb3maRveoX8HLHpQJ_gR-1">
          <mxGeometry relative="1" as="geometry" />
        </mxCell>
        <mxCell id="bb3maRveoX8HLHpQJ_gR-3" value="&lt;font style=&quot;font-size: 18px;&quot;&gt;dispatch&lt;/font&gt;&lt;br&gt;&lt;br&gt;&lt;br&gt;&lt;br&gt;&lt;br&gt;&lt;br&gt;&lt;br&gt;&lt;br&gt;&lt;br&gt;&lt;br&gt;&lt;br&gt;&lt;br&gt;&lt;br&gt;&lt;br&gt;&lt;br&gt;" style="rounded=1;whiteSpace=wrap;html=1;fontSize=12;glass=0;strokeWidth=1;shadow=0;fillColor=#F0FFE3;" vertex="1" parent="1">
          <mxGeometry x="249" y="115" width="228" height="250" as="geometry" />
        </mxCell>
        <mxCell id="bb3maRveoX8HLHpQJ_gR-4" style="edgeStyle=orthogonalEdgeStyle;rounded=0;orthogonalLoop=1;jettySize=auto;html=1;exitX=1;exitY=0.5;exitDx=0;exitDy=0;entryX=0;entryY=0.5;entryDx=0;entryDy=0;fontSize=12;elbow=vertical;" edge="1" parent="1" target="bb3maRveoX8HLHpQJ_gR-7">
          <mxGeometry relative="1" as="geometry">
            <mxPoint x="99" y="240" as="sourcePoint" />
          </mxGeometry>
        </mxCell>
        <mxCell id="bb3maRveoX8HLHpQJ_gR-5" value="event" style="rounded=1;whiteSpace=wrap;html=1;fontSize=12;glass=0;strokeWidth=1;shadow=0;fillColor=#F7FF12;" vertex="1" parent="1">
          <mxGeometry x="30" y="220" width="70" height="40" as="geometry" />
        </mxCell>
        <mxCell id="bb3maRveoX8HLHpQJ_gR-6" style="edgeStyle=orthogonalEdgeStyle;rounded=0;orthogonalLoop=1;jettySize=auto;html=1;exitX=1;exitY=0.5;exitDx=0;exitDy=0;entryX=0;entryY=0.5;entryDx=0;entryDy=0;fontSize=12;elbow=vertical;" edge="1" parent="1" source="bb3maRveoX8HLHpQJ_gR-7" target="bb3maRveoX8HLHpQJ_gR-3">
          <mxGeometry relative="1" as="geometry" />
        </mxCell>
        <mxCell id="bb3maRveoX8HLHpQJ_gR-7" value="從event中取得event_type" style="rounded=1;whiteSpace=wrap;html=1;fontSize=12;glass=0;strokeWidth=1;shadow=0;fillColor=#F7FF12;" vertex="1" parent="1">
          <mxGeometry x="119" y="220" width="110" height="40" as="geometry" />
        </mxCell>
        <mxCell id="bb3maRveoX8HLHpQJ_gR-8" value="register" style="rounded=1;whiteSpace=wrap;html=1;fontSize=12;glass=0;strokeWidth=1;shadow=0;fillColor=#BFFF94;" vertex="1" parent="1">
          <mxGeometry x="273" y="150" width="180" height="30" as="geometry" />
        </mxCell>
        <mxCell id="bb3maRveoX8HLHpQJ_gR-9" value="bet_order" style="rounded=1;whiteSpace=wrap;html=1;fontSize=12;glass=0;strokeWidth=1;shadow=0;fillColor=#BFFF94;" vertex="1" parent="1">
          <mxGeometry x="273" y="190" width="180" height="30" as="geometry" />
        </mxCell>
        <mxCell id="bb3maRveoX8HLHpQJ_gR-10" value="recharge" style="rounded=1;whiteSpace=wrap;html=1;fontSize=12;glass=0;strokeWidth=1;shadow=0;fillColor=#BFFF94;" vertex="1" parent="1">
          <mxGeometry x="273" y="230" width="180" height="30" as="geometry" />
        </mxCell>
        <mxCell id="bb3maRveoX8HLHpQJ_gR-11" value="withdraw" style="rounded=1;whiteSpace=wrap;html=1;fontSize=12;glass=0;strokeWidth=1;shadow=0;fillColor=#BFFF94;" vertex="1" parent="1">
          <mxGeometry x="273" y="270" width="180" height="30" as="geometry" />
        </mxCell>
        <mxCell id="bb3maRveoX8HLHpQJ_gR-12" value="..." style="rounded=1;whiteSpace=wrap;html=1;fontSize=12;glass=0;strokeWidth=1;shadow=0;fillColor=#BFFF94;" vertex="1" parent="1">
          <mxGeometry x="273" y="310" width="180" height="30" as="geometry" />
        </mxCell>
        <mxCell id="bb3maRveoX8HLHpQJ_gR-13" value="&lt;span style=&quot;font-size: 14px;&quot;&gt;&lt;b&gt;验证&lt;/b&gt;&lt;/span&gt;&lt;b style=&quot;font-size: 14px;&quot;&gt;event&lt;/b&gt;" style="rounded=1;whiteSpace=wrap;html=1;fontSize=12;glass=0;strokeWidth=1;shadow=0;fillColor=#5CFFEF;" vertex="1" parent="1">
          <mxGeometry x="516" y="101" width="268" height="40" as="geometry" />
        </mxCell>
        <mxCell id="bb3maRveoX8HLHpQJ_gR-14" value="&lt;div style=&quot;text-align: left;&quot;&gt;&lt;span style=&quot;background-color: initial; font-size: 14px;&quot;&gt;&lt;b&gt;预处理&lt;/b&gt;&lt;/span&gt;&lt;b style=&quot;background-color: initial; font-size: 14px;&quot;&gt;user_info&lt;/b&gt;&lt;/div&gt;&lt;div style=&quot;text-align: left;&quot;&gt;&lt;span style=&quot;background-color: initial; font-size: 14px;&quot;&gt;&lt;b&gt;来源&lt;/b&gt;&lt;/span&gt;&lt;b style=&quot;font-size: 14px; background-color: initial;&quot;&gt;: cache,mysql,game server&lt;/b&gt;&lt;/div&gt;&lt;div style=&quot;text-align: left;&quot;&gt;&lt;span style=&quot;background-color: initial; font-size: 14px;&quot;&gt;&lt;b&gt;处理&lt;/b&gt;&lt;/span&gt;&lt;b style=&quot;background-color: initial;&quot;&gt;&lt;span style=&quot;font-size: 14px;&quot;&gt;: &lt;/span&gt;chn, adjust, register_time,&lt;/b&gt;&lt;/div&gt;&lt;div style=&quot;font-weight: bold; text-align: left;&quot;&gt;&lt;b style=&quot;background-color: initial;&quot;&gt;&lt;font style=&quot;font-size: 12px;&quot;&gt;&amp;nbsp; &amp;nbsp; &amp;nbsp; &amp;nbsp; &amp;nbsp; &amp;nbsp;event_user_type, user_active_days&lt;/font&gt;&lt;/b&gt;&lt;/div&gt;&lt;div style=&quot;font-weight: bold; text-align: left;&quot;&gt;&lt;b style=&quot;background-color: initial;&quot;&gt;&lt;font style=&quot;font-size: 12px;&quot;&gt;&amp;nbsp; &amp;nbsp; &amp;nbsp; &amp;nbsp; &amp;nbsp; &amp;nbsp;device_active_days,last_login_chn&lt;/font&gt;&lt;/b&gt;&lt;/div&gt;&lt;div style=&quot;font-weight: bold; text-align: left;&quot;&gt;&lt;b style=&quot;background-color: initial;&quot;&gt;&lt;font style=&quot;font-size: 12px;&quot;&gt;&amp;nbsp; &amp;nbsp; &amp;nbsp; &amp;nbsp; &amp;nbsp; &amp;nbsp;bound_device...&lt;/font&gt;&lt;/b&gt;&lt;/div&gt;" style="rounded=1;whiteSpace=wrap;html=1;fontSize=12;glass=0;strokeWidth=1;shadow=0;fillColor=#5CFFEF;" vertex="1" parent="1">
          <mxGeometry x="514" y="199" width="270" height="100" as="geometry" />
        </mxCell>
        <mxCell id="bb3maRveoX8HLHpQJ_gR-15" value="&lt;span style=&quot;font-size: 14px;&quot;&gt;&lt;b&gt;特殊处理&lt;/b&gt;&lt;/span&gt;&lt;br&gt;&lt;b style=&quot;font-size: 14px;&quot;&gt;(&lt;/b&gt;&lt;span style=&quot;font-size: 14px;&quot;&gt;&lt;b&gt;注册事件延迟&lt;/b&gt;&lt;/span&gt;&lt;b style=&quot;font-size: 14px;&quot;&gt;)&lt;/b&gt;" style="rounded=1;whiteSpace=wrap;html=1;fontSize=12;glass=0;strokeWidth=1;shadow=0;fillColor=#FF409F;" vertex="1" parent="1">
          <mxGeometry x="517" y="308" width="266" height="40" as="geometry" />
        </mxCell>
        <mxCell id="bb3maRveoX8HLHpQJ_gR-16" value="&lt;span style=&quot;font-size: 14px;&quot;&gt;&lt;b&gt;特殊处理&lt;/b&gt;&lt;/span&gt;&lt;br&gt;&lt;b style=&quot;font-size: 14px;&quot;&gt;(&lt;/b&gt;&lt;b style=&quot;font-size: 14px;&quot;&gt;提現回滾&lt;/b&gt;&lt;b style=&quot;font-size: 14px;&quot;&gt;)&lt;/b&gt;" style="rounded=1;whiteSpace=wrap;html=1;fontSize=12;glass=0;strokeWidth=1;shadow=0;fillColor=#FF409F;" vertex="1" parent="1">
          <mxGeometry x="517" y="357" width="266" height="40" as="geometry" />
        </mxCell>
        <mxCell id="bb3maRveoX8HLHpQJ_gR-17" value="&lt;span style=&quot;font-size: 14px;&quot;&gt;&lt;b&gt;记录首次事件&lt;/b&gt;&lt;/span&gt;&lt;br&gt;&lt;b style=&quot;font-size: 14px;&quot;&gt;(bet,recharge,withdraw)&lt;/b&gt;" style="rounded=1;whiteSpace=wrap;html=1;fontSize=12;glass=0;strokeWidth=1;shadow=0;fillColor=#5CFFEF;" vertex="1" parent="1">
          <mxGeometry x="516" y="150" width="268" height="40" as="geometry" />
        </mxCell>
      </root>
    </mxGraphModel>
  </diagram>
</mxfile>
